<svg xmlns="http://www.w3.org/2000/svg" width="33.498" height="44.076" viewBox="0 0 33.498 44.076">
  <g id="Group_215" data-name="Group 215" transform="translate(-6 -3)">
    <path id="Path_717" data-name="Path 717" d="M39.5,11.815V44.431a2.639,2.639,0,0,1-2.645,2.645H8.645A2.639,2.639,0,0,1,6,44.431V5.645A2.64,2.64,0,0,1,8.645,3H30.683" transform="translate(0 0)" fill="#7349bd"/>
    <path id="Path_718" data-name="Path 718" d="M20,3V9.171a2.639,2.639,0,0,0,2.645,2.645h6.171Z" transform="translate(10.683 0)" fill="#b7a2dd"/>
    <path id="Path_719" data-name="Path 719" d="M10.39,1033.86a.882.882,0,1,0,.882.881A.881.881,0,0,0,10.39,1033.86Zm3.526,0a.882.882,0,0,0,0,1.763H29.769a.882.882,0,0,0,0-1.763Zm-3.526,3.526a.882.882,0,1,0,.882.882A.882.882,0,0,0,10.39,1037.386Zm3.526,0a.882.882,0,0,0,0,1.763H29.769a.882.882,0,0,0,0-1.763Zm-3.526,3.526a.882.882,0,1,0,.882.881A.881.881,0,0,0,10.39,1040.912Zm3.526,0a.882.882,0,0,0,0,1.763H29.769a.882.882,0,0,0,0-1.763Z" transform="translate(2.677 -1012.352)" fill="#f9f9f9" fill-rule="evenodd"/>
  </g>
</svg>
