<svg xmlns="http://www.w3.org/2000/svg" width="68.36" height="68.36" viewBox="0 0 68.36 68.36">
  <path id="Path_720" data-name="Path 720" d="M46.24,10.82A34.182,34.182,0,1,0,80.42,45,34.176,34.176,0,0,0,46.24,10.82ZM14.76,45.52A31.516,31.516,0,0,1,45.87,13.61L41.56,42.16,18.8,60.56A31.349,31.349,0,0,1,14.76,45.52ZM62.39,72.19A31.5,31.5,0,0,1,19.2,61.27l27.05-11.2L73.41,61.1A31.467,31.467,0,0,1,62.39,72.19ZM50.79,42.54,46.68,13.61A31.547,31.547,0,0,1,73.82,60.36Z" transform="translate(-12.06 -10.82)" fill-rule="evenodd"/>
</svg>
