<svg id="Goverment" xmlns="http://www.w3.org/2000/svg" width="128" height="128" viewBox="0 0 128 128">
  <rect id="Rectangle_51" data-name="Rectangle 51" width="128" height="128" fill="none"/>
  <path id="presidential_chair" data-name="presidential chair" d="M85.432,53.873H78.188a2.414,2.414,0,1,1,0-4.829h7.243V44.216H78.188a2.414,2.414,0,1,1,0-4.829h7.243V34.558H78.188a2.414,2.414,0,1,1,0-4.829h7.243V10.245A2.257,2.257,0,0,0,83.186,8H34.56a2.257,2.257,0,0,0-2.245,2.245V29.729h7.243a2.414,2.414,0,1,1,0,4.829H32.315v4.829h7.243a2.414,2.414,0,1,1,0,4.829H32.315v4.829h7.243a2.414,2.414,0,1,1,0,4.829H32.315v9.658H85.432Zm-12.917-26.1-5.529,4.008a1.866,1.866,0,0,0-.676,2.1l2.1,6.519a1.881,1.881,0,0,1-2.9,2.1l-5.529-4.008a1.883,1.883,0,0,0-2.221,0L52.234,42.5a1.881,1.881,0,0,1-2.9-2.1l2.1-6.519a1.866,1.866,0,0,0-.676-2.1l-5.529-4.008a1.9,1.9,0,0,1,1.111-3.428h6.833a1.869,1.869,0,0,0,1.787-1.3l2.125-6.495a1.876,1.876,0,0,1,3.573,0l2.125,6.495a1.869,1.869,0,0,0,1.787,1.3H71.4a1.9,1.9,0,0,1,1.111,3.428ZM97.673,44.216H90.26V70.943a7.069,7.069,0,0,1-7.074,7.074H34.56a7.069,7.069,0,0,1-7.074-7.074V44.216H20.074A7.069,7.069,0,0,0,13,51.29V85.429A7.069,7.069,0,0,0,20.074,92.5H56.459v15.16L22.1,119.117a7.243,7.243,0,1,0,6.408,2.953l27.951-9.317v9.175a7.243,7.243,0,1,0,4.829,0v-9.175l27.951,9.317a7.243,7.243,0,1,0,6.408-2.953L61.288,107.664V92.5H97.673a7.069,7.069,0,0,0,7.074-7.074V51.29a7.069,7.069,0,0,0-7.074-7.074Zm-2.583,84.5a2.414,2.414,0,1,1,2.414-2.414A2.414,2.414,0,0,1,95.089,128.719Zm-72.432,0a2.414,2.414,0,1,1,2.414-2.414A2.414,2.414,0,0,1,22.658,128.719Zm36.216,2.414a2.414,2.414,0,1,1,2.414-2.414A2.414,2.414,0,0,1,58.873,131.134ZM41.973,85.26H29.9a2.414,2.414,0,1,1,0-4.829H41.973a2.414,2.414,0,0,1,0,4.829Zm45.873,0H75.774a2.414,2.414,0,0,1,0-4.829H87.846a2.414,2.414,0,0,1,0,4.829ZM32.315,70.943V68.36H85.432v2.583a2.257,2.257,0,0,1-2.245,2.245H34.56a2.257,2.257,0,0,1-2.245-2.245Z" transform="translate(5.127 -8)" fill="#fff"/>
</svg>
