<svg id="Hospital" xmlns="http://www.w3.org/2000/svg" width="128" height="128" viewBox="0 0 128 128">
  <rect id="Rectangle_43" data-name="Rectangle 43" width="128" height="128" transform="translate(0)" fill="none"/>
  <g id="Group_28" data-name="Group 28" transform="translate(0 0)">
    <path id="Path_77" data-name="Path 77" d="M2.658,14.288A2.136,2.136,0,0,0,.529,16.423V29.2A2.139,2.139,0,0,0,2.658,31.34H126.392a2.136,2.136,0,0,0,2.137-2.143V16.422a2.136,2.136,0,0,0-2.137-2.134Z" transform="translate(-0.529 96.66)" fill="#fff"/>
    <path id="Path_78" data-name="Path 78" d="M7.158,3.175A2.088,2.088,0,0,0,5.027,5.309v81.1a2.088,2.088,0,0,0,2.131,2.134h8.524a2.089,2.089,0,0,0,2.131-2.134l0-10.68a7.343,7.343,0,0,1,.757-3.088,6.313,6.313,0,0,1,5.633-3.306H41.26a7.253,7.253,0,0,1,3.084.756,6.318,6.318,0,0,1,3.3,5.639l0,10.68a2.088,2.088,0,0,0,2.131,2.134H58.3a2.089,2.089,0,0,0,2.131-2.134V5.309A2.088,2.088,0,0,0,58.3,3.175ZM30.592,7.448h4.262a4.663,4.663,0,0,1,2.031.487,3.994,3.994,0,0,1,2.236,3.782V18.11l2.135,0,4.266,0a4.6,4.6,0,0,1,2.014.489,4.008,4.008,0,0,1,2.248,3.784v4.268a4.81,4.81,0,0,1-.5,2.017,3.982,3.982,0,0,1-3.759,2.252h-6.4v6.394A4,4,0,0,1,36.885,41.1a4.663,4.663,0,0,1-2.031.487H30.592a4.612,4.612,0,0,1-2.014-.487,4,4,0,0,1-2.231-3.786V30.92H19.941a4,4,0,0,1-3.774-2.252,4.616,4.616,0,0,1-.488-2.017V22.383a4.616,4.616,0,0,1,.488-2.017,4,4,0,0,1,3.774-2.256h6.406V11.716a4.681,4.681,0,0,1,.486-2.034,3.974,3.974,0,0,1,3.759-2.235Z" transform="translate(31.269 18.138)" fill="#fff"/>
    <path id="Path_79" data-name="Path 79" d="M13.053.529A10.05,10.05,0,0,0,8.88,1.552,7.813,7.813,0,0,0,4.5,9.059v6.379a2.135,2.135,0,0,0,2.131,2.143H66.42a2.137,2.137,0,0,0,2.147-2.143V9.059a7.834,7.834,0,0,0-4.383-7.507A10.154,10.154,0,0,0,60.019.529Z" transform="translate(27.464 -0.529)" fill="#fff"/>
    <path id="Path_80" data-name="Path 80" d="M7.206,4.5A5.942,5.942,0,0,0,1.567,7.8a7.506,7.506,0,0,0-.774,3.086L.8,76.956a2.089,2.089,0,0,0,2.133,2.131h25.6a2.049,2.049,0,0,0,2.138-2.065l0-70.393A2.089,2.089,0,0,0,28.535,4.5Zm6.187,12.791a1.639,1.639,0,0,1,.2,0h10.68A2.132,2.132,0,0,1,26.4,19.411V30.08A2.132,2.132,0,0,1,24.277,32.2H13.6a2.132,2.132,0,0,1-2.125-2.123V19.411a2.132,2.132,0,0,1,1.92-2.123Zm.2,21.3h10.68A2.135,2.135,0,0,1,26.4,40.731V51.378a2.132,2.132,0,0,1-2.125,2.14H13.6a2.132,2.132,0,0,1-2.125-2.14V40.731A2.134,2.134,0,0,1,13.6,38.587Zm0,21.32h10.68a2.132,2.132,0,0,1,2.125,2.14V72.7a2.132,2.132,0,0,1-2.125,2.123H13.6A2.132,2.132,0,0,1,11.472,72.7V62.046a2.132,2.132,0,0,1,2.125-2.14ZM94.67,6.629V76.956A2.089,2.089,0,0,0,96.8,79.087h25.6a2.088,2.088,0,0,0,2.133-2.131l-.009-66.069a7.271,7.271,0,0,0-.753-3.084A5.969,5.969,0,0,0,118.137,4.5H96.8A2.089,2.089,0,0,0,94.67,6.629Zm6.191,10.66a1.639,1.639,0,0,1,.2,0h10.675a2.132,2.132,0,0,1,2.125,2.123V30.08a2.132,2.132,0,0,1-2.125,2.123H101.066a2.132,2.132,0,0,1-2.125-2.123V19.411a2.132,2.132,0,0,1,1.92-2.123Zm.2,21.3h10.675a2.135,2.135,0,0,1,2.125,2.144V51.378a2.132,2.132,0,0,1-2.125,2.14H101.066a2.132,2.132,0,0,1-2.125-2.14V40.731a2.134,2.134,0,0,1,2.125-2.144Zm0,21.32h10.675a2.132,2.132,0,0,1,2.125,2.14V72.7a2.132,2.132,0,0,1-2.125,2.123H101.066A2.132,2.132,0,0,1,98.941,72.7V62.046a2.132,2.132,0,0,1,2.125-2.14Z" transform="translate(1.331 27.544)" fill="#fff"/>
  </g>
</svg>
