<svg id="Books" xmlns="http://www.w3.org/2000/svg" width="128" height="128" viewBox="0 0 128 128">
  <rect id="Rectangle_45" data-name="Rectangle 45" width="128" height="128" fill="none"/>
  <path id="Path_71" data-name="Path 71" d="M121.465,57.466h-2.133V34h2.133a2.133,2.133,0,0,0,0-4.267H109.9A15.979,15.979,0,0,0,99.066,2h-80a2.133,2.133,0,1,0,0,4.267H21.2V29.733H19.066a2.133,2.133,0,1,0,0,4.267H30.629a15.915,15.915,0,0,0,0,23.466H4.133a2.133,2.133,0,1,0,0,4.267H6.267V85.2H4.133a2.133,2.133,0,1,0,0,4.267H22.074l-.469.427A16,16,0,0,0,32.933,117.2H34v10.667a2.147,2.147,0,0,0,3.648,1.515l7.019-7.04,7.019,7.04A2.133,2.133,0,0,0,53.2,130a1.792,1.792,0,0,0,.811-.171,2.133,2.133,0,0,0,1.323-1.963V117.2h57.6a2.133,2.133,0,1,0,0-4.267H110.8V89.466h2.133a2.133,2.133,0,0,0,0-4.267H94.97a15.915,15.915,0,0,0,0-23.466h26.5a2.133,2.133,0,0,0,0-4.267Zm-14.933,32v23.466h-51.2V104.4a2.133,2.133,0,0,0-2.133-2.133H36.133A2.133,2.133,0,0,0,34,104.4v8.533H32.933a11.733,11.733,0,0,1,0-23.466Zm8.533-32h-73.6a11.733,11.733,0,0,1,0-23.466h73.6Z" transform="translate(1.201 -1.999)" fill="#fff"/>
</svg>
