<svg id="School" xmlns="http://www.w3.org/2000/svg" width="128" height="128" viewBox="0 0 128 128">
  <rect id="Rectangle_46" data-name="Rectangle 46" width="128" height="128" fill="none"/>
  <g id="Group_30" data-name="Group 30" transform="translate(3.441 3.445)">
    <path id="Path_84" data-name="Path 84" d="M120.924,95.256,27.856,2.188a4.036,4.036,0,0,0-5.731,0L2.188,22.125a4.036,4.036,0,0,0,0,5.731L12.641,38.309l5.448-5.489a4.052,4.052,0,1,1,5.731,5.731L18.332,44l5.408,5.448L32.5,40.569A4.052,4.052,0,0,1,38.229,46.3l-8.96,8.758,5.368,5.408,5.448-5.489a4.052,4.052,0,1,1,5.731,5.731l-5.489,5.448,5.408,5.368,8.758-8.8a4.052,4.052,0,0,1,5.731,5.731l-8.8,8.758,5.368,5.408,5.448-5.489a4.052,4.052,0,0,1,5.731,5.731l-5.489,5.448,5.57,5.529,8.758-8.8a4.036,4.036,0,0,1,5.731,5.57l-8.879,8.8,5.368,5.368,5.448-5.489a4.052,4.052,0,0,1,5.731,5.731l-5.489,5.448,10.453,10.453a4.093,4.093,0,0,0,5.731,0l19.937-19.937a4.036,4.036,0,0,0,.081-5.731Z" transform="translate(-0.994 -0.994)" fill="#fff"/>
    <rect id="Rectangle_39" data-name="Rectangle 39" width="22.399" height="35.597" transform="translate(66.467 29.463) rotate(-45)" fill="#fff"/>
    <path id="Path_85" data-name="Path 85" d="M52.716,29.265a4.036,4.036,0,0,0,1.17-2.5l1.978-21.35a4.036,4.036,0,0,0-4.4-4.4L30.075,2.991a4.036,4.036,0,0,0-2.5,1.17L22.81,9.085,47.792,34.068Z" transform="translate(65.236 -0.99)" fill="#fff"/>
    <rect id="Rectangle_40" data-name="Rectangle 40" width="21.35" height="35.597" transform="translate(14.212 81.726) rotate(-45)" fill="#fff"/>
    <path id="Path_86" data-name="Path 86" d="M6.213,25.929A17.808,17.808,0,0,0,31.4,51.113L34.667,47.8,9.523,22.66Z" transform="translate(-0.984 64.781)" fill="#fff"/>
  </g>
</svg>
