<svg id="Component_17_13" data-name="Component 17 – 13" xmlns="http://www.w3.org/2000/svg" width="90" height="90" viewBox="0 0 90 90">
  <rect id="Rectangle_137" data-name="Rectangle 137" width="90" height="90" fill="none"/>
  <g id="Group_57" data-name="Group 57" transform="translate(7.682 7.672)">
    <path id="Path_3184" data-name="Path 3184" d="M72.875,23.746,95.981.721a2.487,2.487,0,0,1,3.507.006l21.8,21.876a2.487,2.487,0,0,1-.006,3.508L98.176,49.136Zm20.7-4.086a6.2,6.2,0,1,1-.015,8.77,6.2,6.2,0,0,1,.015-8.77Z" transform="translate(-47.373 0)" fill="#e61e29" fill-rule="evenodd"/>
    <path id="Path_3185" data-name="Path 3185" d="M28.751,93.273a6.2,6.2,0,1,1-.015,8.769A6.2,6.2,0,0,1,28.751,93.273ZM10.6,93.329a6.2,6.2,0,1,1-.015,8.769,6.2,6.2,0,0,1,.015-8.769ZM.727,95.635,23.832,72.61,49.133,98,26.028,121.025a2.488,2.488,0,0,1-3.508-.006L.72,99.143a2.487,2.487,0,0,1,.006-3.508Z" transform="translate(0 -47.201)" fill="#0074ad" fill-rule="evenodd"/>
    <path id="Path_3186" data-name="Path 3186" d="M95.14,206.58v-3.1H93.96v-.541h2.974v.541H95.747v3.1Zm2.2,0v-3.64h.893l.919,2.907.889-2.907h.877v3.64h-.555v-3.055l-.938,3.055h-.549l-.978-3.1v3.1Z" transform="translate(-61.08 -131.924)" fill="#0074ad"/>
  </g>
</svg>
