<svg xmlns="http://www.w3.org/2000/svg" xmlns:xlink="http://www.w3.org/1999/xlink" width="334.234" height="180.919" viewBox="0 0 334.234 180.919">
  <defs>
    <linearGradient id="linear-gradient" x1="1" x2="-0.122" y2="1.355" gradientUnits="objectBoundingBox">
      <stop offset="0" stop-color="#4b98ef"/>
      <stop offset="1" stop-color="#26649a"/>
    </linearGradient>
    <clipPath id="clip-path">
      <path id="Path_111" data-name="Path 111" d="M260,1007.547l5.991,10.215a3.415,3.415,0,0,0,2.212,1.607l11.569,2.541a3.405,3.405,0,0,1,1.819,5.6l-7.868,8.855a3.405,3.405,0,0,0-.845,2.594l1.159,11.788a3.405,3.405,0,0,1-4.761,3.46l-10.854-4.746a3.405,3.405,0,0,0-2.734,0l-10.846,4.756a3.405,3.405,0,0,1-4.761-3.46l1.159-11.788a3.405,3.405,0,0,0-.845-2.594l-7.877-8.862a3.405,3.405,0,0,1,1.819-5.6l11.569-2.541a3.405,3.405,0,0,0,2.212-1.607l5.991-10.216a3.405,3.405,0,0,1,5.888,0Z" transform="translate(-231.657 -1005.854)" fill="none"/>
    </clipPath>
    <clipPath id="clip-path-2">
      <path id="Path_115" data-name="Path 115" d="M504.91,477.97l6,10.216a3.415,3.415,0,0,0,2.21,1.61l11.571,2.541a3.405,3.405,0,0,1,1.819,5.6l-7.877,8.857a3.405,3.405,0,0,0-.843,2.594l1.159,11.788a3.405,3.405,0,0,1-4.762,3.46l-10.854-4.746a3.405,3.405,0,0,0-2.732,0l-10.854,4.746a3.405,3.405,0,0,1-4.762-3.46l1.161-11.788a3.415,3.415,0,0,0-.845-2.594l-7.868-8.857a3.405,3.405,0,0,1,1.818-5.6l11.571-2.541a3.415,3.415,0,0,0,2.212-1.607l6-10.215a3.405,3.405,0,0,1,5.878,0Z" transform="translate(-476.566 -476.286)" fill="none"/>
    </clipPath>
    <clipPath id="clip-path-3">
      <path id="Path_119" data-name="Path 119" d="M1137.073,261.682l6,10.215a3.415,3.415,0,0,0,2.212,1.607l11.563,2.552a3.405,3.405,0,0,1,1.819,5.6l-7.869,8.857a3.405,3.405,0,0,0-.843,2.594l1.159,11.79a3.405,3.405,0,0,1-4.762,3.459l-10.854-4.746a3.421,3.421,0,0,0-2.732,0l-10.859,4.743a3.405,3.405,0,0,1-4.762-3.459l1.159-11.79a3.406,3.406,0,0,0-.843-2.594l-7.869-8.857a3.405,3.405,0,0,1,1.824-5.594l11.571-2.539a3.415,3.415,0,0,0,2.212-1.607l6-10.215a3.405,3.405,0,0,1,5.876-.013Z" transform="translate(-1108.727 -260.004)" fill="none"/>
    </clipPath>
    <clipPath id="clip-path-4">
      <path id="Path_123" data-name="Path 123" d="M1747.821,477.977l6,10.215a3.414,3.414,0,0,0,2.212,1.607l11.569,2.541a3.405,3.405,0,0,1,1.819,5.6l-7.867,8.857a3.405,3.405,0,0,0-.845,2.594l1.159,11.788a3.405,3.405,0,0,1-4.761,3.46l-10.854-4.746a3.4,3.4,0,0,0-2.734,0l-10.854,4.746a3.405,3.405,0,0,1-4.761-3.46l1.159-11.788a3.4,3.4,0,0,0-.845-2.594l-7.868-8.857a3.405,3.405,0,0,1,1.813-5.594l11.569-2.541a3.405,3.405,0,0,0,2.212-1.607l6-10.216a3.405,3.405,0,0,1,5.876,0Z" transform="translate(-1719.486 -476.294)" fill="none"/>
    </clipPath>
    <clipPath id="clip-path-5">
      <path id="Path_127" data-name="Path 127" d="M1992.591,1007.541l5.991,10.215a3.414,3.414,0,0,0,2.212,1.607l11.571,2.541a3.405,3.405,0,0,1,1.818,5.6l-7.868,8.855a3.415,3.415,0,0,0-.845,2.594l1.159,11.788a3.405,3.405,0,0,1-4.761,3.46l-10.854-4.746a3.406,3.406,0,0,0-2.734,0l-10.853,4.746a3.405,3.405,0,0,1-4.762-3.46l1.159-11.788a3.4,3.4,0,0,0-.845-2.594l-7.868-8.857a3.405,3.405,0,0,1,1.819-5.6l11.571-2.541a3.4,3.4,0,0,0,2.21-1.607l5.991-10.215a3.405,3.405,0,0,1,5.886,0Z" transform="translate(-1964.247 -1005.848)" fill="none"/>
    </clipPath>
  </defs>
  <g id="rate" transform="translate(-7.32 -192.615)">
    <rect id="Rectangle_76" data-name="Rectangle 76" width="16.656" height="3.553" transform="translate(255.592 355.879)" fill="#fff" opacity="0.3"/>
    <rect id="Rectangle_77" data-name="Rectangle 77" width="16.656" height="3.553" transform="translate(76.378 355.879)" fill="#fff" opacity="0.3"/>
    <rect id="Rectangle_78" data-name="Rectangle 78" width="3.553" height="16.656" transform="translate(172.537 259.72)" fill="#fff" opacity="0.3"/>
    <rect id="Rectangle_79" data-name="Rectangle 79" width="3.553" height="16.656" transform="translate(103.807 289.663) rotate(-45)" fill="#fff" opacity="0.3"/>
    <rect id="Rectangle_80" data-name="Rectangle 80" width="16.656" height="3.553" transform="translate(230.531 298.925) rotate(-45)" fill="#fff" opacity="0.3"/>
    <rect id="Rectangle_81" data-name="Rectangle 81" width="3.553" height="16.656" transform="matrix(0.377, -0.926, 0.926, 0.377, 82.928, 322.375)" fill="#fff" opacity="0.3"/>
    <rect id="Rectangle_82" data-name="Rectangle 82" width="16.656" height="3.553" transform="matrix(0.377, -0.926, 0.926, 0.377, 203.292, 281.689)" fill="#fff" opacity="0.3"/>
    <rect id="Rectangle_83" data-name="Rectangle 83" width="3.553" height="16.656" transform="translate(134.639 268.09) rotate(-22.86)" fill="#fff" opacity="0.3"/>
    <rect id="Rectangle_84" data-name="Rectangle 84" width="16.656" height="3.553" transform="translate(248.522 324.437) rotate(-22.86)" fill="#fff" opacity="0.3"/>
    <path id="Path_108" data-name="Path 108" d="M1202.637,1168.352s88.88-32.771,91.487-33.777,1.909-2.594,1.909-2.594-.162-1.72-2.933-1.317-96.275,15.566-96.275,15.566-13.021,2.444-10.138,14.487C1190.1,1172.626,1202.637,1168.352,1202.637,1168.352Z" transform="translate(-1022.914 -795.564)" fill="url(#linear-gradient)"/>
    <g id="Group_43" data-name="Group 43" transform="translate(8.565 314.81)" clip-path="url(#clip-path)">
      <path id="Path_109" data-name="Path 109" d="M260,1007.547l5.991,10.215a3.415,3.415,0,0,0,2.212,1.607l11.569,2.541a3.405,3.405,0,0,1,1.819,5.6l-7.868,8.855a3.405,3.405,0,0,0-.845,2.594l1.159,11.788a3.405,3.405,0,0,1-4.761,3.46l-10.854-4.746a3.405,3.405,0,0,0-2.734,0l-10.846,4.756a3.405,3.405,0,0,1-4.761-3.46l1.159-11.788a3.405,3.405,0,0,0-.845-2.594l-7.877-8.862a3.405,3.405,0,0,1,1.819-5.6l11.569-2.541a3.405,3.405,0,0,0,2.212-1.607l5.991-10.216a3.405,3.405,0,0,1,5.888,0Z" transform="translate(-231.657 -1005.854)" fill="#3683cd"/>
      <path id="Path_110" data-name="Path 110" d="M272.581,967.97V912.33H216.66v55.64s13.11-4.3,22.5-2.948S266.293,972.272,272.581,967.97Z" transform="translate(-219.092 -927.495)" fill="#292d39"/>
    </g>
    <path id="Path_112" data-name="Path 112" d="M264.226,1049.339a4.671,4.671,0,0,1-1.878-.4l-10.854-4.746a2.16,2.16,0,0,0-1.732,0l-10.861,4.746a4.662,4.662,0,0,1-6.5-4.73l1.159-11.79a2.161,2.161,0,0,0-.535-1.646l-7.868-8.857a4.662,4.662,0,0,1,2.486-7.65l11.571-2.539a2.17,2.17,0,0,0,1.4-1.018l5.991-10.215a4.662,4.662,0,0,1,8.043,0l5.991,10.215a2.17,2.17,0,0,0,1.4,1.018l11.571,2.539a4.662,4.662,0,0,1,2.486,7.65l-7.867,8.857a2.161,2.161,0,0,0-.535,1.646l1.159,11.79a4.673,4.673,0,0,1-4.629,5.124Zm-13.6-7.824a4.664,4.664,0,0,1,1.868.389l10.854,4.741a2.16,2.16,0,0,0,3.014-2.191l-1.159-11.79a4.683,4.683,0,0,1,1.155-3.553l7.868-8.855a2.161,2.161,0,0,0-1.151-3.546l-11.571-2.539a4.68,4.68,0,0,1-3.022-2.2l-5.991-10.216a2.16,2.16,0,0,0-3.729,0l-5.991,10.216a4.683,4.683,0,0,1-3.022,2.2l-11.571,2.539a2.161,2.161,0,0,0-1.151,3.546l7.868,8.855a4.683,4.683,0,0,1,1.155,3.553l-1.159,11.79a2.16,2.16,0,0,0,3.018,2.191l10.854-4.746A4.664,4.664,0,0,1,250.628,1041.515Z" transform="translate(-216.66 -684.626)" fill="#3683cd"/>
    <g id="Group_44" data-name="Group 44" transform="translate(48.277 228.94)" clip-path="url(#clip-path-2)">
      <path id="Path_113" data-name="Path 113" d="M504.91,477.97l6,10.216a3.415,3.415,0,0,0,2.21,1.61l11.571,2.541a3.405,3.405,0,0,1,1.819,5.6l-7.877,8.857a3.405,3.405,0,0,0-.843,2.594l1.159,11.788a3.405,3.405,0,0,1-4.762,3.46l-10.854-4.746a3.405,3.405,0,0,0-2.732,0l-10.854,4.746a3.405,3.405,0,0,1-4.762-3.46l1.161-11.788a3.415,3.415,0,0,0-.845-2.594l-7.868-8.857a3.405,3.405,0,0,1,1.818-5.6l11.571-2.541a3.415,3.415,0,0,0,2.212-1.607l6-10.215a3.405,3.405,0,0,1,5.878,0Z" transform="translate(-476.566 -476.286)" fill="#3683cd"/>
      <path id="Path_114" data-name="Path 114" d="M461.57,395.492V339.85h55.921v55.642s-13.11-4.3-22.5-2.948S467.86,399.792,461.57,395.492Z" transform="translate(-464.002 -361.973)" fill="#292d39"/>
    </g>
    <path id="Path_116" data-name="Path 116" d="M509.159,519.722a4.678,4.678,0,0,1-1.878-.4l-10.854-4.746a2.155,2.155,0,0,0-1.73,0l-10.846,4.745a4.662,4.662,0,0,1-6.507-4.728l1.156-11.79a2.168,2.168,0,0,0-.535-1.646L470.1,492.3a4.662,4.662,0,0,1,2.486-7.65l11.569-2.539a2.166,2.166,0,0,0,1.4-1.018l5.991-10.215a4.662,4.662,0,0,1,8.044,0h0l6,10.215a2.166,2.166,0,0,0,1.4,1.018l11.561,2.539a4.662,4.662,0,0,1,2.486,7.65l-7.867,8.857a2.168,2.168,0,0,0-.535,1.646l1.159,11.79a4.673,4.673,0,0,1-4.634,5.126Zm-13.6-7.824a4.672,4.672,0,0,1,1.868.389l10.853,4.746a2.161,2.161,0,0,0,3.016-2.191l-1.159-11.79a4.676,4.676,0,0,1,1.154-3.553l7.868-8.857a2.16,2.16,0,0,0-1.151-3.545l-11.571-2.539a4.678,4.678,0,0,1-3.022-2.2l-5.991-10.215a2.161,2.161,0,0,0-3.729,0l-6,10.215a4.678,4.678,0,0,1-3.022,2.2l-11.56,2.538a2.16,2.16,0,0,0-1.153,3.545l7.868,8.857a4.676,4.676,0,0,1,1.154,3.553l-1.159,11.79a2.161,2.161,0,0,0,3.016,2.191l10.854-4.746a4.665,4.665,0,0,1,1.868-.389Z" transform="translate(-421.883 -240.885)" fill="#3683cd"/>
    <g id="Group_45" data-name="Group 45" transform="translate(150.782 193.87)" clip-path="url(#clip-path-3)">
      <path id="Path_117" data-name="Path 117" d="M1137.073,261.682l6,10.215a3.415,3.415,0,0,0,2.212,1.607l11.563,2.552a3.405,3.405,0,0,1,1.819,5.6l-7.869,8.857a3.405,3.405,0,0,0-.843,2.594l1.159,11.79a3.405,3.405,0,0,1-4.762,3.459l-10.854-4.746a3.421,3.421,0,0,0-2.732,0l-10.859,4.743a3.405,3.405,0,0,1-4.762-3.459l1.159-11.79a3.406,3.406,0,0,0-.843-2.594l-7.869-8.857a3.405,3.405,0,0,1,1.824-5.594l11.571-2.539a3.415,3.415,0,0,0,2.212-1.607l6-10.215a3.405,3.405,0,0,1,5.876-.013Z" transform="translate(-1108.727 -260.004)" fill="#3683cd"/>
      <path id="Path_118" data-name="Path 118" d="M1161.1,115.29V59.65H1105.18v55.64s13.1-4.3,22.51-2.948S1154.811,119.591,1161.1,115.29Z" transform="translate(-1105.755 -92.138)" fill="#292d39"/>
    </g>
    <path id="Path_120" data-name="Path 120" d="M1114.118,303.41a4.673,4.673,0,0,1-4.628-5.126l1.159-11.788a2.17,2.17,0,0,0-.535-1.647l-7.868-8.855a4.662,4.662,0,0,1,2.486-7.65L1116.3,265.8a2.165,2.165,0,0,0,1.4-1.017l5.991-10.215a4.662,4.662,0,0,1,8.044,0l6,10.215a2.165,2.165,0,0,0,1.4,1.017l11.569,2.541a4.662,4.662,0,0,1,2.486,7.65l-7.868,8.855a2.17,2.17,0,0,0-.535,1.647l1.159,11.788a4.662,4.662,0,0,1-6.507,4.728l-10.862-4.74a2.17,2.17,0,0,0-1.73,0L1116,303.019a4.68,4.68,0,0,1-1.878.391Zm13.6-48.645a2.14,2.14,0,0,0-1.863,1.069l-6,10.215a4.673,4.673,0,0,1-3.022,2.2l-11.555,2.543a2.16,2.16,0,0,0-1.153,3.545l7.861,8.862a4.675,4.675,0,0,1,1.154,3.553l-1.159,11.788a2.161,2.161,0,0,0,3.016,2.192l10.854-4.746a4.673,4.673,0,0,1,3.729,0l10.854,4.746a2.161,2.161,0,0,0,3.016-2.192l-1.159-11.788a4.674,4.674,0,0,1,1.154-3.553l7.868-8.857a2.16,2.16,0,0,0-1.153-3.545l-11.569-2.541a4.673,4.673,0,0,1-3.023-2.2l-5.991-10.215a2.14,2.14,0,0,0-1.86-1.077Z" transform="translate(-951.529 -59.65)" fill="#3683cd"/>
    <g id="Group_46" data-name="Group 46" transform="translate(249.817 228.942)" clip-path="url(#clip-path-4)">
      <path id="Path_121" data-name="Path 121" d="M1747.821,477.977l6,10.215a3.414,3.414,0,0,0,2.212,1.607l11.569,2.541a3.405,3.405,0,0,1,1.819,5.6l-7.867,8.857a3.405,3.405,0,0,0-.845,2.594l1.159,11.788a3.405,3.405,0,0,1-4.761,3.46l-10.854-4.746a3.4,3.4,0,0,0-2.734,0l-10.854,4.746a3.405,3.405,0,0,1-4.761-3.46l1.159-11.788a3.4,3.4,0,0,0-.845-2.594l-7.868-8.857a3.405,3.405,0,0,1,1.813-5.594l11.569-2.541a3.405,3.405,0,0,0,2.212-1.607l6-10.216a3.405,3.405,0,0,1,5.876,0Z" transform="translate(-1719.486 -476.294)" fill="#3683cd"/>
      <path id="Path_122" data-name="Path 122" d="M1704.42,311.32V255.68h55.921v55.64s-13.108-4.3-22.5-2.948S1710.71,315.622,1704.42,311.32Z" transform="translate(-1706.863 -291.453)" fill="#292d39"/>
    </g>
    <path id="Path_124" data-name="Path 124" d="M1751.986,519.729a4.67,4.67,0,0,1-1.878-.4l-10.854-4.746a2.16,2.16,0,0,0-1.732,0l-10.854,4.746a4.662,4.662,0,0,1-6.507-4.728l1.159-11.79a2.161,2.161,0,0,0-.535-1.646l-7.868-8.858a4.662,4.662,0,0,1,2.486-7.65l11.571-2.539a2.169,2.169,0,0,0,1.4-1.018l6-10.215a4.662,4.662,0,0,1,8.043,0l5.991,10.215a2.17,2.17,0,0,0,1.4,1.018l11.571,2.539a4.662,4.662,0,0,1,2.486,7.65L1756,501.167a2.161,2.161,0,0,0-.535,1.646l1.159,11.79a4.673,4.673,0,0,1-4.629,5.124Zm-13.6-7.824a4.665,4.665,0,0,1,1.868.389l10.854,4.746a2.16,2.16,0,0,0,3.014-2.191l-1.156-11.792a4.677,4.677,0,0,1,1.155-3.553l7.867-8.857a2.16,2.16,0,0,0-1.151-3.545l-11.571-2.539a4.686,4.686,0,0,1-3.022-2.2l-6-10.215a2.16,2.16,0,0,0-3.729,0l-5.991,10.215a4.683,4.683,0,0,1-3.014,2.2l-11.571,2.539a2.16,2.16,0,0,0-1.151,3.545l7.867,8.857a4.681,4.681,0,0,1,1.155,3.553l-1.164,11.79a2.16,2.16,0,0,0,3.014,2.191l10.854-4.746a4.667,4.667,0,0,1,1.873-.389Z" transform="translate(-1463.179 -240.892)" fill="#3683cd"/>
    <g id="Group_47" data-name="Group 47" transform="translate(289.505 314.809)" clip-path="url(#clip-path-5)">
      <path id="Path_125" data-name="Path 125" d="M2005.169,852.25V796.61H1949.25v55.64s13.108-4.3,22.5-2.948S1998.881,856.552,2005.169,852.25Z" transform="translate(-1951.682 -830.538)" fill="#fff"/>
      <path id="Path_126" data-name="Path 126" d="M1992.591,1007.541l5.991,10.215a3.414,3.414,0,0,0,2.212,1.607l11.571,2.541a3.405,3.405,0,0,1,1.818,5.6l-7.868,8.855a3.415,3.415,0,0,0-.845,2.594l1.159,11.788a3.405,3.405,0,0,1-4.761,3.46l-10.854-4.746a3.406,3.406,0,0,0-2.734,0l-10.853,4.746a3.405,3.405,0,0,1-4.762-3.46l1.159-11.788a3.4,3.4,0,0,0-.845-2.594l-7.868-8.857a3.405,3.405,0,0,1,1.819-5.6l11.571-2.541a3.4,3.4,0,0,0,2.21-1.607l5.991-10.215a3.405,3.405,0,0,1,5.886,0Z" transform="translate(-1964.247 -1005.848)" fill="#3683cd"/>
    </g>
    <path id="Path_128" data-name="Path 128" d="M1996.814,1049.331a4.676,4.676,0,0,1-1.878-.4l-10.854-4.746a2.156,2.156,0,0,0-1.73,0l-10.854,4.746a4.662,4.662,0,0,1-6.507-4.73l1.159-11.79a2.168,2.168,0,0,0-.535-1.646l-7.868-8.857a4.662,4.662,0,0,1,2.486-7.65l11.569-2.539a2.166,2.166,0,0,0,1.4-1.018l5.991-10.215a4.662,4.662,0,0,1,8.044,0l5.991,10.215a2.167,2.167,0,0,0,1.4,1.018l11.571,2.539a4.662,4.662,0,0,1,2.486,7.65l-7.868,8.857a2.169,2.169,0,0,0-.535,1.646l1.159,11.79a4.673,4.673,0,0,1-4.629,5.124Zm-13.6-7.824a4.668,4.668,0,0,1,1.868.389l10.854,4.746a2.161,2.161,0,0,0,3.016-2.191l-1.159-11.79a4.668,4.668,0,0,1,1.155-3.553l7.868-8.855a2.161,2.161,0,0,0-1.153-3.546l-11.568-2.539a4.674,4.674,0,0,1-3.022-2.2l-5.991-10.215a2.162,2.162,0,0,0-3.729,0l-5.991,10.215a4.68,4.68,0,0,1-3.022,2.2l-11.571,2.539a2.161,2.161,0,0,0-1.151,3.546l7.868,8.855a4.676,4.676,0,0,1,1.154,3.553l-1.159,11.79a2.161,2.161,0,0,0,3.016,2.191l10.853-4.746A4.668,4.668,0,0,1,1983.216,1041.508Z" transform="translate(-1668.31 -684.618)" fill="#3683cd"/>
    <circle id="Ellipse_15" data-name="Ellipse 15" cx="3.275" cy="3.275" r="3.275" transform="translate(170.811 359.582)" fill="#354c8a"/>
  </g>
</svg>
