<svg xmlns="http://www.w3.org/2000/svg" xmlns:xlink="http://www.w3.org/1999/xlink" width="233.819" height="201.596" viewBox="0 0 233.819 201.596">
  <defs>
    <linearGradient id="linear-gradient" x1="0.5" x2="0.5" y2="1" gradientUnits="objectBoundingBox">
      <stop offset="0" stop-color="#3f8dd1"/>
      <stop offset="1" stop-color="#3885cf"/>
    </linearGradient>
  </defs>
  <g id="Designs_2" data-name="Designs 2" transform="translate(-0.055 13.078)">
    <rect id="Rectangle_107" data-name="Rectangle 107" width="14.256" height="38.969" transform="translate(101.152 188.477) rotate(-89.94)" fill="#4c9eef"/>
    <path id="Path_250" data-name="Path 250" d="M889.99,895.656l-38.591-.041-12.184-32.649a14.622,14.622,0,0,1,.023-10.293L864.155,786.8h5.319l-.061,57.675a6.172,6.172,0,0,0-.013,12.013v.178h2.849v-.178a6.172,6.172,0,0,0,.014-12.013l.061-57.675h5.153L901.6,852.923a14.637,14.637,0,0,1,.043,9.913Z" transform="translate(-750.131 -725.196)" fill="#4c9eef"/>
    <path id="Path_251" data-name="Path 251" d="M535.344,600.009q4.737-.342,9.521-1.156c20.2-3.444,36.907-13.024,43.611-25a1.819,1.819,0,0,0-3.171-1.781c-6.181,11.04-21.9,19.933-41.051,23.2-24.98,4.267-49.454-1.631-65.48-15.763-36.075-30.45-89.81-20.045-115.486,8.307a1.819,1.819,0,0,0,2.7,2.441c24.565-27.124,75.952-37.08,110.42-8C491.16,595.267,512.69,601.649,535.344,600.009Z" transform="translate(-359.326 -539.653)" fill="url(#linear-gradient)"/>
    <rect id="Rectangle_108" data-name="Rectangle 108" width="10.9" height="10.9" transform="translate(11.711 53.767) rotate(175.87)" fill="#3ca9fc"/>
    <rect id="Rectangle_109" data-name="Rectangle 109" width="10.9" height="10.9" transform="translate(233.874 36.473) rotate(175.87)" fill="#3ca9fc"/>
    <rect id="Rectangle_110" data-name="Rectangle 110" width="10.9" height="10.9" transform="translate(124.046 45.637) rotate(175.87)" fill="#3ca9fc"/>
    <rect id="Rectangle_111" data-name="Rectangle 111" width="1.211" height="116.048" transform="matrix(0.787, -0.617, 0.617, 0.787, 82.275, -4.405)" fill="#3683cd"/>
    <circle id="Ellipse_22" data-name="Ellipse 22" cx="3.633" cy="3.633" r="3.633" transform="translate(75.902 -7.557) rotate(-49.461)" fill="#3ca9fc"/>
    <circle id="Ellipse_23" data-name="Ellipse 23" cx="3.633" cy="3.633" r="3.633" transform="translate(148.458 85.189) rotate(-49.13)" fill="#3ca9fc"/>
  </g>
</svg>
