<svg xmlns="http://www.w3.org/2000/svg" xmlns:xlink="http://www.w3.org/1999/xlink" width="186" height="207.804" viewBox="0 0 186 207.804">
  <defs>
    <clipPath id="clip-path">
      <path id="Path_101" data-name="Path 101" d="M231.075,308.083l63.445-32.469V168.849L231.075,136.38,167.63,168.849V275.614Z" transform="translate(-167.63 -136.38)" fill="none"/>
    </clipPath>
    <linearGradient id="linear-gradient" x1="0.5" y1="0.892" x2="0.5" gradientUnits="objectBoundingBox">
      <stop offset="0" stop-color="#2c77bf"/>
      <stop offset="0.324" stop-color="#65b3f6"/>
      <stop offset="1" stop-color="#1b5db5"/>
    </linearGradient>
  </defs>
  <g id="Group_42" data-name="Group 42" transform="translate(-1467 -10186.098)">
    <g id="experience" transform="translate(1438.96 10174.208)">
      <path id="Path_98" data-name="Path 98" d="M28.04,211.47,45.767,229.2V211.47Z" transform="translate(0 -56.341)" fill="#5babe8"/>
      <path id="Path_99" data-name="Path 99" d="M280.227,211.47,262.5,229.2V211.47Z" transform="translate(-66.187 -56.341)" fill="#5babe8"/>
      <path id="Path_100" data-name="Path 100" d="M128.051,14.81,52.8,53.315V179.946l75.251,38.512L203.3,179.946V53.315Z" transform="translate(-6.99 -0.824)" fill="none"/>
      <g id="Group_41" data-name="Group 41" transform="translate(57.617 29.955)" clip-path="url(#clip-path)">
        <rect id="Rectangle_74" data-name="Rectangle 74" width="226.794" height="225.358" transform="translate(-49.974 -26.828)" fill="url(#linear-gradient)"/>
      </g>
      <path id="Path_102" data-name="Path 102" d="M230.311,309.333,165,275.924V166.912l65.311-33.4,65.311,33.4V275.924ZM168.7,273.685l61.608,31.522,61.608-31.522V169.166l-61.608-31.529L168.7,169.166Z" transform="translate(-109.271 -105.615)" fill="#1f6da9"/>
      <path id="Path_103" data-name="Path 103" d="M225.687,319.014l-.84-.423L148.62,279.569V150.684l77.089-39.474L302.8,150.684V279.569Zm-73.392-41.691,73.392,37.565L299.1,277.322V152.937l-73.414-37.572-73.392,37.572Z" transform="translate(-104.647 -99.32)" fill="#4c9eef"/>
      <rect id="Rectangle_75" data-name="Rectangle 75" width="185.957" height="28.141" transform="translate(28.04 126.988)" fill="#35628a"/>
      <path id="Path_104" data-name="Path 104" d="M154.791,229.16l1.694,5.225h5.49l-4.443,3.23,1.7,5.218-4.443-3.222-4.443,3.222,1.694-5.218-4.443-3.23h5.49Z" transform="translate(-33.751 -61.335)" fill="#354c8a"/>
      <path id="Path_105" data-name="Path 105" d="M131.983,226.71l1.077,3.3h3.467l-2.806,2.038,1.069,3.3-2.806-2.045-2.806,2.045,1.069-3.3-2.806-2.038h3.474Z" transform="translate(-28.06 -60.643)" fill="#354c8a"/>
      <path id="Path_106" data-name="Path 106" d="M179.683,226.71l1.069,3.3h3.466l-2.806,2.038,1.077,3.3-2.806-2.045-2.813,2.045,1.077-3.3-2.806-2.038h3.467Z" transform="translate(-41.526 -60.643)" fill="#354c8a"/>
    </g>
    <text id="خبرة_عالية" data-name="خبرة عالية" transform="translate(1560 10319)" fill="#fff" font-size="12" font-family="Tajawal-Bold, Tajawal" font-weight="700"><tspan x="-25.992" y="0">خبرة عالية</tspan></text>
    <path id="Path_107" data-name="Path 107" d="M9.109-43.28l5.913,4.09L2.524-20.907q1.564-.179,2.19-.179l1.654-.089A19.8,19.8,0,0,1,20.357-15.5Q26.391-9.833,26.391-2.42A20.529,20.529,0,0,1,20.407,12.5,19.649,19.649,0,0,1,5.8,18.613,20.276,20.276,0,0,1-8.932,12.607,19.568,19.568,0,0,1-15.05-1.884a20.724,20.724,0,0,1,3.84-12.057ZM18.264-2.152a12.306,12.306,0,0,0-3.729-8.954,11.988,11.988,0,0,0-8.82-3.773,12.137,12.137,0,0,0-8.887,3.818,12.245,12.245,0,0,0-3.8,8.909A12.042,12.042,0,0,0-3.283,6.757a12.318,12.318,0,0,0,9,3.639A12.1,12.1,0,0,0,14.6,6.735,12.1,12.1,0,0,0,18.264-2.152Z" transform="translate(1554.329 10274.387)" fill="#fff"/>
  </g>
</svg>
