<svg id="Group_49" data-name="Group 49" xmlns="http://www.w3.org/2000/svg" width="144.812" height="198" viewBox="0 0 144.812 198">
  <path id="Path_248" data-name="Path 248" d="M5,74.406A72.075,72.075,0,0,0,17.95,115.74H17.93l50.757,79.481a10.344,10.344,0,0,0,17.44,0l50.508-79.161A72.406,72.406,0,1,0,5,74.406Zm72.406,41.375a41.375,41.375,0,1,1,41.375-41.375A41.375,41.375,0,0,1,77.406,115.781Z" transform="translate(-5 -2)" fill="#4c9eef" fill-rule="evenodd"/>
  <path id="Path_249" data-name="Path 249" d="M67.989,86.451v6.173a3.4,3.4,0,0,0,3.4,3.4h9.4L60.295,76.876H58.4V67.3H96.716V86.451H87.14V76.876H74.329L94.821,96.027H96.7V105.6H67.937a9.513,9.513,0,0,1-9.511-9.511V86.464h9.563Z" transform="translate(-5.152 -14.451)" fill="#fff"/>
</svg>
