<svg xmlns="http://www.w3.org/2000/svg" width="172" height="172" viewBox="0 0 172 172">
  <g id="team" transform="translate(-441.33 -291.33)">
    <path id="Path_129" data-name="Path 129" d="M605.421,291.33,526.74,370.01l-54.55-54.546,55.556,22.478Z" transform="translate(-18.142)" fill="#3ca9fc"/>
    <path id="Path_130" data-name="Path 130" d="M598.045,313.537a13.943,13.943,0,1,1-13.938-13.947A13.943,13.943,0,0,1,598.045,313.537Z" transform="translate(-75.735 -4.856)" fill="#3ca9fc"/>
    <path id="Path_131" data-name="Path 131" d="M504.55,596.44l78.68-78.68,54.546,54.546-55.556-22.474Z" transform="translate(-37.165 -133.111)" fill="#3ca9fc"/>
    <path id="Path_132" data-name="Path 132" d="M662.18,646.688a13.943,13.943,0,1,1,13.938,13.947A13.943,13.943,0,0,1,662.18,646.688Z" transform="translate(-129.83 -200.709)" fill="#3ca9fc"/>
    <path id="Path_133" data-name="Path 133" d="M746.44,455.421,667.76,376.74l54.546-54.55-22.474,55.556Z" transform="translate(-133.111 -18.142)" fill="#3683cd"/>
    <path id="Path_134" data-name="Path 134" d="M796.688,448.045a13.942,13.942,0,1,1,13.947-13.938A13.943,13.943,0,0,1,796.688,448.045Z" transform="translate(-200.709 -75.735)" fill="#3683cd"/>
    <path id="Path_135" data-name="Path 135" d="M441.33,354.55l78.68,78.681-54.546,54.546,22.474-55.556Z" transform="translate(0 -37.165)" fill="#3683cd"/>
    <path id="Path_136" data-name="Path 136" d="M463.537,512.18a13.943,13.943,0,1,1-13.947,13.938A13.943,13.943,0,0,1,463.537,512.18Z" transform="translate(-4.856 -129.83)" fill="#3683cd"/>
  </g>
</svg>
