<svg xmlns="http://www.w3.org/2000/svg" width="272" height="198" viewBox="0 0 272 198">
  <g id="Group_48" data-name="Group 48" transform="translate(0)">
    <rect id="Rectangle_103" data-name="Rectangle 103" width="272" height="198" rx="50" transform="translate(0)" fill="#4c9eef"/>
    <rect id="Rectangle_102" data-name="Rectangle 102" width="252" height="131" rx="32" transform="translate(10 40)" fill="#292d39"/>
    <rect id="Rectangle_104" data-name="Rectangle 104" width="251" height="9" transform="translate(11 181)" fill="#292d39"/>
    <ellipse id="Ellipse_21" data-name="Ellipse 21" cx="8" cy="8.5" rx="8" ry="8.5" transform="translate(172 177)" fill="#292d39"/>
    <g id="Play" transform="translate(105.672 75.307)">
      <path id="Path_46" data-name="Path 46" d="M30.328,0A30.328,30.328,0,1,0,60.655,30.345,30.371,30.371,0,0,0,30.328,0Zm3.454,18.287a4.073,4.073,0,0,1,1.844.439,3.8,3.8,0,0,1,1.639,1.814,19.565,19.565,0,0,1,.527,2.136,46.774,46.774,0,0,1,.5,7.637,54.122,54.122,0,0,1-.439,7.4,16.581,16.581,0,0,1-.7,2.662,3.685,3.685,0,0,1-3.249,1.99h-.117a10.188,10.188,0,0,1-2.722-.819,44.7,44.7,0,0,1-11.68-7.959h0l-.176-.176a12.058,12.058,0,0,1-.819-.936,3.523,3.523,0,0,1-.7-2.133,3.7,3.7,0,0,1,.761-2.285c.117-.117.556-.614.966-1.024A44.755,44.755,0,0,1,31.352,18.96,9.963,9.963,0,0,1,33.782,18.287Z" fill="#5babe8"/>
    </g>
    <circle id="Ellipse_20" data-name="Ellipse 20" cx="4.5" cy="4.5" r="4.5" transform="translate(176 181)" fill="#5babe8"/>
    <path id="Path_247" data-name="Path 247" d="M9.14,2A7.14,7.14,0,1,1,2,9.14,7.14,7.14,0,0,1,9.14,2ZM6.848,10.419a.717.717,0,1,0,1.014,1.014L9.14,10.147l1.278,1.285a.717.717,0,1,0,1.014-1.014L10.147,9.14l1.285-1.278a.717.717,0,1,0-1.014-1.014L9.14,8.134,7.862,6.848A.717.717,0,0,0,6.848,7.862L8.134,9.14Z" transform="translate(32.086 14.988)" fill="#292d39"/>
    <rect id="Rectangle_105" data-name="Rectangle 105" width="14" height="14" rx="4" transform="translate(56 17)" fill="#292d39"/>
    <rect id="Rectangle_106" data-name="Rectangle 106" width="13" height="4" rx="2" transform="translate(77 22)" fill="#292d39"/>
  </g>
</svg>
