<svg xmlns="http://www.w3.org/2000/svg" width="46.856" height="31.237" viewBox="0 0 46.856 31.237">
  <path id="Path_95" data-name="Path 95" d="M20.4,14.68l0,.922a71.032,71.032,0,0,0,.562,9.6l.3,1.416a10.118,10.118,0,0,0,.607,2.039,4.723,4.723,0,0,0,4.172,2.581h.151a13.085,13.085,0,0,0,3.5-1.061,58.938,58.938,0,0,0,14.559-9.865l.987-1.033a9.324,9.324,0,0,0,.729-.87,4.6,4.6,0,0,0,.9-2.77,4.832,4.832,0,0,0-.977-2.962l-1.014-1.094-.227-.233C41.557,8.009,33.512,2.546,29.3.875L28.668.631A10.543,10.543,0,0,0,26.183,0a5.207,5.207,0,0,0-2.368.571,4.908,4.908,0,0,0-2.1,2.354,25.48,25.48,0,0,0-.679,2.77A57.992,57.992,0,0,0,20.4,14.68ZM0,15.62a3.933,3.933,0,0,0,3.913,3.951l9.629-.852a3.1,3.1,0,0,0,0-6.2l-9.629-.852A3.933,3.933,0,0,0,0,15.62Z" fill="#fff"/>
</svg>
