<svg width="20" height="20" viewBox="0 0 20 20" fill="none" xmlns="http://www.w3.org/2000/svg">
<path fill-rule="evenodd" clip-rule="evenodd" d="M7.20999 5.22999C7.07216 5.37325 6.99685 5.56536 7.0006 5.76413C7.00435 5.96289 7.08686 6.15203 7.22999 6.28999L11.168 9.99999L7.22999 13.71C7.15565 13.7774 7.0956 13.8591 7.0534 13.9502C7.01119 14.0412 6.9877 14.1399 6.98431 14.2402C6.98092 14.3405 6.99771 14.4405 7.03366 14.5342C7.06962 14.6279 7.12402 14.7134 7.19365 14.7857C7.26327 14.858 7.3467 14.9156 7.43898 14.9551C7.53127 14.9946 7.63055 15.0151 7.73092 15.0155C7.83129 15.0159 7.93072 14.9961 8.02332 14.9574C8.11592 14.9187 8.1998 14.8617 8.26999 14.79L12.77 10.54C12.8426 10.47 12.9003 10.3861 12.9398 10.2934C12.9792 10.2006 12.9995 10.1008 12.9995 9.99999C12.9995 9.89917 12.9792 9.79939 12.9398 9.70661C12.9003 9.61383 12.8426 9.52995 12.77 9.45999L8.26999 5.20999C8.12673 5.07216 7.93461 4.99684 7.73585 5.00059C7.53709 5.00434 7.34795 5.08685 7.20999 5.22999Z" fill="#1A7Fc3"/>
</svg>
