<svg id="Group_210" data-name="Group 210" xmlns="http://www.w3.org/2000/svg" width="23.156" height="46.741" viewBox="0 0 23.156 46.741">
  <circle id="Ellipse_152" data-name="Ellipse 152" cx="3.975" cy="3.975" r="3.975" transform="translate(7.493 0)" fill="#f9f9f9"/>
  <path id="Path_715" data-name="Path 715" d="M32.118,31.2,26.423,15.554l-.033-.161a.422.422,0,0,1,.431-.413.429.429,0,0,1,.419.317L31.111,25.42a2.458,2.458,0,0,0,2.011.964c.93,0,1.026-1.826,1.006-1.927l-3.871-9.981A5.528,5.528,0,0,0,25.084,10H20.039A5.718,5.718,0,0,0,14.7,14.475L11,24.456c-.084.192,0,1.927,1.005,1.927.782,0,1.821-.273,2.011-.964l3.734-10.167a.431.431,0,0,1,.406-.274.421.421,0,0,1,.43.412l-.027.147L13.011,31.2c-.011.046,0,.917,0,.964,0,.333.8.964,1.155.964h3.579V45.75a1.93,1.93,0,0,0,3.855,0V33.121c0-.273,1.927-.264,1.927.009V45.658a1.927,1.927,0,0,0,3.855,0V33.13h3.729a1.432,1.432,0,0,0,1.006-.964C32.118,32.089,32.146,31.269,32.118,31.2Z" transform="translate(-10.975 -0.844)" fill="#f9f9f9"/>
</svg>
