<svg id="Group_211" data-name="Group 211" xmlns="http://www.w3.org/2000/svg" width="19.82" height="47" viewBox="0 0 19.82 47">
  <path id="Path_716" data-name="Path 716" d="M10.369,84.639v.5a2.45,2.45,0,0,0,4.9,0v-.5Zm-5.819,0v.5a2.45,2.45,0,0,0,4.9,0v-.5ZM.118,68.09A1.585,1.585,0,0,0,1.7,69.582c.031,0,.063,0,.095,0A1.586,1.586,0,0,0,3.283,67.9c-.077-1.318-.113-2.518-.113-3.61-.007-4.8.693-7.495,1.38-8.9V84.061h4.9V67.248h.918V84.061h4.9V55.4a8.612,8.612,0,0,1,.353.84,24.509,24.509,0,0,1,1.026,8.053c0,1.093-.035,2.293-.112,3.611a1.585,1.585,0,0,0,1.49,1.675l.094,0A1.585,1.585,0,0,0,19.7,68.09c.08-1.374.117-2.635.117-3.8-.008-5.981-.963-9.291-2.266-11.281a5.591,5.591,0,0,0-2.116-1.973,3.756,3.756,0,0,0-1.672-.424,2.305,2.305,0,0,0-.281.016H11.471A5.806,5.806,0,0,1,9.91,52.446a5.806,5.806,0,0,1-1.56-1.814H6.334a2.341,2.341,0,0,0-.28-.016,3.757,3.757,0,0,0-1.672.423,4.685,4.685,0,0,0-.978.66,7.719,7.719,0,0,0-2.042,3.074,19.447,19.447,0,0,0-1.14,5.035A41.519,41.519,0,0,0,0,64.294C0,65.454.037,66.716.118,68.09Zm10.75-12.606H14.3v.793H10.868Zm-1.916.793H5.518v-.793H8.952v.793Z" transform="translate(0 -40.586)" fill="#f9f9f9"/>
  <circle id="Ellipse_153" data-name="Ellipse 153" cx="4.459" cy="4.459" r="4.459" transform="translate(5.451)" fill="#f9f9f9"/>
</svg>
