<svg id="Doctor" xmlns="http://www.w3.org/2000/svg" width="128" height="128" viewBox="0 0 128 128">
  <rect id="Rectangle_44" data-name="Rectangle 44" width="128" height="128" fill="none"/>
  <g id="Group_27" data-name="Group 27" transform="translate(8.99)">
    <path id="Path_75" data-name="Path 75" d="M103.785,90.4c-7.96-15.2-15.92-12.8-24.676-13.6.8,2.4.8,4.8.8,8,12.736,3.2,15.92,18.4,15.92,27.2v8H79.9v-8h7.96s0-20-11.94-20-11.94,19.2-11.94,20h7.96v8H56.025v-8c0-8.8,3.184-24.8,15.92-27.2,0-4.8-.8-8.8-1.592-10.4a5.4,5.4,0,0,1-3.184-4.8c0-4.8,6.368-3.2,11.144-12,0,0,7.164-18.4,4.776-34.4h-7.96c0-1.6.8-2.4.8-4a7.243,7.243,0,0,0-.8-4H81.5C79.109,7.2,71.149,0,56.025,0S32.94,7.2,29.756,16h6.368c0,1.6-.8,2.4-.8,4a7.243,7.243,0,0,0,.8,4h-7.96C26.572,40,32.94,58.4,32.94,58.4c4.776,8,11.144,6.4,11.144,12,0,4-3.98,5.6-8.756,6.4-1.592,1.6-3.184,4.8-3.184,11.2v9.6a12.028,12.028,0,0,1,7.96,11.2c0,5.6-5.572,11.2-11.94,11.2a12.273,12.273,0,0,1-11.94-12,11.293,11.293,0,0,1,7.96-11.2V87.2a40.72,40.72,0,0,1,1.592-10.4C20.2,77.6,13.836,80,8.264,90.4,3.488,99.2,1.1,128,1.1,128H110.153c.8,0-1.592-28.8-6.368-37.6ZM44.084,20A12.273,12.273,0,0,1,56.025,8a12.273,12.273,0,0,1,11.94,12,12.273,12.273,0,0,1-11.94,12A12.273,12.273,0,0,1,44.084,20Z" transform="translate(-1.1 0)" fill="#fff"/>
    <path id="Path_76" data-name="Path 76" d="M11.96,16.98A3.98,3.98,0,1,1,7.98,13,3.98,3.98,0,0,1,11.96,16.98Z" transform="translate(19.084 91.12)" fill="#fff"/>
  </g>
</svg>
