<svg xmlns="http://www.w3.org/2000/svg" width="12" height="10" viewBox="0 0 12 10">
  <path id="Path_17" data-name="Path 17" d="M7.131,9.631c.058-.057.306-.27.51-.469a21.69,21.69,0,0,0,4.024-5.8A4.617,4.617,0,0,0,12,2.188a1.933,1.933,0,0,0-.218-.9,1.874,1.874,0,0,0-.9-.795A9.84,9.84,0,0,0,9.814.242,23.979,23.979,0,0,0,6.008,0,27.724,27.724,0,0,0,2.319.213,8.495,8.495,0,0,0,.992.554,1.785,1.785,0,0,0,0,2.132v.057A4.878,4.878,0,0,0,.409,3.509,21.69,21.69,0,0,0,4.375,9.177a5.66,5.66,0,0,0,.554.482A1.783,1.783,0,0,0,5.993,10a1.875,1.875,0,0,0,1.138-.369"/>
</svg>
