<svg xmlns="http://www.w3.org/2000/svg" width="47.017" height="39.58" viewBox="0 0 47.017 39.58">
  <path id="Check_Mark" data-name="Check Mark" d="M25.171,51.79a1.5,1.5,0,0,1-1.192-.589L8.8,31.346a1.5,1.5,0,0,1,.28-2.1l6.635-5.074a1.5,1.5,0,0,1,2.1.281l8.108,10.6L46.813,12.686a1.5,1.5,0,0,1,2.12-.073l6.1,5.7a1.5,1.5,0,0,1,.073,2.12L31.954,45.225a1.5,1.5,0,1,1-2.193-2.047L51.894,19.483l-3.913-3.654L26.9,38.4a1.5,1.5,0,0,1-2.288-.113l-8.27-10.824L12.09,30.715,26.361,49.379a1.5,1.5,0,0,1-1.19,2.411Z" transform="translate(-8.493 -12.21)" fill="#fff"/>
</svg>
