<svg xmlns="http://www.w3.org/2000/svg" xmlns:xlink="http://www.w3.org/1999/xlink" width="692.104" height="505.487" viewBox="0 0 692.104 505.487">
  <defs>
    <clipPath id="clip-path">
      <rect id="Rectangle_146" data-name="Rectangle 146" width="586.608" height="501.854" fill="none"/>
    </clipPath>
    <clipPath id="clip-path-2">
      <ellipse id="Ellipse_121" data-name="Ellipse 121" cx="275.281" cy="264.661" rx="275.281" ry="264.661" fill="#faf1d7" opacity="0.4"/>
    </clipPath>
    <clipPath id="clip-path-3">
      <rect id="Rectangle_150" data-name="Rectangle 150" width="129.756" height="182.208" fill="none"/>
    </clipPath>
    <clipPath id="clip-path-4">
      <rect id="Rectangle_151" data-name="Rectangle 151" width="129.756" height="78.709" fill="none"/>
    </clipPath>
    <clipPath id="clip-path-5">
      <rect id="Rectangle_152" data-name="Rectangle 152" width="129.756" height="260.12" fill="none"/>
    </clipPath>
    <clipPath id="clip-path-6">
      <rect id="Rectangle_153" data-name="Rectangle 153" width="692.104" height="255.617" fill="none"/>
    </clipPath>
    <clipPath id="clip-path-7">
      <path id="Path_361" data-name="Path 361" d="M883.395,846.807c-.255-.808-3.219-1.693-7.191-2.472-1.98-.382-4.17-.763-6.46-1.062s-4.607-.553-6.748-.78c-2.55-2.423-5.05-5.072-7.616-7.9s-5.194-5.824-7.71-9.093c3.916-.824,6.748-1.687,6.438-2.506-.188-.465-1.328-.891-3.125-1.222a65.361,65.361,0,0,0-6.809-.813c-1.156-1.543-2.3-3.131-3.418-4.779,9.4.664,20.377,1.56,20.891.426.371-.83-5.061-3.933-11.56-7.157l-2.483-1.217-2.589-1.167c-1.731-.769-3.457-1.521-5.111-2.213-3.319-1.4-6.289-2.644-8.474-3.485q-2.589-4.353-5.028-9.176l-1.206-2.439q-.62-1.222-1.256-2.461-1.244-2.489-2.45-5.105c4.215-.183,7.307-.553,7.047-1.361s-4.176-2.074-9.077-3.208c-.758-1.7-1.538-3.407-2.29-5.177,2.212.2,4.536.4,6.814.581s4.425.359,6.339.442c3.805.172,6.5,0,6.35-.885-.083-.492-.99-1.167-2.445-1.947a45.937,45.937,0,0,0-5.775-2.517c-4.646-1.72-10.321-3.5-14.934-4.779q-1.969-4.851-3.822-10.128c-.31-.885-.614-1.776-.924-2.666l-.968-2.677q-.968-2.694-1.908-5.531c5.614,1.56,10.2,2.5,10.376,1.261.116-.763-1.455-2.284-3.933-4.159-1.239-.935-2.7-1.964-4.292-3.026-.8-.553-1.626-1.068-2.472-1.615s-1.753-1.051-2.649-1.576c-1.339-4.038-2.622-8.269-3.916-12.65s-2.7-8.822-4.021-13.529q5.664,1.925,11.1,4.088l2.7,1.106L811.4,713.4q2.6,1.189,5.133,2.412c.36,3.02.725,5.741,1.106,7.744s.68,3.252,1.051,3.28c.647.061,1.35-3.949,1.72-9.077,1.051.553,2.107,1.073,3.131,1.659l3.015,1.715q2.987,1.737,5.874,3.523l2.86,1.809c.951.6,1.881,1.217,2.766,1.858q2.71,1.9,5.327,3.872c.1,3.872.26,7.528.4,10.31s.36,4.591.741,4.619.763-1.361,1.217-3.584c.227-1.106.465-2.428.691-3.872s.42-3.02.614-4.663c.94.741,1.9,1.466,2.766,2.212l2.666,2.3q2.627,2.312,5.138,4.657c-.349,2.312-.7,4.646-1.04,6.864s-.675,4.331-.918,6.178c-.492,3.689-.7,6.344-.293,6.931.8,1.156,5.6-5.216,10.078-12.025q2.483,2.721,4.807,5.448c.791.9,1.521,1.836,2.213,2.766s1.438,1.859,2.135,2.766q2.091,2.765,4.038,5.564c.642.924,1.294,1.836,1.9,2.766l1.759,2.81c-1.305,5.315-2.826,11.544-4,16.594s-2.019,9.043-1.582,9.818c.824,1.333,7.39-6.245,12.877-13.435,1.9,3.96,3.628,7.832,5.116,11.615s2.672,7.583,3.761,11.206c-1.576,4.524-3.352,9.237-4.541,12.954s-1.886,6.51-1.51,7.351c.553,1.283,4.79-1.106,9.641-4.53.138.83.271,1.659.4,2.456s.2,1.626.3,2.428c.188,1.593.343,3.147.476,4.663.265,3.02.426,5.869.509,8.535a130.734,130.734,0,0,1-.553,13.773,75.484,75.484,0,0,1-1.327,8.723c-.42,2-.725,3.048-.725,3.048s-.88-.354-2.445-1.106-3.805-1.953-6.565-3.579-6.123-3.656-9.735-6.184a146.015,146.015,0,0,1-11.726-9.088C877.366,848.859,883.8,848.063,883.395,846.807Z" transform="translate(-794.99 -707.04)" fill="#f3e0a7"/>
    </clipPath>
    <clipPath id="clip-path-8">
      <path id="Path_406" data-name="Path 406" d="M328.345,841.283c.044-.747,2.672-2.1,6.267-3.507,1.809-.7,3.805-1.438,5.94-2.107s4.287-1.311,6.294-1.87c.913-1.272,1.814-2.583,2.694-3.938.442-.675.879-1.366,1.311-2.063s.846-1.41,1.311-2.118a99.844,99.844,0,0,0,5.15-9.1c-3.955-.116-6.886-.42-6.792-1.184.066-.431,1.051-.985,2.7-1.554a64.725,64.725,0,0,1,6.361-1.72q1.106-2.268,2.113-4.652c-4.425.962-9.2,2.047-12.993,2.8s-6.571,1.173-6.953.708c-.553-.664,3.933-4.27,9.4-8.064l2.091-1.433,2.212-1.394c1.482-.918,2.959-1.82,4.375-2.66,2.843-1.659,5.387-3.164,7.279-4.176q1.466-4.148,2.688-8.689c.194-.763.393-1.527.592-2.3s.426-1.538.647-2.318q.631-2.34,1.195-4.8c-4.054.3-7.091.337-7.019-.42s3.529-2.334,7.932-3.872c.348-1.6.73-3.2,1.062-4.856l-6.389,1.267c-2.129.4-4.137.813-5.946,1.106-3.6.592-6.212.78-6.261-.055-.028-.448.7-1.167,1.919-2.041a37.3,37.3,0,0,1,4.978-2.926c4.076-2.058,9.1-4.253,13.214-5.846q.863-4.547,1.543-9.492c.111-.83.221-1.659.332-2.5s.26-1.659.387-2.511q.382-2.533.725-5.172c-5.017,1.892-9.215,3.169-9.624,2.058-.26-.686.946-2.212,2.937-4.154,1-.968,2.212-2.035,3.5-3.142.653-.553,1.333-1.106,2.03-1.659s1.471-1.106,2.212-1.659c.509-3.805.94-7.8,1.372-11.953q.8-6.129,1.46-12.849-5.039,2.185-9.84,4.613l-2.389,1.222-2.279,1.305q-2.268,1.311-4.469,2.683c.194,2.837.337,5.4.343,7.257s-.039,3.075-.393,3.131-.808-.819-1.4-2.312a54.558,54.558,0,0,1-1.9-5.99c-.913.6-1.831,1.184-2.7,1.8l-2.566,1.886q-2.55,1.9-4.978,3.872-1.222.985-2.412,1.969l-1.189,1-1.106,1.023q-2.24,2.058-4.375,4.159l.9,5.166c.266,1.632.514,3.131.725,4.425.42,2.583.553,4.276.221,4.347s-1.012-1.161-1.9-3.158c-.437-1-.929-2.212-1.438-3.512s-.99-2.766-1.5-4.242c-.763.8-1.543,1.576-2.257,2.4s-1.416,1.659-2.107,2.45q-2.074,2.467-4.016,4.945c.8,2.1,1.615,4.2,2.384,6.2s1.549,3.9,2.168,5.564c1.25,3.319,2,5.714,1.742,6.3-.553,1.162-6.5-4.01-12.218-9.691q-1.831,2.843-3.512,5.686c-.553.94-1.106,1.9-1.582,2.865s-.985,1.914-1.46,2.871q-1.427,2.871-2.7,5.708c-.42.951-.857,1.886-1.233,2.837s-.73,1.9-1.079,2.849l7.578,14.514c2.362,4.425,4.043,7.838,3.8,8.607-.426,1.355-8.535-4.425-15.487-10.039-.924,3.933-1.715,7.744-2.268,11.461s-.791,7.362-.979,10.83c2.594,3.8,5.47,7.716,7.522,10.819s3.429,5.448,3.269,6.267c-.243,1.25-4.9-.077-10.415-2.212.066.769.138,1.527.21,2.279s.21,1.5.315,2.212q.332,2.212.714,4.265c.509,2.766,1.073,5.321,1.659,7.7a108.691,108.691,0,0,0,4.132,12.058c.664,1.621,1.294,3.042,1.941,4.276s1.178,2.262,1.659,3.086c.94,1.659,1.51,2.506,1.51,2.506s.752-.5,2.058-1.51,3.136-2.517,5.354-4.513,4.923-4.425,7.716-7.373c1.41-1.46,2.766-3.053,4.331-4.724s3.059-3.479,4.585-5.387C334.683,841.936,328.278,842.489,328.345,841.283Z" transform="translate(-304.71 -704.47)" fill="#f3e0a7"/>
    </clipPath>
  </defs>
  <g id="help" transform="translate(-47.66 -246.5)">
    <g id="Ñëîé_2" data-name="Ñëîé 2" transform="translate(119.51 246.5)">
      <g id="Group_60" data-name="Group 60" clip-path="url(#clip-path)">
        <ellipse id="Ellipse_118" data-name="Ellipse 118" cx="275.281" cy="264.661" rx="275.281" ry="264.661" transform="translate(18.253 74.378)" fill="#faf1d7" opacity="0.4"/>
        <g id="Group_59" data-name="Group 59" transform="translate(18.253 74.378)" clip-path="url(#clip-path-2)">
          <path id="Path_263" data-name="Path 263" d="M192.952,529.559a.3.3,0,0,1-.138-.553l598.2-302.461a.308.308,0,1,1,.271.553L193.09,529.525A.315.315,0,0,1,192.952,529.559Z" transform="translate(-202.57 -186.67)" fill="#fff"/>
          <path id="Path_264" data-name="Path 264" d="M188.1,500.26a.55.55,0,0,1-.243-1.04L783.149,198.214a.552.552,0,0,1,.5.985l-595.292,301A.5.5,0,0,1,188.1,500.26Z" transform="translate(-200.28 -173.999)" fill="#fff"/>
          <path id="Path_265" data-name="Path 265" d="M183.281,470.981a.8.8,0,0,1-.36-1.5L775.315,169.931a.8.8,0,0,1,.719,1.421L183.646,470.9A.836.836,0,0,1,183.281,470.981Z" transform="translate(-198.016 -161.346)" fill="#fff"/>
          <path id="Path_266" data-name="Path 266" d="M178.452,441.7a1.04,1.04,0,0,1-.476-1.969l589.5-298.086a1.041,1.041,0,1,1,.94,1.858l-589.5,298.075a1.007,1.007,0,0,1-.465.122Z" transform="translate(-195.743 -148.696)" fill="#fff"/>
          <path id="Path_267" data-name="Path 267" d="M173.651,412.427a1.289,1.289,0,0,1-.553-2.439l586.569-296.62a1.289,1.289,0,1,1,1.162,2.3l-586.6,296.62A1.3,1.3,0,0,1,173.651,412.427Z" transform="translate(-193.502 -136.046)" fill="#fff"/>
          <path id="Path_268" data-name="Path 268" d="M168.815,383.15a1.538,1.538,0,0,1-.7-2.9l583.7-295.16a1.547,1.547,0,0,1,1.388,2.766L169.506,382.99A1.543,1.543,0,0,1,168.815,383.15Z" transform="translate(-191.221 -123.396)" fill="#fff"/>
          <path id="Path_269" data-name="Path 269" d="M164.031,353.929a1.781,1.781,0,0,1-.785-3.346l580.773-293.7a1.781,1.781,0,0,1,1.6,3.175L164.833,353.735a1.8,1.8,0,0,1-.8.194Z" transform="translate(-188.999 -110.796)" fill="#fff"/>
          <path id="Path_270" data-name="Path 270" d="M159.163,324.607a2.03,2.03,0,0,1-.918-3.839L736.174,28.523A2.027,2.027,0,1,1,738,32.141L160.075,324.38A2.019,2.019,0,0,1,159.163,324.607Z" transform="translate(-186.686 -98.094)" fill="#fff"/>
          <path id="Path_271" data-name="Path 271" d="M154.329,295.32a2.273,2.273,0,0,1-1.029-4.3L728.3.232a2.275,2.275,0,0,1,2.052,4.06L155.341,295.076A2.284,2.284,0,0,1,154.329,295.32Z" transform="translate(-184.413 -85.44)" fill="#fff"/>
          <path id="Path_272" data-name="Path 272" d="M149.5,266.043a2.517,2.517,0,0,1-1.139-4.768L720.471-28.049a2.522,2.522,0,0,1,3.385,1.106,2.522,2.522,0,0,1-1.106,3.385L150.639,265.772A2.533,2.533,0,0,1,149.5,266.043Z" transform="translate(-182.144 -72.789)" fill="#fff"/>
          <path id="Path_273" data-name="Path 273" d="M144.677,236.766a2.766,2.766,0,0,1-1.25-5.238L712.633-56.331a2.766,2.766,0,0,1,3.717,1.222,2.766,2.766,0,0,1-1.222,3.717l-569.2,287.859A2.766,2.766,0,0,1,144.677,236.766Z" transform="translate(-179.877 -60.139)" fill="#fff"/>
          <path id="Path_274" data-name="Path 274" d="M139.867,207.489a3.014,3.014,0,0,1-1.361-5.7l566.3-286.4a3.014,3.014,0,0,1,4.049,1.327,3.015,3.015,0,0,1-1.327,4.049l-566.309,286.4a2.965,2.965,0,0,1-1.355.326Z" transform="translate(-177.623 -47.488)" fill="#fff"/>
          <path id="Path_275" data-name="Path 275" d="M135.034,178.211a3.258,3.258,0,0,1-1.482-6.167L696.968-112.894a3.252,3.252,0,0,1,2.486-.189,3.252,3.252,0,0,1,1.889,1.627,3.252,3.252,0,0,1,.189,2.486,3.252,3.252,0,0,1-1.627,1.889L136.5,177.863A3.241,3.241,0,0,1,135.034,178.211Z" transform="translate(-175.345 -34.838)" fill="#fff"/>
          <path id="Path_276" data-name="Path 276" d="M130.2,148.933a3.5,3.5,0,0,1-1.582-6.637L689.125-141.177a3.5,3.5,0,0,1,2.674-.206,3.5,3.5,0,0,1,2.033,1.749,3.507,3.507,0,0,1-1.543,4.713L131.782,148.584A3.534,3.534,0,0,1,130.2,148.933Z" transform="translate(-173.072 -22.186)" fill="#fff"/>
          <path id="Path_277" data-name="Path 277" d="M125.4,119.661a3.756,3.756,0,0,1-1.7-7.1L681.311-169.459a3.744,3.744,0,0,1,2.867-.219,3.745,3.745,0,0,1,2.177,1.879,3.75,3.75,0,0,1-1.659,5.039L127.088,119.252a3.7,3.7,0,0,1-1.687.409Z" transform="translate(-170.828 -9.536)" fill="#fff"/>
          <path id="Path_278" data-name="Path 278" d="M120.567,90.382a4,4,0,0,1-1.809-7.567L673.474-197.747a4,4,0,0,1,5.371,1.764,4,4,0,0,1-1.764,5.371L122.37,89.951a3.982,3.982,0,0,1-1.8.431Z" transform="translate(-168.556 3.117)" fill="#fff"/>
          <path id="Path_279" data-name="Path 279" d="M115.749,61.106a4.248,4.248,0,0,1-1.919-8.037l551.811-279.1a4.248,4.248,0,0,1,5.7,1.875,4.248,4.248,0,0,1-1.869,5.7L117.663,60.647A4.253,4.253,0,0,1,115.749,61.106Z" transform="translate(-166.293 15.766)" fill="#fff"/>
          <path id="Path_280" data-name="Path 280" d="M1027.039,402.126,616.2,592.31l419.932-250.33Z" transform="translate(-391.834 -363.546)" fill="#fff"/>
          <circle id="Ellipse_119" data-name="Ellipse 119" cx="16.97" cy="16.97" r="16.97" transform="translate(526.73 236.073) rotate(-80.78)" fill="#fff"/>
          <circle id="Ellipse_120" data-name="Ellipse 120" cx="7.627" cy="7.627" r="7.627" transform="translate(508.005 179.492)" fill="#fff"/>
        </g>
        <path id="Path_281" data-name="Path 281" d="M293.948,731.861c-53.652-78.211-85.5-205.151-28.325-304.341-24.553,52.906-32.888,225.749,77.818,298.4C383.525,752.216,293.948,731.861,293.948,731.861Z" transform="translate(-203.37 -202.119)" fill="#fff"/>
      </g>
      <rect id="Rectangle_147" data-name="Rectangle 147" width="129.756" height="260.12" transform="translate(374.349 241.729)" fill="#eea18f"/>
      <path id="Path_282" data-name="Path 282" d="M854.36,683.53,984.116,943.65H854.36Z" transform="translate(-480.011 -441.801)" fill="#ed9c89" opacity="0.2"/>
      <rect id="Rectangle_148" data-name="Rectangle 148" width="129.756" height="182.208" transform="translate(225.793 319.641)" fill="#e7debf"/>
      <path id="Path_283" data-name="Path 283" d="M585.78,824.39V1006.6H715.536Z" transform="translate(-359.987 -504.749)" fill="#e6dcbc" opacity="0.2"/>
      <rect id="Rectangle_149" data-name="Rectangle 149" width="129.756" height="78.709" transform="translate(77.237 423.14)" fill="#97bfcf"/>
      <path id="Path_284" data-name="Path 284" d="M317.2,1011.51l129.761,78.708H317.2Z" transform="translate(-239.963 -588.37)" fill="#91bccc" opacity="0.2"/>
      <g id="Group_61" data-name="Group 61" transform="translate(225.793 319.641)" clip-path="url(#clip-path-3)">
        <path id="Path_285" data-name="Path 285" d="M340.1,723.109a.31.31,0,0,1-.216-.094.3.3,0,0,1,0-.426l153.5-153.49a.3.3,0,0,1,.426.426l-153.49,153.49A.31.31,0,0,1,340.1,723.109Z" transform="translate(-475.852 -584.99)" fill="#fff"/>
        <path id="Path_286" data-name="Path 286" d="M361.921,744.934a.293.293,0,0,1-.216-.088.3.3,0,0,1,0-.431L515.2,590.929a.31.31,0,0,1,.431,0,.3.3,0,0,1,0,.426l-153.5,153.49a.282.282,0,0,1-.21.089Z" transform="translate(-485.604 -594.746)" fill="#fff"/>
        <path id="Path_287" data-name="Path 287" d="M383.758,766.75a.3.3,0,0,1-.216-.514l153.49-153.5a.3.3,0,0,1,.426,0,.31.31,0,0,1,0,.431l-153.49,153.49A.3.3,0,0,1,383.758,766.75Z" transform="translate(-495.365 -604.493)" fill="#fff"/>
        <path id="Path_288" data-name="Path 288" d="M405.568,788.579a.3.3,0,0,1-.21-.52l153.49-153.49a.3.3,0,0,1,.426.426l-153.49,153.5A.327.327,0,0,1,405.568,788.579Z" transform="translate(-505.112 -614.247)" fill="#fff"/>
        <path id="Path_289" data-name="Path 289" d="M427.4,810.4a.3.3,0,0,1-.216-.514l153.49-153.5a.305.305,0,0,1,.432.431L427.6,810.309A.282.282,0,0,1,427.4,810.4Z" transform="translate(-514.867 -623.997)" fill="#fff"/>
        <path id="Path_290" data-name="Path 290" d="M449.215,832.229a.327.327,0,0,1-.216-.088.31.31,0,0,1,0-.431l153.5-153.49a.3.3,0,0,1,.426.426l-153.49,153.5A.326.326,0,0,1,449.215,832.229Z" transform="translate(-524.616 -633.754)" fill="#fff"/>
        <path id="Path_291" data-name="Path 291" d="M471.043,854.049a.3.3,0,0,1-.216-.52l153.49-153.49a.31.31,0,0,1,.431,0,.3.3,0,0,1,0,.426l-153.5,153.5A.283.283,0,0,1,471.043,854.049Z" transform="translate(-534.37 -643.505)" fill="#fff"/>
        <path id="Path_292" data-name="Path 292" d="M492.868,875.87a.3.3,0,0,1-.216-.514l153.5-153.5a.3.3,0,0,1,.426,0,.3.3,0,0,1,0,.432l-153.49,153.49a.3.3,0,0,1-.216.088Z" transform="translate(-544.125 -653.257)" fill="#fff"/>
        <path id="Path_293" data-name="Path 293" d="M514.688,897.7a.3.3,0,0,1-.21-.52l153.49-153.49a.3.3,0,0,1,.431,0,.3.3,0,0,1,0,.426L514.9,897.585A.327.327,0,0,1,514.688,897.7Z" transform="translate(-553.876 -663.008)" fill="#fff"/>
        <path id="Path_294" data-name="Path 294" d="M536.517,919.5a.3.3,0,0,1-.216-.515l153.49-153.5a.305.305,0,0,1,.431.431l-153.49,153.49a.3.3,0,0,1-.216.089Z" transform="translate(-563.631 -672.752)" fill="#fff"/>
        <path id="Path_295" data-name="Path 295" d="M558.335,941.349a.327.327,0,0,1-.216-.089.31.31,0,0,1,0-.431l153.5-153.49a.3.3,0,0,1,.426.426L558.567,941.26A.327.327,0,0,1,558.335,941.349Z" transform="translate(-573.38 -682.518)" fill="#fff"/>
        <path id="Path_296" data-name="Path 296" d="M580.162,963.168a.3.3,0,0,1-.216-.089.293.293,0,0,1,0-.426l153.49-153.5a.305.305,0,0,1,.431.431l-153.5,153.49a.282.282,0,0,1-.21.088Z" transform="translate(-583.132 -692.268)" fill="#fff"/>
        <path id="Path_297" data-name="Path 297" d="M601.988,984.99a.3.3,0,0,1-.216-.514l153.5-153.5a.3.3,0,0,1,.426,0,.3.3,0,0,1,0,.432L602.2,984.9A.3.3,0,0,1,601.988,984.99Z" transform="translate(-592.889 -702.021)" fill="#fff"/>
        <path id="Path_298" data-name="Path 298" d="M623.806,1006.815a.282.282,0,0,1-.21-.089.3.3,0,0,1,0-.431l153.49-153.49a.3.3,0,0,1,.431,0,.3.3,0,0,1,0,.426l-153.5,153.5A.294.294,0,0,1,623.806,1006.815Z" transform="translate(-602.638 -711.772)" fill="#fff"/>
        <path id="Path_299" data-name="Path 299" d="M281.285,808.849a.3.3,0,0,1-.216-.088.31.31,0,0,1,0-.432l153.5-153.49a.3.3,0,1,1,.426.426L281.5,808.76a.3.3,0,0,1-.216.089Z" transform="translate(-449.571 -623.305)" fill="#fff"/>
        <path id="Path_300" data-name="Path 300" d="M303.125,830.663a.3.3,0,0,1-.2-.094.293.293,0,0,1,0-.426l153.49-153.5a.305.305,0,1,1,.431.431L303.335,830.569A.282.282,0,0,1,303.125,830.663Z" transform="translate(-459.336 -633.051)" fill="#fff"/>
        <path id="Path_301" data-name="Path 301" d="M324.935,852.5a.326.326,0,0,1-.216-.088.31.31,0,0,1,0-.432l153.5-153.49a.3.3,0,1,1,.426.426l-153.49,153.5A.326.326,0,0,1,324.935,852.5Z" transform="translate(-469.077 -642.812)" fill="#fff"/>
        <path id="Path_302" data-name="Path 302" d="M346.756,874.318a.282.282,0,0,1-.21-.089.293.293,0,0,1,0-.426l153.49-153.5a.305.305,0,0,1,.431.431l-153.5,153.49A.282.282,0,0,1,346.756,874.318Z" transform="translate(-478.829 -652.562)" fill="#fff"/>
        <path id="Path_303" data-name="Path 303" d="M368.585,896.148a.326.326,0,0,1-.216-.088.31.31,0,0,1,0-.431l153.523-153.49a.3.3,0,0,1,.426.426l-153.49,153.5A.326.326,0,0,1,368.585,896.148Z" transform="translate(-488.584 -662.318)" fill="#fff"/>
        <path id="Path_304" data-name="Path 304" d="M390.406,917.956a.283.283,0,0,1-.21-.089.3.3,0,0,1,0-.431L543.685,763.93a.3.3,0,0,1,.426,0,.293.293,0,0,1,0,.426L390.6,917.868A.3.3,0,0,1,390.406,917.956Z" transform="translate(-498.335 -672.057)" fill="#fff"/>
        <path id="Path_305" data-name="Path 305" d="M412.238,939.788a.3.3,0,0,1-.216-.514l153.49-153.5a.305.305,0,0,1,.431.432L412.448,939.7A.282.282,0,0,1,412.238,939.788Z" transform="translate(-508.093 -681.82)" fill="#fff"/>
        <path id="Path_306" data-name="Path 306" d="M434.055,961.618a.327.327,0,0,1-.216-.089.31.31,0,0,1,0-.431l153.5-153.49a.3.3,0,1,1,.426.426L434.271,961.552a.326.326,0,0,1-.216.066Z" transform="translate(-517.841 -691.576)" fill="#fff"/>
        <path id="Path_307" data-name="Path 307" d="M455.882,983.438a.282.282,0,0,1-.216-.089.293.293,0,0,1,0-.426l153.49-153.5a.305.305,0,0,1,.431.431l-153.5,153.49A.283.283,0,0,1,455.882,983.438Z" transform="translate(-527.593 -701.326)" fill="#fff"/>
        <path id="Path_308" data-name="Path 308" d="M477.755,1005.266a.31.31,0,0,1-.216-.094.3.3,0,0,1,0-.426l153.5-153.49a.293.293,0,0,1,.426,0,.3.3,0,0,1,0,.426l-153.49,153.49a.309.309,0,0,1-.216.094Z" transform="translate(-537.37 -711.079)" fill="#fff"/>
        <path id="Path_309" data-name="Path 309" d="M499.526,1027.088a.282.282,0,0,1-.21-.088.3.3,0,0,1,0-.432l153.49-153.49a.305.305,0,1,1,.431.431L499.741,1027A.3.3,0,0,1,499.526,1027.088Z" transform="translate(-547.099 -720.832)" fill="#fff"/>
        <path id="Path_310" data-name="Path 310" d="M521.358,1048.921a.3.3,0,0,1-.216-.514l153.49-153.479a.305.305,0,0,1,.431.431L521.579,1048.833A.3.3,0,0,1,521.358,1048.921Z" transform="translate(-556.857 -730.597)" fill="#fff"/>
        <path id="Path_311" data-name="Path 311" d="M543.175,1070.739a.327.327,0,0,1-.216-.089.31.31,0,0,1,0-.431l153.5-153.49a.3.3,0,0,1,.426.426l-153.49,153.5A.326.326,0,0,1,543.175,1070.739Z" transform="translate(-566.605 -740.34)" fill="#fff"/>
        <path id="Path_312" data-name="Path 312" d="M565,1092.558a.3.3,0,0,1-.216-.089.293.293,0,0,1,0-.426l153.49-153.5a.305.305,0,0,1,.431.432l-153.5,153.49A.281.281,0,0,1,565,1092.558Z" transform="translate(-576.357 -750.09)" fill="#fff"/>
      </g>
      <g id="Group_62" data-name="Group 62" transform="translate(77.237 423.145)" clip-path="url(#clip-path-4)">
        <path id="Path_313" data-name="Path 313" d="M332.3,902.366a.3.3,0,0,1-.3-.3V808.684a.3.3,0,0,1,.608,0v93.377A.3.3,0,0,1,332.3,902.366Z" transform="translate(-323.814 -795.465)" fill="#fff"/>
        <path id="Path_314" data-name="Path 314" d="M358.074,902.366a.3.3,0,0,1-.3-.3V808.684a.3.3,0,0,1,.608,0v93.377A.3.3,0,0,1,358.074,902.366Z" transform="translate(-335.33 -795.465)" fill="#fff"/>
        <path id="Path_315" data-name="Path 315" d="M383.844,902.366a.3.3,0,0,1-.3-.3V808.684a.3.3,0,1,1,.608,0v93.377a.3.3,0,0,1-.3.3Z" transform="translate(-346.846 -795.465)" fill="#fff"/>
        <path id="Path_316" data-name="Path 316" d="M409.612,902.332a.3.3,0,0,1-.3-.3V808.651a.3.3,0,1,1,.6,0v93.377a.3.3,0,0,1-.3.3Z" transform="translate(-358.36 -795.432)" fill="#fff"/>
        <path id="Path_317" data-name="Path 317" d="M435.376,902.332a.3.3,0,0,1-.3-.3V808.651a.3.3,0,1,1,.6,0v93.377a.3.3,0,0,1-.3.3Z" transform="translate(-369.876 -795.432)" fill="#fff"/>
        <path id="Path_318" data-name="Path 318" d="M461.146,902.332a.3.3,0,0,1-.3-.3V808.651a.3.3,0,1,1,.6,0v93.377a.3.3,0,0,1-.3.3Z" transform="translate(-381.393 -795.432)" fill="#fff"/>
        <path id="Path_319" data-name="Path 319" d="M486.914,902.366a.3.3,0,0,1-.3-.3V808.684a.3.3,0,0,1,.608,0v93.377a.3.3,0,0,1-.3.3Z" transform="translate(-392.906 -795.465)" fill="#fff"/>
        <path id="Path_320" data-name="Path 320" d="M512.684,902.366a.3.3,0,0,1-.3-.3V808.684a.3.3,0,1,1,.608,0v93.377A.3.3,0,0,1,512.684,902.366Z" transform="translate(-404.423 -795.465)" fill="#fff"/>
        <path id="Path_321" data-name="Path 321" d="M538.454,902.366a.3.3,0,0,1-.3-.3V808.684a.3.3,0,1,1,.608,0v93.377A.3.3,0,0,1,538.454,902.366Z" transform="translate(-415.939 -795.465)" fill="#fff"/>
        <path id="Path_322" data-name="Path 322" d="M348.339,950.269a.3.3,0,0,1-.3-.3V856.587a.3.3,0,0,1,.6,0v93.377a.3.3,0,0,1-.3.3Z" transform="translate(-330.982 -816.89)" fill="#fff"/>
        <path id="Path_323" data-name="Path 323" d="M374.1,950.24a.3.3,0,0,1-.3-.3V856.559a.3.3,0,0,1,.3-.3.3.3,0,0,1,.3.3v93.377a.3.3,0,0,1-.3.3Z" transform="translate(-342.494 -816.861)" fill="#fff"/>
        <path id="Path_324" data-name="Path 324" d="M399.874,950.236a.3.3,0,0,1-.3-.3V856.554a.3.3,0,0,1,.608,0v93.377a.3.3,0,0,1-.3.3Z" transform="translate(-354.01 -816.857)" fill="#fff"/>
        <path id="Path_325" data-name="Path 325" d="M425.644,950.236a.3.3,0,0,1-.3-.3V856.554a.3.3,0,0,1,.608,0v93.377A.3.3,0,0,1,425.644,950.236Z" transform="translate(-365.526 -816.857)" fill="#fff"/>
        <path id="Path_326" data-name="Path 326" d="M451.414,950.236a.3.3,0,0,1-.3-.3V856.554a.3.3,0,0,1,.608,0v93.377a.3.3,0,0,1-.3.3Z" transform="translate(-377.042 -816.857)" fill="#fff"/>
        <path id="Path_327" data-name="Path 327" d="M477.184,950.24a.3.3,0,0,1-.3-.3V856.559a.3.3,0,0,1,.3-.3.3.3,0,0,1,.3.3v93.377a.3.3,0,0,1-.3.3Z" transform="translate(-388.558 -816.861)" fill="#fff"/>
        <path id="Path_328" data-name="Path 328" d="M502.954,950.269a.3.3,0,0,1-.3-.3V856.587a.3.3,0,0,1,.6,0v93.377a.3.3,0,0,1-.3.3Z" transform="translate(-400.074 -816.89)" fill="#fff"/>
        <path id="Path_329" data-name="Path 329" d="M528.754,950.269a.3.3,0,0,1-.3-.3V856.587a.3.3,0,0,1,.6,0v93.377a.3.3,0,0,1-.3.3Z" transform="translate(-411.604 -816.89)" fill="#fff"/>
        <path id="Path_330" data-name="Path 330" d="M554.489,950.269a.3.3,0,0,1-.3-.3V856.587a.3.3,0,0,1,.6,0v93.377a.3.3,0,0,1-.3.3Z" transform="translate(-423.107 -816.89)" fill="#fff"/>
      </g>
      <g id="Group_63" data-name="Group 63" transform="translate(374.349 241.729)" clip-path="url(#clip-path-5)">
        <path id="Path_331" data-name="Path 331" d="M991.975,1095.511H840.631a.3.3,0,1,1,0-.6H991.975a.3.3,0,1,1,0,.6Z" transform="translate(-848.07 -742.091)" fill="#fff"/>
        <path id="Path_332" data-name="Path 332" d="M992.008,1041.1H840.664a.3.3,0,0,1,0-.608H992.008a.3.3,0,1,1,0,.608Z" transform="translate(-848.104 -717.774)" fill="#fff"/>
        <path id="Path_333" data-name="Path 333" d="M992.008,986.718H840.664a.3.3,0,0,1,0-.608H992.008a.3.3,0,1,1,0,.608Z" transform="translate(-848.104 -693.473)" fill="#fff"/>
        <path id="Path_334" data-name="Path 334" d="M991.975,932.341H840.631a.3.3,0,1,1,0-.6H991.975a.3.3,0,1,1,0,.6Z" transform="translate(-848.071 -669.173)" fill="#fff"/>
        <path id="Path_335" data-name="Path 335" d="M991.975,877.961H840.631a.3.3,0,1,1,0-.6H991.975a.3.3,0,1,1,0,.6Z" transform="translate(-848.071 -644.872)" fill="#fff"/>
        <path id="Path_336" data-name="Path 336" d="M992.008,823.588H840.664a.3.3,0,0,1,0-.608H992.008a.3.3,0,1,1,0,.608Z" transform="translate(-848.104 -620.572)" fill="#fff"/>
        <path id="Path_337" data-name="Path 337" d="M992.008,769.208H840.664a.3.3,0,0,1,0-.608H992.008a.3.3,0,1,1,0,.608Z" transform="translate(-848.104 -596.271)" fill="#fff"/>
        <path id="Path_338" data-name="Path 338" d="M991.975,714.831H840.631a.3.3,0,1,1,0-.6H991.975a.3.3,0,1,1,0,.6Z" transform="translate(-848.071 -571.972)" fill="#fff"/>
        <path id="Path_339" data-name="Path 339" d="M992.008,660.508H840.664a.3.3,0,0,1,0-.608H992.008a.3.3,0,1,1,0,.608Z" transform="translate(-848.104 -547.695)" fill="#fff"/>
        <path id="Path_340" data-name="Path 340" d="M992.008,1241.818H840.664a.3.3,0,0,1,0-.608H992.008a.3.3,0,1,1,0,.608Z" transform="translate(-848.104 -807.472)" fill="#fff"/>
        <path id="Path_341" data-name="Path 341" d="M992.008,1187.438H840.664a.3.3,0,0,1,0-.608H992.008a.3.3,0,1,1,0,.608Z" transform="translate(-848.104 -783.171)" fill="#fff"/>
        <path id="Path_342" data-name="Path 342" d="M991.975,1133.061H840.631a.3.3,0,1,1,0-.6H991.975a.3.3,0,1,1,0,.6Z" transform="translate(-848.07 -758.872)" fill="#fff"/>
        <path id="Path_343" data-name="Path 343" d="M992.008,1078.688H840.664a.3.3,0,0,1,0-.609H992.008a.3.3,0,1,1,0,.608Z" transform="translate(-848.104 -734.572)" fill="#fff"/>
        <path id="Path_344" data-name="Path 344" d="M992.008,1024.308H840.664a.3.3,0,1,1,0-.608H992.008a.3.3,0,1,1,0,.608Z" transform="translate(-848.104 -710.271)" fill="#fff"/>
        <path id="Path_345" data-name="Path 345" d="M991.975,969.931H840.631a.3.3,0,1,1,0-.6H991.975a.3.3,0,1,1,0,.6Z" transform="translate(-848.071 -685.972)" fill="#fff"/>
        <path id="Path_346" data-name="Path 346" d="M991.975,915.511H840.631a.3.3,0,1,1,0-.6H991.975a.3.3,0,1,1,0,.6Z" transform="translate(-848.071 -661.652)" fill="#fff"/>
        <path id="Path_347" data-name="Path 347" d="M992.008,861.178H840.664a.3.3,0,0,1,0-.608H992.008a.3.3,0,1,1,0,.608Z" transform="translate(-848.104 -637.371)" fill="#fff"/>
        <path id="Path_348" data-name="Path 348" d="M992.008,806.8H840.664a.3.3,0,0,1,0-.609H992.008a.3.3,0,1,1,0,.609Z" transform="translate(-848.104 -613.069)" fill="#fff"/>
        <path id="Path_349" data-name="Path 349" d="M991.975,945.651H840.631a.3.3,0,1,1,0-.6H991.975a.3.3,0,1,1,0,.6Z" transform="translate(-848.071 -675.121)" fill="#fff"/>
        <path id="Path_350" data-name="Path 350" d="M992.008,891.278H840.664a.3.3,0,1,1,0-.608H992.008a.3.3,0,1,1,0,.608Z" transform="translate(-848.104 -650.822)" fill="#fff"/>
        <path id="Path_351" data-name="Path 351" d="M992.008,836.9H840.664a.3.3,0,0,1,0-.608H992.008a.3.3,0,1,1,0,.608Z" transform="translate(-848.104 -626.521)" fill="#fff"/>
        <path id="Path_352" data-name="Path 352" d="M991.975,782.511H840.631a.3.3,0,1,1,0-.6H991.975a.3.3,0,1,1,0,.6Z" transform="translate(-848.071 -602.217)" fill="#fff"/>
        <path id="Path_353" data-name="Path 353" d="M992.008,728.148H840.664a.3.3,0,1,1,0-.608H992.008a.3.3,0,1,1,0,.608Z" transform="translate(-848.104 -577.922)" fill="#fff"/>
        <path id="Path_354" data-name="Path 354" d="M992.008,673.768H840.664a.3.3,0,0,1,0-.608H992.008a.3.3,0,1,1,0,.608Z" transform="translate(-848.104 -553.62)" fill="#fff"/>
        <path id="Path_355" data-name="Path 355" d="M991.975,619.391H840.631a.3.3,0,1,1,0-.6H991.975a.3.3,0,1,1,0,.6Z" transform="translate(-848.071 -529.321)" fill="#fff"/>
        <path id="Path_356" data-name="Path 356" d="M991.975,565.011H840.631a.3.3,0,1,1,0-.6H991.975a.3.3,0,1,1,0,.6Z" transform="translate(-848.071 -505.02)" fill="#fff"/>
        <path id="Path_357" data-name="Path 357" d="M992.008,510.638H840.664a.3.3,0,0,1,0-.608H992.008a.3.3,0,1,1,0,.608Z" transform="translate(-848.104 -480.72)" fill="#fff"/>
      </g>
    </g>
    <g id="Ñëîé_3" data-name="Ñëîé 3" transform="translate(47.66 363.831)">
      <g id="Group_66" data-name="Group 66" transform="translate(0 128.905)" clip-path="url(#clip-path-6)">
        <path id="Path_358" data-name="Path 358" d="M883.395,846.807c-.255-.808-3.219-1.693-7.191-2.472-1.98-.382-4.17-.763-6.46-1.062s-4.607-.553-6.748-.78c-2.55-2.423-5.05-5.072-7.616-7.9s-5.194-5.824-7.71-9.093c3.916-.824,6.748-1.687,6.438-2.506-.188-.465-1.328-.891-3.125-1.222a65.361,65.361,0,0,0-6.809-.813c-1.156-1.543-2.3-3.131-3.418-4.779,9.4.664,20.377,1.56,20.891.426.371-.83-5.061-3.933-11.56-7.157l-2.483-1.217-2.589-1.167c-1.731-.769-3.457-1.521-5.111-2.213-3.319-1.4-6.289-2.644-8.474-3.485q-2.589-4.353-5.028-9.176l-1.206-2.439q-.62-1.222-1.256-2.461-1.244-2.489-2.45-5.105c4.215-.183,7.307-.553,7.047-1.361s-4.176-2.074-9.077-3.208c-.758-1.7-1.538-3.407-2.29-5.177,2.212.2,4.536.4,6.814.581s4.425.359,6.339.442c3.805.172,6.5,0,6.35-.885-.083-.492-.99-1.167-2.445-1.947a45.937,45.937,0,0,0-5.775-2.517c-4.646-1.72-10.321-3.5-14.934-4.779q-1.969-4.851-3.822-10.128c-.31-.885-.614-1.776-.924-2.666l-.968-2.677q-.968-2.694-1.908-5.531c5.614,1.56,10.2,2.5,10.376,1.261.116-.763-1.455-2.284-3.933-4.159-1.239-.935-2.7-1.964-4.292-3.026-.8-.553-1.626-1.068-2.472-1.615s-1.753-1.051-2.649-1.576c-1.339-4.038-2.622-8.269-3.916-12.65s-2.7-8.822-4.021-13.529q5.664,1.925,11.1,4.088l2.7,1.106L811.4,713.4q2.6,1.189,5.133,2.412c.36,3.02.725,5.741,1.106,7.744s.68,3.252,1.051,3.28c.647.061,1.35-3.949,1.72-9.077,1.051.553,2.107,1.073,3.131,1.659l3.015,1.715q2.987,1.737,5.874,3.523l2.86,1.809c.951.6,1.881,1.217,2.766,1.858q2.71,1.9,5.327,3.872c.1,3.872.26,7.528.4,10.31s.36,4.591.741,4.619.763-1.361,1.217-3.584c.227-1.106.465-2.428.691-3.872s.42-3.02.614-4.663c.94.741,1.9,1.466,2.766,2.212l2.666,2.3q2.627,2.312,5.138,4.657c-.349,2.312-.7,4.646-1.04,6.864s-.675,4.331-.918,6.178c-.492,3.689-.7,6.344-.293,6.931.8,1.156,5.6-5.216,10.078-12.025q2.483,2.721,4.807,5.448c.791.9,1.521,1.836,2.213,2.766s1.438,1.859,2.135,2.766q2.091,2.765,4.038,5.564c.642.924,1.294,1.836,1.9,2.766l1.759,2.81c-1.305,5.315-2.826,11.544-4,16.594s-2.019,9.043-1.582,9.818c.824,1.333,7.39-6.245,12.877-13.435,1.9,3.96,3.628,7.832,5.116,11.615s2.672,7.583,3.761,11.206c-1.576,4.524-3.352,9.237-4.541,12.954s-1.886,6.51-1.51,7.351c.553,1.283,4.79-1.106,9.641-4.53.138.83.271,1.659.4,2.456s.2,1.626.3,2.428c.188,1.593.343,3.147.476,4.663.265,3.02.426,5.869.509,8.535a130.734,130.734,0,0,1-.553,13.773,75.484,75.484,0,0,1-1.327,8.723c-.42,2-.725,3.048-.725,3.048s-.88-.354-2.445-1.106-3.805-1.953-6.565-3.579-6.123-3.656-9.735-6.184a146.015,146.015,0,0,1-11.726-9.088C877.366,848.859,883.8,848.063,883.395,846.807Z" transform="translate(-381.629 -573.269)" fill="#f3e0a7"/>
        <path id="Path_359" data-name="Path 359" d="M883.395,846.807c-.255-.808-3.219-1.693-7.191-2.472-1.98-.382-4.17-.763-6.46-1.062s-4.607-.553-6.748-.78c-2.55-2.423-5.05-5.072-7.616-7.9s-5.194-5.824-7.71-9.093c3.916-.824,6.748-1.687,6.438-2.506-.188-.465-1.328-.891-3.125-1.222a65.361,65.361,0,0,0-6.809-.813c-1.156-1.543-2.3-3.131-3.418-4.779,9.4.664,20.377,1.56,20.891.426.371-.83-5.061-3.933-11.56-7.157l-2.483-1.217-2.589-1.167c-1.731-.769-3.457-1.521-5.111-2.213-3.319-1.4-6.289-2.644-8.474-3.485q-2.589-4.353-5.028-9.176l-1.206-2.439q-.62-1.222-1.256-2.461-1.244-2.489-2.45-5.105c4.215-.183,7.307-.553,7.047-1.361s-4.176-2.074-9.077-3.208c-.758-1.7-1.538-3.407-2.29-5.177,2.212.2,4.536.4,6.814.581s4.425.359,6.339.442c3.805.172,6.5,0,6.35-.885-.083-.492-.99-1.167-2.445-1.947a45.937,45.937,0,0,0-5.775-2.517c-4.646-1.72-10.321-3.5-14.934-4.779q-1.969-4.851-3.822-10.128c-.31-.885-.614-1.776-.924-2.666l-.968-2.677q-.968-2.694-1.908-5.531c5.614,1.56,10.2,2.5,10.376,1.261.116-.763-1.455-2.284-3.933-4.159-1.239-.935-2.7-1.964-4.292-3.026-.8-.553-1.626-1.068-2.472-1.615s-1.753-1.051-2.649-1.576c-1.339-4.038-2.622-8.269-3.916-12.65s-2.7-8.822-4.021-13.529q5.664,1.925,11.1,4.088l2.7,1.106L811.4,713.4q2.6,1.189,5.133,2.412c.36,3.02.725,5.741,1.106,7.744s.68,3.252,1.051,3.28c.647.061,1.35-3.949,1.72-9.077,1.051.553,2.107,1.073,3.131,1.659l3.015,1.715q2.987,1.737,5.874,3.523l2.86,1.809c.951.6,1.881,1.217,2.766,1.858q2.71,1.9,5.327,3.872c.1,3.872.26,7.528.4,10.31s.36,4.591.741,4.619.763-1.361,1.217-3.584c.227-1.106.465-2.428.691-3.872s.42-3.02.614-4.663c.94.741,1.9,1.466,2.766,2.212l2.666,2.3q2.627,2.312,5.138,4.657c-.349,2.312-.7,4.646-1.04,6.864s-.675,4.331-.918,6.178c-.492,3.689-.7,6.344-.293,6.931.8,1.156,5.6-5.216,10.078-12.025q2.483,2.721,4.807,5.448c.791.9,1.521,1.836,2.213,2.766s1.438,1.859,2.135,2.766q2.091,2.765,4.038,5.564c.642.924,1.294,1.836,1.9,2.766l1.759,2.81c-1.305,5.315-2.826,11.544-4,16.594s-2.019,9.043-1.582,9.818c.824,1.333,7.39-6.245,12.877-13.435,1.9,3.96,3.628,7.832,5.116,11.615s2.672,7.583,3.761,11.206c-1.576,4.524-3.352,9.237-4.541,12.954s-1.886,6.51-1.51,7.351c.553,1.283,4.79-1.106,9.641-4.53.138.83.271,1.659.4,2.456s.2,1.626.3,2.428c.188,1.593.343,3.147.476,4.663.265,3.02.426,5.869.509,8.535a130.734,130.734,0,0,1-.553,13.773,75.484,75.484,0,0,1-1.327,8.723c-.42,2-.725,3.048-.725,3.048s-.88-.354-2.445-1.106-3.805-1.953-6.565-3.579-6.123-3.656-9.735-6.184a146.015,146.015,0,0,1-11.726-9.088C877.366,848.859,883.8,848.063,883.395,846.807Z" transform="translate(-381.629 -573.269)" fill="#f3e0a7"/>
        <g id="Group_64" data-name="Group 64" transform="translate(413.361 133.771)" clip-path="url(#clip-path-7)">
          <path id="Path_360" data-name="Path 360" d="M898.326,880.96l-3.142-9.132-.553-1.6c-.5-1.466-1.067-3.125-1.742-4.834l-2.92-7.744c-.183-.487-.371-.973-.553-1.471-.343-.918-.691-1.853-1.073-2.793l-1.842-4.458q-.664-1.576-1.333-3.214c-.841-2.041-1.709-4.154-2.638-6.278l-4.491-9.984c-6.361-13.668-13.767-27.921-20.9-40.14-1.217-2.08-2.45-4.11-3.65-6.084-.592-.968-1.178-1.93-1.748-2.876l-2.561-4.209-7.191-11.062c-.7-1.106-1.416-2.1-2.107-3.075l-4.928-6.87c-.266-.36-.553-.73-.8-1.106-.857-1.195-1.742-2.434-2.765-3.7l-6.35-8.225c-.8-1.04-1.527-1.98-2.323-2.92l-6.012-7.345c-1.311-1.587-2.66-3.225-4.071-4.79l-5.349-6.084-.918-1.04c-.553-.658-1.156-1.316-1.742-1.964l-2.71-2.9c-.9-.951-1.787-1.9-2.661-2.843-2.655-2.843-5.166-5.531-7.65-7.959l-6.792-6.814c-.448-.437-.891-.852-1.322-1.261l-9.149-8.6a.3.3,0,0,1,0-.426.31.31,0,0,1,.432,0l9.132,8.618c.437.409.879.83,1.333,1.272l6.792,6.82c2.495,2.434,4.978,5.122,7.666,7.97.874.94,1.759,1.892,2.66,2.843l2.71,2.9c.6.653,1.173,1.316,1.759,1.98l.913,1.034,5.349,6.084c1.416,1.571,2.766,3.219,4.082,4.807l6.084,7.34c.8.951,1.532,1.892,2.34,2.937l6.344,8.225c1.007,1.272,1.9,2.517,2.766,3.717l.8,1.106,4.89,6.881c.708,1,1.427,2.013,2.135,3.114l7.191,11.062,2.572,4.215c.553.951,1.156,1.908,1.748,2.876,1.195,1.969,2.434,4,3.656,6.084,7.124,12.224,14.552,26.505,20.924,40.217l4.458,9.951c.935,2.135,1.8,4.248,2.644,6.294q.675,1.659,1.333,3.214l1.842,4.464c.387.946.741,1.886,1.106,2.8.188.5.371.985.553,1.471l2.92,7.71c.675,1.72,1.245,3.385,1.742,4.856.188.553.371,1.106.553,1.6l3.142,9.132Z" transform="translate(-785.723 -698.117)" fill="#fff"/>
        </g>
        <path id="Path_362" data-name="Path 362" d="M301.915,853.646a.6.6,0,0,1-.509-.277l-3.789-5.813c-.4-.592-.819-1.255-1.272-2.013l-2.909-4.757c-.52-.846-1.106-1.77-1.659-2.766l-3.512-6.134-3.722-6.986c-.763-1.482-1.5-2.981-2.284-4.569-.509-1.023-1.023-2.063-1.549-3.108a303.966,303.966,0,0,1-14.381-35.4c-3.739-11.062-7.152-23.3-10.15-36.312a.6.6,0,0,1,1.178-.271c3.037,12.932,6.46,25.1,10.166,36.163a302,302,0,0,0,14.3,35.278c.526,1.04,1.04,2.08,1.543,3.109.78,1.582,1.516,3.075,2.273,4.541l3.711,6.964,3.507,6.129c.553.979,1.106,1.886,1.615,2.721l2.915,4.768c.443.741.852,1.388,1.245,1.969l3.794,5.824a.614.614,0,0,1-.177.841.6.6,0,0,1-.332.1Z" transform="translate(-140.836 -590.13)" fill="#e49f8e"/>
        <path id="Path_363" data-name="Path 363" d="M252.026,728.876c-.4.122-2.279-3.761-3.789-7.943-1.422-4.187-2.329-8.667-1.051-9.4s3.064.094,4.458,1.621a8.131,8.131,0,0,1,2.212,5.974C253.58,723.511,253.149,728.528,252.026,728.876Z" transform="translate(-136.552 -575.154)" fill="#f7b7a8"/>
        <path id="Path_364" data-name="Path 364" d="M245.317,751.949c.492.332-.8-2.063-2.766-4.768s-4.8-5.692-7.478-6.366-4.729-.642-5.487.277a2.043,2.043,0,0,0-.149,2.047,11.549,11.549,0,0,0,2.212,3.418,10.118,10.118,0,0,0,7.036,3.651C241,750.538,243.26,750.527,245.317,751.949Z" transform="translate(-128.809 -588.154)" fill="#f7b7a8"/>
        <path id="Path_365" data-name="Path 365" d="M264.038,753.482a24.128,24.128,0,0,1,1.068-8.6c1.106-3.617,3.175-6.637,6.665-5.487s1.538,4.867-1.244,8.341S264.193,754.333,264.038,753.482Z" transform="translate(-144.338 -587.619)" fill="#f7b7a8"/>
        <path id="Path_366" data-name="Path 366" d="M249.963,774.389c-.431-.68-3.014-2.517-5.885-4.375s-6.007-3.722-7.744-4.137a2.842,2.842,0,0,0-3.568,1.6c-.465,1.278-.055,3.081,1.659,4.7s5.669,2.185,9.11,2.329a55.108,55.108,0,0,0,6.427-.116Z" transform="translate(-130.301 -599.51)" fill="#f7b7a8"/>
        <path id="Path_367" data-name="Path 367" d="M270.995,774.03c-.337-.625.393-3.546,1.93-6.151s3.994-4.912,6.792-4.541a10.945,10.945,0,0,1,3.557,1.051A5.144,5.144,0,0,1,285.3,766c.73,1.106.127,2.212-2.378,2.484a22.531,22.531,0,0,0-7.854,2.92A40.915,40.915,0,0,0,270.995,774.03Z" transform="translate(-147.428 -598.41)" fill="#f7b7a8"/>
        <path id="Path_368" data-name="Path 368" d="M253.866,803.582s-.454-.553-1.256-1.466a46.487,46.487,0,0,0-3.319-3.319c-2.7-2.495-6.383-5.194-10.266-5.769s-5.885.227-6.947,1.72-1.056,3.6-.968,5.531,2.212,1.814,5.061,1.582,6.46-.586,9.624.714C252.085,805.142,255.62,805.568,253.866,803.582Z" transform="translate(-129.625 -611.612)" fill="#f7b7a8"/>
        <path id="Path_369" data-name="Path 369" d="M279.337,801.041A38.573,38.573,0,0,1,281,794.293a14.879,14.879,0,0,1,2.212-4.054,7.561,7.561,0,0,1,3.429-2.6c5.454-1.914,7.744-5.255,9.165-2.882s-1.8,6.637-3.4,8.85c-.8,1.106-4.215,3.6-7.345,5.531S279.077,802.424,279.337,801.041Z" transform="translate(-151.185 -607.633)" fill="#f7b7a8"/>
        <path id="Path_370" data-name="Path 370" d="M262.006,833.667a22.36,22.36,0,0,0-1.853-2.063c-.808-.813-1.8-1.7-2.821-2.577-2.069-1.737-4.508-3.319-6.72-3.623-4.425-.586-13.983.868-14.2,2.539s3.805,2.766,6.809,3.944c.747.293,2.55.946,4.762,1.632a74.454,74.454,0,0,0,7.318,1.842C260.142,836.288,264.041,836.294,262.006,833.667Z" transform="translate(-132.007 -626.104)" fill="#f7b7a8"/>
        <path id="Path_371" data-name="Path 371" d="M311.7,815.065a3.1,3.1,0,0,0-1.068-1.233,4.119,4.119,0,0,0-1.538-.631,10.2,10.2,0,0,0-4.027.177,21.5,21.5,0,0,0-7.578,3.274,16.319,16.319,0,0,0-2.605,2.655,41.649,41.649,0,0,0-2.566,3.6c-1.6,2.45-2.843,4.762-3.092,5.238-.5.962,6.173-2.052,13.739-6.787S312.427,816.575,311.7,815.065Z" transform="translate(-155.601 -620.656)" fill="#f7b7a8"/>
        <path id="Path_372" data-name="Path 372" d="M267.883,865.272c2.063.8-.714-1.106-5.127-3.424-2.24-1.151-4.768-2.478-7.34-3.6a33.7,33.7,0,0,0-7.3-2.4,26.08,26.08,0,0,0-10.979.249c-2.893.774-4.84,2.113-5.354,3.529s1.222,1.836,3.451,2.168,4.978.553,6.361,1.726,5.321.525,10.188.166S262.59,863.187,267.883,865.272Z" transform="translate(-129.902 -639.562)" fill="#f7b7a8"/>
        <path id="Path_373" data-name="Path 373" d="M302.82,854.695a48.675,48.675,0,0,1,4.757-10.553c2.876-4.718,6.9-9.176,11.2-10.006s6.637-1.206,7.191-.454c.277.376.1,1.023-.492,2.03a43.116,43.116,0,0,1-2.932,4.132c-2.766,3.579-7.672,7.3-11.914,10.128S302.82,854.695,302.82,854.695Z" transform="translate(-161.687 -629.681)" fill="#f7b7a8"/>
        <path id="Path_374" data-name="Path 374" d="M284.881,895.8l-1.372-1.311q-.83-.83-1.936-1.842a61.9,61.9,0,0,0-5.315-4.37c-3.916-2.981-8.761-5.614-13.275-5.426-9.115.409-13.656,1.737-12.9,4.314a18.806,18.806,0,0,0,2.13,4.613,17.147,17.147,0,0,0,3.955,4.425c3.037,2.279,12.2-1.726,18.3-.929a66.559,66.559,0,0,0,7.473.553C283.808,895.862,284.881,895.8,284.881,895.8Z" transform="translate(-138.083 -651.832)" fill="#f7b7a8"/>
        <path id="Path_375" data-name="Path 375" d="M319.17,881.373s.1-1.106.4-2.8a49.843,49.843,0,0,1,1.72-6.494c1.6-4.845,4.558-10.116,8.85-12.207,8.518-4.237,12.373-7.4,14.276-5.869.924.774.31,3.451-1.333,6.5a22.31,22.31,0,0,1-7.522,8.369,101.39,101.39,0,0,0-10.6,7.644C321.626,879.182,319.17,881.373,319.17,881.373Z" transform="translate(-168.993 -638.77)" fill="#f7b7a8"/>
        <path id="Path_376" data-name="Path 376" d="M1068.969,794.28a.6.6,0,0,1-.4-.149.609.609,0,0,1-.061-.857l2.544-2.932c2.323-2.766,4.491-5.492,6.637-8.347,3.452-4.729,6.278-8.966,8.9-13.325a174.278,174.278,0,0,0,17.147-38.807,184.482,184.482,0,0,0,5.387-23.109,188.941,188.941,0,0,0,1.908-45.593.6.6,0,1,1,1.206-.1,190.078,190.078,0,0,1-1.925,45.909,184.471,184.471,0,0,1-5.421,23.231,175.273,175.273,0,0,1-17.257,39.078c-2.639,4.425-5.487,8.662-8.966,13.424-2.152,2.882-4.336,5.631-6.676,8.413l-2.555,2.943A.6.6,0,0,1,1068.969,794.28Z" transform="translate(-503.794 -552.474)" fill="#d8cca5"/>
        <path id="Path_377" data-name="Path 377" d="M1141.812,640.4c.094,0,.21-.321.326-.891s.2-1.388.293-2.373.182-2.152.216-3.4,0-2.589,0-3.944a39.157,39.157,0,0,0-.3-4,28.18,28.18,0,0,0-.553-3.551c-.5-2.1-1.14-3.573-1.892-3.756-1.51-.354-2.8,1.283-3.451,3.551a12.033,12.033,0,0,0,.276,7.655C1138.632,634.621,1140.623,640.351,1141.812,640.4Z" transform="translate(-534.003 -533.672)" fill="#e9e3cf"/>
        <path id="Path_378" data-name="Path 378" d="M1150.105,665.271c-.382.553.2-2.677,1.283-6.5s2.732-8.3,5.061-10.05,4.259-2.4,5.293-1.554a3.109,3.109,0,0,1,.835,2.434,16.688,16.688,0,0,1-.951,4.879,11.1,11.1,0,0,1-2.533,4.453,11.378,11.378,0,0,1-3.109,2.213C1153.866,662.24,1151.687,662.948,1150.105,665.271Z" transform="translate(-540.272 -546.345)" fill="#e9e3cf"/>
        <path id="Path_379" data-name="Path 379" d="M1135.416,674.366a31.9,31.9,0,0,0-3.407-9.757,12.135,12.135,0,0,0-3.761-4.425,3.424,3.424,0,0,0-4.32.277c-1.482,1.2-1.46,2.688-.6,4.276a19.335,19.335,0,0,0,4.287,4.884,40.027,40.027,0,0,0,5.282,3.96C1134.4,674.488,1135.443,674.9,1135.416,674.366Z" transform="translate(-528.093 -552.045)" fill="#e9e3cf"/>
        <path id="Path_380" data-name="Path 380" d="M1149.55,693.7a15.748,15.748,0,0,1,1.587-2.633c.835-1.222,1.975-2.716,3.131-4.248s2.378-3.086,3.523-4.425a17.043,17.043,0,0,1,2.937-2.909,2.522,2.522,0,0,1,3.872.857c.8,1.411.835,3.761-.426,6.25s-4.978,4.314-8.3,5.454a43.256,43.256,0,0,1-4.425,1.245C1150.3,693.581,1149.55,693.7,1149.55,693.7Z" transform="translate(-540.076 -560.705)" fill="#e9e3cf"/>
        <path id="Path_381" data-name="Path 381" d="M1130.113,700.712a5.823,5.823,0,0,0-.714-2.683,20.474,20.474,0,0,0-2.511-4.027,11.468,11.468,0,0,0-3.656-3.125,4.535,4.535,0,0,0-4.032-.232,10.973,10.973,0,0,0-3.2,2.213,5.911,5.911,0,0,0-1.593,2.378c-.443,1.466.409,2.578,2.9,2.212s5.725.371,8.3,1.3a33.95,33.95,0,0,1,4.508,1.964Z" transform="translate(-524.322 -565.779)" fill="#e9e3cf"/>
        <path id="Path_382" data-name="Path 382" d="M1146.308,730.377l.277-.553c.188-.348.454-.857.785-1.482.653-1.25,1.659-2.948,2.81-4.779a44.81,44.81,0,0,1,4.06-5.531,16.337,16.337,0,0,1,5.072-4.115c3.656-1.759,5.813-1.333,7.152.227s1.731,4.171,1.975,6.565-1.908,2.826-4.779,3.269-6.5.918-9.453,3.263a29.446,29.446,0,0,1-6.743,4.331C1146.032,732.114,1145.539,731.771,1146.308,730.377Z" transform="translate(-538.466 -575.831)" fill="#e9e3cf"/>
        <path id="Path_383" data-name="Path 383" d="M1124.569,735.948a39.79,39.79,0,0,0-2.555-7.616,20.979,20.979,0,0,0-1.245-2.273,13.434,13.434,0,0,0-1.538-1.975,6.8,6.8,0,0,0-3.811-2.213c-5.7-.935-8.5-4.17-9.536-1.156-.553,1.5.254,3.263,1.294,4.95a42.165,42.165,0,0,0,3.451,4.425c.935,1.106,4.646,3.252,8,4.862a23.3,23.3,0,0,0,4.375,1.7C1124.121,736.9,1124.785,736.739,1124.569,735.948Z" transform="translate(-520.483 -578.818)" fill="#e9e3cf"/>
        <path id="Path_384" data-name="Path 384" d="M1138.126,769.37c.4-.686.985-1.659,1.759-2.81s1.715-2.389,2.677-3.645a31.222,31.222,0,0,1,3.175-3.5,10.747,10.747,0,0,1,3.319-2.284c4.425-1.659,14.121-2.13,14.514-.1.182,1.012-.714,2.1-2.008,3.2a54.192,54.192,0,0,1-4.475,3.225c-.747.526-2.533,1.715-4.724,3.009a70.5,70.5,0,0,1-7.3,3.695C1140.128,772.191,1136.129,772.844,1138.126,769.37Z" transform="translate(-534.736 -595.011)" fill="#e9e3cf"/>
        <path id="Path_385" data-name="Path 385" d="M1089.2,758.514a3.8,3.8,0,0,1,.968-1.56,4.426,4.426,0,0,1,1.488-.968,9.574,9.574,0,0,1,4.071-.509,18.464,18.464,0,0,1,7.9,2.367,15.048,15.048,0,0,1,2.838,2.605,40.349,40.349,0,0,1,2.86,3.739c.885,1.294,1.7,2.578,2.29,3.6s1,1.776,1.106,2.035c.553,1.062-6.361-1.388-14.271-5.586-3.955-2.085-6.46-3.042-7.849-3.733S1088.905,759.394,1089.2,758.514Z" transform="translate(-513.061 -594.897)" fill="#e9e3cf"/>
        <path id="Path_386" data-name="Path 386" d="M1123.115,808.4c-1.106.6-.9.249.166-.653.553-.454,1.278-1.051,2.213-1.742s1.93-1.5,3.086-2.351c2.334-1.7,4.978-3.678,7.639-5.443a39.66,39.66,0,0,1,7.434-4.2,23.425,23.425,0,0,1,11.272-1.8c2.976.415,5.011,1.659,5.565,3.319s-1.234,2.55-3.523,3.4-5.089,1.659-6.521,3.319-5.531,1.582-10.565,1.93a56.979,56.979,0,0,0-8.158,1.062,33.971,33.971,0,0,0-4.287,1.228,27.764,27.764,0,0,0-4.32,1.936Z" transform="translate(-527.934 -611.27)" fill="#e9e3cf"/>
        <path id="Path_387" data-name="Path 387" d="M1098.715,802.975a34.726,34.726,0,0,0-1.294-4.425,47.016,47.016,0,0,0-3.352-7.318,29.191,29.191,0,0,0-5.221-6.748,11.168,11.168,0,0,0-6.344-3.2c-4.425-.393-6.8-.52-7.34.371-.271.448-.078,1.139.553,2.212a45.954,45.954,0,0,0,3.042,4.287,25.259,25.259,0,0,0,2.489,2.766c.918.913,1.936,1.809,3,2.677a75.622,75.622,0,0,0,6.582,4.757A90.227,90.227,0,0,0,1098.715,802.975Z" transform="translate(-506.781 -606.314)" fill="#e9e3cf"/>
        <path id="Path_388" data-name="Path 388" d="M1103.88,847.334l3.933-3.872,2.837-2.71c1.007-.957,2.113-1.925,3.23-2.9s2.268-1.947,3.463-2.849a41.358,41.358,0,0,1,3.6-2.506,17.482,17.482,0,0,1,7.262-2.766c2.378-.2,4.464-.282,6.234-.265a20.343,20.343,0,0,1,4.314.393c2.212.52,3.2,1.6,2.721,3.241a30.193,30.193,0,0,1-2.605,6.046,23.991,23.991,0,0,1-4.58,5.957c-3.5,3.164-12.755-.631-19.3.874a62.68,62.68,0,0,1-8.026,1.228C1105,847.345,1103.88,847.334,1103.88,847.334Z" transform="translate(-519.667 -627.979)" fill="#e9e3cf"/>
        <path id="Path_389" data-name="Path 389" d="M1078.144,835.151s.044-1.267-.05-3.214a47.591,47.591,0,0,0-1.034-7.329,28.616,28.616,0,0,0-2.981-7.926,12.733,12.733,0,0,0-5.288-5.31c-8.579-4.121-12.417-7.312-14.431-5.581-.973.885-.459,3.722,1.073,7s3.911,6.9,7.058,8.927a82.251,82.251,0,0,1,10.255,8.17C1075.848,832.739,1078.144,835.151,1078.144,835.151Z" transform="translate(-497.316 -617.184)" fill="#e9e3cf"/>
        <path id="Path_390" data-name="Path 390" d="M1002.269,842.024c-.913.52-1.87-.7-2.86-3.142a40.531,40.531,0,0,1-1.659-4.563q-.432-1.339-.874-2.838c-.144-.5-.288-1.007-.443-1.532s-.343-1.073-.52-1.626c-.7-2.212-1.4-4.585-2.135-7.063-.841-2.511-1.659-5.116-2.522-7.744-.935-2.616-1.908-5.338-2.9-8.12-.525-1.35-1.062-2.716-1.593-4.093-.26-.675-.514-1.355-.774-2.035s-.553-1.355-.846-2.03c-1.156-2.7-2.168-5.349-3.391-7.937-.553-1.289-1.106-2.566-1.659-3.817s-1.189-2.484-1.737-3.689c-2.163-4.84-4.325-9.265-5.9-13.275-.349-1.007-.785-1.964-1.106-2.9s-.647-1.847-.885-2.766c-.116-.443-.221-.885-.332-1.316s-.232-.841-.326-1.256a17.353,17.353,0,0,1-.371-2.411,13.621,13.621,0,0,1,0-2.279,10.292,10.292,0,0,1,.271-2.085,9.3,9.3,0,0,1,1.853-3.745,6.865,6.865,0,0,1,6.836-2.716,13.469,13.469,0,0,1,4.3,1.659,22.9,22.9,0,0,1,4.713,3.518c.785.747,1.587,1.565,2.4,2.445a31.069,31.069,0,0,1,2.412,2.865q1.15,1.543,2.323,3.28a38.572,38.572,0,0,1,2.273,3.64,74.938,74.938,0,0,1,4.1,8.3c.62,1.477,1.239,2.992,1.847,4.541q.78,2.34,1.538,4.762l.747,2.439c.243.819.415,1.659.62,2.478q.553,2.489,1.139,5.022c.343,1.659.553,3.374.824,5.072a45.8,45.8,0,0,1,.631,5.061,95.61,95.61,0,0,1,.459,9.868c0,1.593,0,3.164-.055,4.7s-.221,3-.354,4.425-.243,2.838-.437,4.165-.437,2.594-.664,3.8-.459,2.351-.7,3.424a30.728,30.728,0,0,1-.852,2.959,34.445,34.445,0,0,1-1.7,4.425,5.149,5.149,0,0,1-1.7,2.135Z" transform="translate(-459.567 -591.097)" fill="#8cb2c0"/>
        <path id="Path_391" data-name="Path 391" d="M1003.906,811.615a.31.31,0,0,1-.254-.138,35.955,35.955,0,0,1-3.037-5.885c-1.056-2.273-2.074-4.746-3.014-7.356l-.387-.946c-.4-1-.819-2.019-1.211-3.042l-.824-2.212c-.227-.62-.459-1.256-.736-1.881-.553-1.328-1.106-2.71-1.659-4.11-.116-.282-.221-.553-.332-.846-.155-.393-.3-.791-.47-1.184l-2.561-5.9c-.321-.736-.68-1.471-1.023-2.179-.243-.5-.487-1-.714-1.482s-.454-.968-.675-1.444c-.315-.686-.614-1.333-.94-1.964l-3.026-5.764-1.565-2.633c-.675-1.139-1.195-2.024-1.554-2.605a.3.3,0,0,1,.1-.415.3.3,0,0,1,.415.094c.359.553.885,1.471,1.565,2.616l1.571,2.649,3.009,5.8c.326.642.631,1.294.951,1.986.216.47.437.951.675,1.438s.465.979.708,1.477c.343.714.7,1.455,1.034,2.212l2.561,5.9c.166.4.321.8.476,1.206.111.276.216.553.326.835q.83,2.1,1.659,4.1c.282.636.514,1.283.747,1.908l.824,2.212c.387,1.023.8,2.03,1.206,3.026l.387.962c.94,2.6,1.953,5.061,3,7.323a36.047,36.047,0,0,0,2.987,5.8.3.3,0,0,1-.249.47Z" transform="translate(-464.252 -596.752)" fill="#fff"/>
        <path id="Path_392" data-name="Path 392" d="M1041.5,819.366c1.222-3.805,2.583-7.943,4.364-12.29q1.178-3.319,2.611-6.737c.5-1.151.9-2.323,1.366-3.5l1.4-3.573c3.778-9.608,7.611-20.017,10.869-30.056q1.153-3.758,2.334-7.406c.785-2.428,1.383-4.785,2.08-7.069l1.023-3.363q.465-1.659.9-3.208c.592-2.085,1.178-4.054,1.764-5.885s1.106-3.507,1.609-4.978a41.382,41.382,0,0,1,1.543-3.933c1.034-2.213,2.074-3.6,3.108-3.872s2.118.719,3.2,2.688a27.258,27.258,0,0,1,1.6,3.662c.26.73.553,1.5.769,2.334s.437,1.72.647,2.649c.415,1.864.808,3.905,1.161,6.084.2,1.106.293,2.212.409,3.4s.21,2.373.293,3.6.166,2.484.227,3.761,0,2.583,0,3.9c-.05,2.644-.083,5.36-.31,8.109a108.715,108.715,0,0,1-7.462,32.169c-1.018,2.411-2.047,4.718-3.153,6.875a65.765,65.765,0,0,1-3.579,6.018c-.608.924-1.211,1.809-1.825,2.644s-1.305,1.621-1.953,2.362a36.941,36.941,0,0,1-3.872,3.872l-1.875,1.56c-.625.5-1.256.973-1.858,1.433-1.206.913-2.351,1.748-3.424,2.511s-2.091,1.455-3.042,2.08l-1.377.891-1.339.774c-3.451,1.936-5.9,2.876-7.506,2.943s-2.367-.752-2.417-2.467S1040.457,823.039,1041.5,819.366Z" transform="translate(-491.024 -580.602)" fill="#8cb2c0"/>
        <path id="Path_393" data-name="Path 393" d="M1084.767,782.451h0a.293.293,0,0,1-.288-.315,25.447,25.447,0,0,1,.946-4.906c.415-1.792,1.012-3.977,1.825-6.637.553-1.709,1.045-3.485,1.576-5.371.232-.824.465-1.659.708-2.506l1.211-4.187c.249-.9.476-1.814.7-2.7.122-.509.249-1.012.382-1.521l1.04-4.165c.371-1.438.691-2.732.929-3.982l1.449-7.036c.348-1.6.553-2.976.736-4.071.05-.3.094-.586.138-.846l.293-1.853a.3.3,0,0,1,.348-.249.31.31,0,0,1,.255.348l-.3,1.853c-.044.254-.089.553-.138.841-.172,1.106-.393,2.483-.741,4.1l-1.444,7.025c-.243,1.267-.553,2.567-.935,4.01l-1.045,4.17c-.133.509-.254,1.012-.382,1.516-.221.89-.448,1.814-.7,2.721l-1.211,4.193-.708,2.5c-.526,1.886-1.029,3.673-1.582,5.382-.807,2.677-1.4,4.845-1.809,6.637a25.662,25.662,0,0,0-.935,4.79.3.3,0,0,1-.315.255Z" transform="translate(-510.997 -584.469)" fill="#fff"/>
        <path id="Path_394" data-name="Path 394" d="M991.26,866.23c-1.145-1.062-2.633-2.672-4.392-4.6-.885-.968-1.809-2.008-2.843-3.109l-3.319-3.463c-1.151-1.189-2.356-2.406-3.59-3.623-.619-.6-1.25-1.211-1.881-1.831s-1.333-1.217-2-1.836c-2.71-2.434-5.47-4.8-8.258-6.958s-5.7-4.154-8.358-5.852c-.669-.426-1.316-.83-1.975-1.222s-1.316-.763-1.958-1.106c-1.272-.719-2.511-1.333-3.617-1.886-4.569-2.213-7.921-3.186-9.082-2.638A3.722,3.722,0,0,0,938.448,830a10.4,10.4,0,0,0-.553,1.632c-.083.3-.149.625-.216.957s-.177.68-.254,1.04a22.712,22.712,0,0,0-.354,2.318c-.083.819-.094,1.659-.2,2.578a21.148,21.148,0,0,0-.088,2.793c0,.487.033.974.055,1.471s0,.985,0,1.488a30.629,30.629,0,0,0,.265,3.108c.144,1.057.2,2.1.4,3.175s.443,2.179.7,3.263a30.718,30.718,0,0,0,.874,3.263c.182.553.376,1.106.592,1.659l.653,1.659a29.586,29.586,0,0,0,3.546,6.339,29.293,29.293,0,0,0,2.417,2.959c1.787,1.908,3.5,3.789,5.138,5.609l2.411,2.677,2.246,2.528a116.16,116.16,0,0,0,8.369,8.673c5.365,4.856,10.509,7.572,16.378,6.814A11.239,11.239,0,0,0,985,894.549a12.432,12.432,0,0,0,1.881-1.327,17.65,17.65,0,0,0,1.659-1.687,23.62,23.62,0,0,0,2.766-4.126,15.928,15.928,0,0,0,1.045-2.345c.3-.808.553-1.659.8-2.461a23.628,23.628,0,0,0,.874-9.635,14.556,14.556,0,0,0-.924-3.905,8.1,8.1,0,0,0-1.842-2.832Z" transform="translate(-444.991 -627.306)" fill="#97bfcf"/>
        <path id="Path_395" data-name="Path 395" d="M983.579,870.006h-.072c-2.212-.553-5.172-2.915-8.905-6.317-2.268-2.08-4.646-4.425-7.191-6.931-1.471-1.455-2.976-2.943-4.508-4.425-1.859-1.864-3.756-3.7-5.587-5.476-2.074-2.008-4.038-3.905-5.714-5.625-3.584-3.474-5.758-6.084-6.637-7.915a.306.306,0,1,1,.553-.26c.841,1.786,2.976,4.32,6.51,7.744,1.659,1.72,3.634,3.617,5.708,5.625,1.836,1.776,3.733,3.612,5.592,5.476,1.527,1.477,3.031,2.965,4.508,4.425,2.517,2.495,4.9,4.845,7.152,6.914,3.662,3.319,6.538,5.664,8.64,6.173a.3.3,0,0,1-.05.592Z" transform="translate(-448.638 -629.505)" fill="#fff"/>
        <path id="Path_396" data-name="Path 396" d="M1019.961,884.987c4.939-12.417,9.58-21.655,16-28.762a44.131,44.131,0,0,1,5.122-4.939,48.3,48.3,0,0,1,5.725-4.209,55.413,55.413,0,0,1,6.582-3.523,66.76,66.76,0,0,1,7.307-2.893,31.622,31.622,0,0,1,13.678-1.809,21.209,21.209,0,0,1,10.161,3.949,24.406,24.406,0,0,1,3.811,3.44,28.983,28.983,0,0,1,2.882,3.922,35.021,35.021,0,0,1,3.5,7.672c1.255,4.453-.36,7.561-3.031,9a10.318,10.318,0,0,1-9.486-.371c-1.178,1.106-2.832,2.661-4.757,4.574l-3.12,3.075-1.7,1.659c-.614.553-1.239,1.106-1.875,1.726-2.572,2.323-5.288,4.79-8.219,7.19s-6.057,4.7-9.138,6.825c-3.186,2.1-6.339,4.021-9.337,5.658a73.621,73.621,0,0,1-8.717,3.905c-1.339.492-2.605.9-3.794,1.217a28.54,28.54,0,0,1-3.4.631,9.573,9.573,0,0,1-4.934-.437c-4.735-2.212-5.238-6.532-4.978-10.354a25.635,25.635,0,0,1,1.04-4.978A20.968,20.968,0,0,1,1019.961,884.987Z" transform="translate(-481.369 -632.102)" fill="#97bfcf"/>
        <path id="Path_397" data-name="Path 397" d="M1045.808,890.227a.282.282,0,0,1-.155-.05.3.3,0,0,1-.1-.415,24.305,24.305,0,0,1,1.72-2.4c.421-.553.885-1.051,1.372-1.61l.868-1a70.426,70.426,0,0,1,5.791-5.769,113.045,113.045,0,0,1,14.934-11.759,58.175,58.175,0,0,1,8.441-4.53,28.118,28.118,0,0,1,8.573-2.284,17.3,17.3,0,0,1,8.468,1.305,17.52,17.52,0,0,1,4.021,2.456,21.1,21.1,0,0,1,3.734,3.905.31.31,0,0,1-.067.426.3.3,0,0,1-.426-.066,20.24,20.24,0,0,0-3.623-3.794,17.149,17.149,0,0,0-3.872-2.373,16.765,16.765,0,0,0-8.175-1.256,27.433,27.433,0,0,0-8.385,2.213,56.89,56.89,0,0,0-8.347,4.48,111.777,111.777,0,0,0-14.846,11.726,69.172,69.172,0,0,0-5.741,5.719c-.288.337-.553.669-.868,1-.487.553-.946,1.106-1.355,1.593a23.209,23.209,0,0,0-1.659,2.334.31.31,0,0,1-.3.144Z" transform="translate(-493.581 -641.772)" fill="#fff"/>
        <path id="Path_398" data-name="Path 398" d="M996.768,875.829c-1.184-1.106-2.766-2.765-4.591-4.818-.94-1.018-1.886-2.1-3-3.269l-3.479-3.623c-2.439-2.483-4.978-5.055-7.871-7.572q-2.113-1.881-4.27-3.673c-1.433-1.189-2.86-2.334-4.364-3.435a26.95,26.95,0,0,1,.741,3.136c.2,1.018.376,2.013.553,2.965a39.622,39.622,0,0,1,.5,5.094c.078,1.466.111,2.66.122,3.49a7.05,7.05,0,0,1-.072,1.267s-1.056.376-2.7,1.007-3.872,1.521-6.261,2.506a78.33,78.33,0,0,0-7.279,3.23,19.607,19.607,0,0,0-5.692,3.711,31.249,31.249,0,0,0,2.71,3.391c1.787,1.908,3.5,3.789,5.138,5.609l2.411,2.677,2.246,2.528a116.149,116.149,0,0,0,8.369,8.673c5.365,4.856,10.509,7.572,16.378,6.814a11.238,11.238,0,0,0,4.176-1.455,12.435,12.435,0,0,0,1.881-1.327,17.635,17.635,0,0,0,1.659-1.687,23.62,23.62,0,0,0,2.766-4.126,15.921,15.921,0,0,0,1.045-2.345c.3-.808.553-1.659.8-2.461a23.628,23.628,0,0,0,.874-9.635,14.556,14.556,0,0,0-.924-3.9,8.1,8.1,0,0,0-1.864-2.766Z" transform="translate(-450.498 -636.905)" fill="#97bfcf"/>
        <path id="Path_399" data-name="Path 399" d="M1054.6,846.5a54.133,54.133,0,0,0-11.416,6.593,60.75,60.75,0,0,0-4.829,4.137,45.425,45.425,0,0,0-4.259,4.768c-5.531,6.781-9.669,15.349-14.1,26.478a20.923,20.923,0,0,0-.691,2.163,25.638,25.638,0,0,0-1.04,4.978c-.255,3.822.249,8.142,4.978,10.354a9.705,9.705,0,0,0,5.061.42,27.26,27.26,0,0,0,3.49-.675c1.222-.332,2.528-.763,3.9-1.278s2.821-1.106,4.325-1.8,3.1-1.427,4.613-2.29c3.07-1.709,6.322-3.689,9.541-5.874.553-2.1,1.106-4.248,1.571-6.405.232-1.106.5-2.157.675-3.258l.492-3.319c.288-2.212.6-4.375.747-6.554s.2-4.342.232-6.449a59.888,59.888,0,0,0-.221-6.189c-.155-2.008-.354-3.949-.6-5.808A64,64,0,0,0,1054.6,846.5Z" transform="translate(-481.38 -635.591)" fill="#97bfcf"/>
        <path id="Path_400" data-name="Path 400" d="M1009.157,867.973c-4.718-2.113-7.224-4.253-7.932-7.821a12.645,12.645,0,0,1-.2-2.97,15.108,15.108,0,0,1,.144-1.726c.072-.62.122-1.272.216-1.958.183-1.377.459-2.887.824-4.563.094-.415.188-.846.288-1.289s.16-.907.249-1.377q.276-1.405.581-2.954c1.659-8.3,1.964-17.008,2.373-25.753s.935-17.6,2.987-27.164c3.872-19.188,5.951-30.029,9.663-32.385,1.77-1.173,6.792,1.029,12.052,6.77a41.64,41.64,0,0,1,7,11.212c.487,1.139.951,2.329,1.383,3.557a36.148,36.148,0,0,1,1.051,3.817,42.187,42.187,0,0,1,1.172,8.3c.055,1.449.083,2.9.094,4.37v2.212l-.127,2.212c-.094,1.46-.21,2.926-.337,4.381-.072.73-.122,1.46-.216,2.179s-.221,1.444-.326,2.163a115.83,115.83,0,0,1-3.645,16.284c-.8,2.5-1.576,4.884-2.334,7.124-.868,2.212-1.659,4.276-2.434,6.189s-1.532,3.612-2.212,5.144-1.222,2.86-1.659,3.988c-.891,2.246-1.881,4.884-2.9,7.583a38.262,38.262,0,0,1-1.77,3.949c-.647,1.278-1.328,2.511-2.052,3.645a15.359,15.359,0,0,1-2.434,2.981,11.164,11.164,0,0,1-2.8,2.013A7.647,7.647,0,0,1,1009.157,867.973Z" transform="translate(-473.696 -595.912)" fill="#97bfcf"/>
        <path id="Path_401" data-name="Path 401" d="M1035.27,809.867h0a.3.3,0,0,1-.271-.332l.326-3.767.238-3.938c.177-2,.227-4.076.277-6.084,0-.68.033-1.361.055-2.035.105-1.9.072-3.8.044-5.642q0-1.228-.033-2.439c.028-1.814-.083-3.579-.182-5.282-.05-.785-.094-1.554-.127-2.312-.033-.437-.05-.874-.072-1.311-.033-.752-.061-1.46-.149-2.152l-.321-3.2c-.072-.675-.138-1.333-.194-1.958-.111-1.211-.221-2.356-.393-3.319l-.691-4.768a.3.3,0,0,1,.254-.343.315.315,0,0,1,.349.254l.686,4.762c.177.985.288,2.141.4,3.369.061.625.122,1.278.194,1.953l.321,3.191c.089.708.122,1.427.155,2.213,0,.426.039.863.066,1.3.033.763.083,1.527.127,2.306.105,1.72.21,3.5.188,5.327v2.423c.033,1.853.061,3.767-.039,5.675,0,.669-.039,1.35-.055,2.024-.05,2.019-.1,4.1-.282,6.084l-.282,4.89-.282,2.832A.31.31,0,0,1,1035.27,809.867Z" transform="translate(-488.337 -597.376)" fill="#fff"/>
        <path id="Path_402" data-name="Path 402" d="M1004.954,890.05c-.089,2.129-.393,4.187-.642,6.267l-.4,3.1c-.177,1.023-.387,2.024-.586,3.037s-.4,2.019-.581,2.954q-.133.7-.249,1.377c-.1.443-.194.874-.288,1.289-.365,1.659-.642,3.186-.824,4.563-.094.686-.149,1.344-.216,1.958s-.122,1.178-.144,1.726a12.643,12.643,0,0,0,.2,2.97c.708,3.568,3.214,5.708,7.932,7.821a7.608,7.608,0,0,0,6.72.083,11.163,11.163,0,0,0,2.8-2.013,15.356,15.356,0,0,0,2.434-2.981,46.571,46.571,0,0,0,3.822-7.594c1.018-2.7,2.008-5.338,2.9-7.583l.05-.133a23.3,23.3,0,0,1-13.6-4.9,28.617,28.617,0,0,1-5.476-5.31,29.2,29.2,0,0,1-3.861-6.632Z" transform="translate(-473.696 -655.053)" fill="#97bfcf" opacity="0.5"/>
        <path id="Path_403" data-name="Path 403" d="M328.345,841.283c.044-.747,2.672-2.1,6.267-3.507,1.809-.7,3.805-1.438,5.94-2.107s4.287-1.311,6.294-1.87c.913-1.272,1.814-2.583,2.694-3.938.442-.675.879-1.366,1.311-2.063s.846-1.41,1.311-2.118a99.844,99.844,0,0,0,5.15-9.1c-3.955-.116-6.886-.42-6.792-1.184.066-.431,1.051-.985,2.7-1.554a64.725,64.725,0,0,1,6.361-1.72q1.106-2.268,2.113-4.652c-4.425.962-9.2,2.047-12.993,2.8s-6.571,1.173-6.953.708c-.553-.664,3.933-4.27,9.4-8.064l2.091-1.433,2.212-1.394c1.482-.918,2.959-1.82,4.375-2.66,2.843-1.659,5.387-3.164,7.279-4.176q1.466-4.148,2.688-8.689c.194-.763.393-1.527.592-2.3s.426-1.538.647-2.318q.631-2.34,1.195-4.8c-4.054.3-7.091.337-7.019-.42s3.529-2.334,7.932-3.872c.348-1.6.73-3.2,1.062-4.856l-6.389,1.267c-2.129.4-4.137.813-5.946,1.106-3.6.592-6.212.78-6.261-.055-.028-.448.7-1.167,1.919-2.041a37.3,37.3,0,0,1,4.978-2.926c4.076-2.058,9.1-4.253,13.214-5.846q.863-4.547,1.543-9.492c.111-.83.221-1.659.332-2.5s.26-1.659.387-2.511q.382-2.533.725-5.172c-5.017,1.892-9.215,3.169-9.624,2.058-.26-.686.946-2.212,2.937-4.154,1-.968,2.212-2.035,3.5-3.142.653-.553,1.333-1.106,2.03-1.659s1.471-1.106,2.212-1.659c.509-3.805.94-7.8,1.372-11.953q.8-6.129,1.46-12.849-5.039,2.185-9.84,4.613l-2.389,1.222-2.279,1.305q-2.268,1.311-4.469,2.683c.194,2.837.337,5.4.343,7.257s-.039,3.075-.393,3.131-.808-.819-1.4-2.312a54.558,54.558,0,0,1-1.9-5.99c-.913.6-1.831,1.184-2.7,1.8l-2.566,1.886q-2.55,1.9-4.978,3.872-1.222.985-2.412,1.969l-1.189,1-1.106,1.023q-2.24,2.058-4.375,4.159l.9,5.166c.266,1.632.514,3.131.725,4.425.42,2.583.553,4.276.221,4.347s-1.012-1.161-1.9-3.158c-.437-1-.929-2.212-1.438-3.512s-.99-2.766-1.5-4.242c-.763.8-1.543,1.576-2.257,2.4s-1.416,1.659-2.107,2.45q-2.074,2.467-4.016,4.945c.8,2.1,1.615,4.2,2.384,6.2s1.549,3.9,2.168,5.564c1.25,3.319,2,5.714,1.742,6.3-.553,1.162-6.5-4.01-12.218-9.691q-1.831,2.843-3.512,5.686c-.553.94-1.106,1.9-1.582,2.865s-.985,1.914-1.46,2.871q-1.427,2.871-2.7,5.708c-.42.951-.857,1.886-1.233,2.837s-.73,1.9-1.079,2.849l7.578,14.514c2.362,4.425,4.043,7.838,3.8,8.607-.426,1.355-8.535-4.425-15.487-10.039-.924,3.933-1.715,7.744-2.268,11.461s-.791,7.362-.979,10.83c2.594,3.8,5.47,7.716,7.522,10.819s3.429,5.448,3.269,6.267c-.243,1.25-4.9-.077-10.415-2.212.066.769.138,1.527.21,2.279s.21,1.5.315,2.212q.332,2.212.714,4.265c.509,2.766,1.073,5.321,1.659,7.7a108.691,108.691,0,0,0,4.132,12.058c.664,1.621,1.294,3.042,1.941,4.276s1.178,2.262,1.659,3.086c.94,1.659,1.51,2.506,1.51,2.506s.752-.5,2.058-1.51,3.136-2.517,5.354-4.513,4.923-4.425,7.716-7.373c1.41-1.46,2.766-3.053,4.331-4.724s3.059-3.479,4.585-5.387C334.683,841.936,328.278,842.489,328.345,841.283Z" transform="translate(-162.531 -572.12)" fill="#f3e0a7"/>
        <path id="Path_404" data-name="Path 404" d="M328.345,841.283c.044-.747,2.672-2.1,6.267-3.507,1.809-.7,3.805-1.438,5.94-2.107s4.287-1.311,6.294-1.87c.913-1.272,1.814-2.583,2.694-3.938.442-.675.879-1.366,1.311-2.063s.846-1.41,1.311-2.118a99.844,99.844,0,0,0,5.15-9.1c-3.955-.116-6.886-.42-6.792-1.184.066-.431,1.051-.985,2.7-1.554a64.725,64.725,0,0,1,6.361-1.72q1.106-2.268,2.113-4.652c-4.425.962-9.2,2.047-12.993,2.8s-6.571,1.173-6.953.708c-.553-.664,3.933-4.27,9.4-8.064l2.091-1.433,2.212-1.394c1.482-.918,2.959-1.82,4.375-2.66,2.843-1.659,5.387-3.164,7.279-4.176q1.466-4.148,2.688-8.689c.194-.763.393-1.527.592-2.3s.426-1.538.647-2.318q.631-2.34,1.195-4.8c-4.054.3-7.091.337-7.019-.42s3.529-2.334,7.932-3.872c.348-1.6.73-3.2,1.062-4.856l-6.389,1.267c-2.129.4-4.137.813-5.946,1.106-3.6.592-6.212.78-6.261-.055-.028-.448.7-1.167,1.919-2.041a37.3,37.3,0,0,1,4.978-2.926c4.076-2.058,9.1-4.253,13.214-5.846q.863-4.547,1.543-9.492c.111-.83.221-1.659.332-2.5s.26-1.659.387-2.511q.382-2.533.725-5.172c-5.017,1.892-9.215,3.169-9.624,2.058-.26-.686.946-2.212,2.937-4.154,1-.968,2.212-2.035,3.5-3.142.653-.553,1.333-1.106,2.03-1.659s1.471-1.106,2.212-1.659c.509-3.805.94-7.8,1.372-11.953q.8-6.129,1.46-12.849-5.039,2.185-9.84,4.613l-2.389,1.222-2.279,1.305q-2.268,1.311-4.469,2.683c.194,2.837.337,5.4.343,7.257s-.039,3.075-.393,3.131-.808-.819-1.4-2.312a54.558,54.558,0,0,1-1.9-5.99c-.913.6-1.831,1.184-2.7,1.8l-2.566,1.886q-2.55,1.9-4.978,3.872-1.222.985-2.412,1.969l-1.189,1-1.106,1.023q-2.24,2.058-4.375,4.159l.9,5.166c.266,1.632.514,3.131.725,4.425.42,2.583.553,4.276.221,4.347s-1.012-1.161-1.9-3.158c-.437-1-.929-2.212-1.438-3.512s-.99-2.766-1.5-4.242c-.763.8-1.543,1.576-2.257,2.4s-1.416,1.659-2.107,2.45q-2.074,2.467-4.016,4.945c.8,2.1,1.615,4.2,2.384,6.2s1.549,3.9,2.168,5.564c1.25,3.319,2,5.714,1.742,6.3-.553,1.162-6.5-4.01-12.218-9.691q-1.831,2.843-3.512,5.686c-.553.94-1.106,1.9-1.582,2.865s-.985,1.914-1.46,2.871q-1.427,2.871-2.7,5.708c-.42.951-.857,1.886-1.233,2.837s-.73,1.9-1.079,2.849l7.578,14.514c2.362,4.425,4.043,7.838,3.8,8.607-.426,1.355-8.535-4.425-15.487-10.039-.924,3.933-1.715,7.744-2.268,11.461s-.791,7.362-.979,10.83c2.594,3.8,5.47,7.716,7.522,10.819s3.429,5.448,3.269,6.267c-.243,1.25-4.9-.077-10.415-2.212.066.769.138,1.527.21,2.279s.21,1.5.315,2.212q.332,2.212.714,4.265c.509,2.766,1.073,5.321,1.659,7.7a108.691,108.691,0,0,0,4.132,12.058c.664,1.621,1.294,3.042,1.941,4.276s1.178,2.262,1.659,3.086c.94,1.659,1.51,2.506,1.51,2.506s.752-.5,2.058-1.51,3.136-2.517,5.354-4.513,4.923-4.425,7.716-7.373c1.41-1.46,2.766-3.053,4.331-4.724s3.059-3.479,4.585-5.387C334.683,841.936,328.278,842.489,328.345,841.283Z" transform="translate(-162.531 -572.12)" fill="#f3e0a7"/>
        <g id="Group_65" data-name="Group 65" transform="translate(142.179 132.35)" clip-path="url(#clip-path-8)">
          <path id="Path_405" data-name="Path 405" d="M325.342,875.211h0a.3.3,0,0,1-.282-.321l.509-8.645c.033-.492.061-1,.094-1.521.077-1.394.166-2.97.359-4.624l.747-7.351c.05-.465.094-.929.138-1.4.089-.874.177-1.781.3-2.688l1.582-11.062c.122-.874.232-1.609.382-2.362l1.781-9.657a341.036,341.036,0,0,1,10.4-39.343c.686-2.046,1.41-4.049,2.113-5.979q.553-1.46,1.04-2.876l1.5-4.159,4.458-11.007c.431-1.106.9-2.091,1.355-3.064l3.241-6.9c.182-.371.359-.752.553-1.139.553-1.195,1.15-2.428,1.853-3.7l4.386-8.219c.553-1.012,1.056-2,1.659-2.954l3.546-6.018c.265-.443.525-.891.791-1.339.94-1.593,1.908-3.241,2.97-4.823l3.944-6.084.686-1.056c.426-.658.852-1.317,1.289-1.964l2.063-2.915,2.03-2.871c2.008-2.854,3.911-5.531,5.863-7.981l5.255-6.837c.36-.448.714-.868,1.062-1.283.188-.216.365-.431.553-.641l6.682-7.965a.3.3,0,0,1,.426-.033.3.3,0,0,1,.039.426l-6.7,7.959-.553.647c-.343.409-.7.83-1.051,1.267l-5.271,6.825c-1.947,2.423-3.839,5.111-5.841,7.954-.669.946-1.344,1.908-2.035,2.876l-2.058,2.9c-.431.636-.852,1.294-1.278,1.947-.227.354-.454.708-.686,1.062l-3.949,6.084c-1.051,1.571-2.019,3.214-2.954,4.8-.26.448-.525.9-.791,1.339L364,736.539c-.553.951-1.106,1.925-1.632,2.926l-4.386,8.23c-.7,1.256-1.278,2.484-1.836,3.667-.188.387-.365.769-.553,1.139l-3.18,6.881c-.47,1.007-.935,2-1.361,3.075l-4.5,10.968-1.5,4.148c-.337.946-.686,1.908-1.04,2.876-.7,1.93-1.422,3.927-2.107,5.963a342.636,342.636,0,0,0-10.388,39.271l-1.781,9.657c-.144.741-.254,1.466-.376,2.329l-1.582,11.062c-.116.9-.2,1.792-.288,2.661-.05.476-.094.94-.144,1.4l-.747,7.357c-.194,1.659-.282,3.208-.36,4.591,0,.553-.055,1.034-.088,1.527l-.514,8.64A.3.3,0,0,1,325.342,875.211Z" transform="translate(-313.804 -695.482)" fill="#fff"/>
        </g>
      </g>
      <path id="Path_407" data-name="Path 407" d="M317.07,274.927l96.121-22.086s-8.7-13.651-15.515-5.476c-4.082-10.188-20.222-25.958-30.211,1.726-.393-13.828-27.269-30.233-27.031,3.429-4.187-4.6-9.4,2.86-5.929,9.01C328.26,261.574,317.07,274.927,317.07,274.927Z" transform="translate(-168.055 -232.379)" fill="#fff"/>
      <path id="Path_408" data-name="Path 408" d="M316.812,274.989a.31.31,0,0,1-.26-.144.293.293,0,0,1,0-.354c.448-.553,10.8-12.81,17.18-13.474-1.908-3.794-.78-8.053,1.571-9.757a3.454,3.454,0,0,1,4.541.3c.072-16.71,6.8-19.359,10.847-19.42,7.6-.127,16.566,8.761,16.793,16.7a.3.3,0,0,1-.293.315.315.315,0,0,1-.31-.3c-.221-7.655-8.85-16.212-16.184-16.112-3.872.072-10.365,2.7-10.244,19.531a.31.31,0,0,1-.194.288.3.3,0,0,1-.332-.077c-1.333-1.466-2.887-1.731-4.265-.73-2.185,1.582-3.2,5.83-1.178,9.4a.3.3,0,0,1-.26.454c-5.227.039-14.21,9.857-16.594,12.589l95.236-21.892a.3.3,0,0,1,.359.227.3.3,0,0,1-.227.365l-96.121,22.086Z" transform="translate(-167.797 -232.138)" fill="#97bfcf"/>
      <path id="Path_409" data-name="Path 409" d="M420.42,240.481c5.039-5.31,16.317-2.622,20.648,7.622C431.858,236.636,420.42,240.481,420.42,240.481Z" transform="translate(-214.24 -234.677)" fill="#faf2d9" opacity="0.4"/>
      <path id="Path_410" data-name="Path 410" d="M210.28,924.39c45.029-1.51,90.053-2.3,135.082-2.832l16.887-.21,16.881-.138,33.773-.254,67.541-.2,67.541.193,33.773.255,16.881.138,16.887.21c45.029.553,90.053,1.327,135.082,2.843-45.029,1.51-90.053,2.307-135.082,2.837l-16.887.21-16.881.138-33.773.255-67.541.193-67.541-.2-33.773-.26-16.9-.138-16.887-.21C300.333,926.679,255.309,925.894,210.28,924.39Z" transform="translate(-120.332 -539.867)" fill="#40788d"/>
      <path id="Path_411" data-name="Path 411" d="M308.1,361.24l79.533-3.352s-7.589-12.722-13.795-3.678c-.791-7.633-7.932-17.849-19.42-17.81s-13.054,13.955-13.054,13.955-12.169-9.508-16.743,4.48C320.534,347.136,308.1,361.24,308.1,361.24Z" transform="translate(-164.046 -278.731)" fill="#fff"/>
      <path id="Path_412" data-name="Path 412" d="M307.79,361.3a.31.31,0,0,1-.232-.171.3.3,0,0,1,.05-.326c.337-.387,8.358-9.4,13.728-8.778a4.027,4.027,0,0,1,2.943,1.858c1.355-3.745,3.418-6.084,6.134-6.886,4.375-1.333,9.06,1.6,10.459,2.583.431-2.533,2.92-13.684,13.275-13.717a.3.3,0,0,1,.3.3.3.3,0,0,1-.3.3c-11.1.039-12.722,13.551-12.755,13.69a.31.31,0,0,1-.182.243.3.3,0,0,1-.3-.039c-.055-.044-5.531-4.248-10.327-2.766-2.66.808-4.663,3.2-5.94,7.113a.3.3,0,0,1-.265.2.3.3,0,0,1-.293-.155,3.568,3.568,0,0,0-2.821-2.113c-4.336-.509-10.88,6.084-12.722,8.037l78.8-3.319a.3.3,0,1,1,.028.608l-79.538,3.352Z" transform="translate(-163.791 -278.489)" fill="#97bfcf"/>
      <path id="Path_413" data-name="Path 413" d="M385.43,339.888c13.479-3.872,20.5,12,20.5,12C399.64,342.189,385.43,339.888,385.43,339.888Z" transform="translate(-198.604 -280.018)" fill="#faf2d9" opacity="0.4"/>
    </g>
    <g id="Ñëîé_4" data-name="Ñëîé 4" transform="translate(228.475 310.308)">
      <path id="Path_414" data-name="Path 414" d="M588.278,421.23s-9.115,4.22-10.83,5.531-.714,8.85,2.766,7.744,13.922-11.062,13.922-11.062Z" transform="translate(-464.862 -263.116)" fill="#d17a64"/>
      <path id="Path_415" data-name="Path 415" d="M491.491,461.87a100.838,100.838,0,0,0,5.221-9.68l-7.782-1.621L482,464.5Z" transform="translate(-422.574 -276.228)" fill="#f7b3a3"/>
      <path id="Path_416" data-name="Path 416" d="M500.316,459.026c1.659-3.042,3.523-6.875,3.523-6.875l-5.775-1.621A12.079,12.079,0,0,0,500.316,459.026Z" transform="translate(-429.701 -276.21)" fill="#db8e7a"/>
      <path id="Path_417" data-name="Path 417" d="M981.284,283.63c-1.012,1.106-3.319,2.766-3.236,4.563s.608,3.639,2.024,3.131S981.284,283.63,981.284,283.63Z" transform="translate(-644.249 -201.625)" fill="#ed9c89"/>
      <path id="Path_418" data-name="Path 418" d="M986.754,272.672c.105,1.516,1,4.425,1.305,6.051s1,3.872.337,4.762-6.72,4.978-7.832,4.425-.808-5.454,0-7.478,1.106-7.782,1.106-7.782Z" transform="translate(-645.051 -196.718)" fill="#f7b3a3"/>
      <path id="Path_419" data-name="Path 419" d="M491.161,437.517c2.323,1.211,5.454.5,6.87,0s1.311-9.68.808-11.355-4.95-11.687-7.677-11.986-11.14,11.112-9.359,16.267S491.161,437.517,491.161,437.517Z" transform="translate(-422.376 -259.961)" fill="#f7b3a3"/>
      <path id="Path_420" data-name="Path 420" d="M471.33,566.943c.758,5.763,1.361,8.092,8.789,7.307s24.254-23.231,24.254-23.231,4.193,5.155,9.149,6.366,16.04,3.485,15.863,6.82,15.26.907,15.26.907a67.49,67.49,0,0,1-9.121-4.038c-3.639-2.1-28.878-29.459-31.832-29.315s-17.058,10.089-18.5,13.507S471.33,566.943,471.33,566.943Z" transform="translate(-417.806 -312.51)" fill="#f7b3a3"/>
      <path id="Path_421" data-name="Path 421" d="M471.33,566.948c.758,5.763,1.361,8.092,8.789,7.307s24.254-23.231,24.254-23.231,4.193,5.155,9.149,6.366c3.2.785,8.966,2.013,12.594,3.684,1.98.913,7.257-1.7,5.315-3.551-8.3-7.921-25.344-25.875-27.739-25.753-2.959.155-17.053,10.083-18.5,13.49S471.33,566.948,471.33,566.948Z" transform="translate(-417.806 -312.514)" fill="#de6145"/>
      <path id="Path_422" data-name="Path 422" d="M1004.5,657.734l.929,8.413,7.583-2.229-4.779-10.808Z" transform="translate(-656.071 -492.015)" fill="#f7b3a3"/>
      <path id="Path_423" data-name="Path 423" d="M879.674,659.7l-3.944,7.533,7.882,1.211,1.842-10.188Z" transform="translate(-598.526 -494.316)" fill="#f7b3a3"/>
      <path id="Path_424" data-name="Path 424" d="M899.921,288.365c-1.106-3.949-.741-6.516,6.753-10.7s2.948-20.908-1.7-23.126-16.168-3.54-14.8,4.746S899.921,288.365,899.921,288.365Z" transform="translate(-604.929 -187.874)" fill="#86aebd"/>
      <path id="Path_425" data-name="Path 425" d="M902.224,272.018c.4,4.425,0,17.993,0,17.993S892.3,311.633,889.9,321.943s-7.683,35.167-7.074,35.776,7.65,7.119,10.913,6.51c1.444-5.863,4.851-20.255,10.913-32.379s21.223-36.987,21.223-36.987L912.125,262.82Z" transform="translate(-601.673 -192.325)" fill="#d6c9a0"/>
      <path id="Path_426" data-name="Path 426" d="M797.669,279.45c-2.627,1.217-4.95,1.316-6.366,1.925s-4.425,2.323-4.751,4.646,2.832,6.167,5.531,5.41,10.36-9.149,12.987-10.565S797.669,279.45,797.669,279.45Z" transform="translate(-558.663 -199.757)" fill="#f7b3a3"/>
      <path id="Path_427" data-name="Path 427" d="M770.237,290.749s9.093-2.766,10.006-2.013a16.229,16.229,0,0,1,3.158,4.425c.072.62,1.106,3.839-1.062,5.056-.514.288-.785-3.944-2.212-5.255s-2.766-.9-3.319,0c-1.587,2.672,4.6,2.672,4.779,4.773.072.83-5.869.039-8.031-.736-2.058-.73-8.385-.907-8.385-.907Z" transform="translate(-549.118 -203.848)" fill="#d17a64"/>
      <path id="Path_428" data-name="Path 428" d="M697.266,795.089l-.8,10.31,6.947-.758-3-15.161Z" transform="translate(-518.417 -552.956)" fill="#d17a64"/>
      <path id="Path_429" data-name="Path 429" d="M793.549,801.712l2.273,6.14-6.836,1.1L788.2,796.33Z" transform="translate(-559.41 -556.018)" fill="#d17a64"/>
      <path id="Path_430" data-name="Path 430" d="M687.2,400.841c3.147,4.425,3.789,10.609,3.789,10.609s-13.491,31.683-14.248,39.41c1.366,11.062,6.471,46.407,6.471,46.407l11.372-3.031c.5,2.373-4.3-33.74-.553-41.705,4.851-10.31,8.64-23.192,16.826-36.987s-17.434-26.378-17.053-25.77S687.2,400.841,687.2,400.841Z" transform="translate(-509.6 -249.049)" fill="#86aebd"/>
      <path id="Path_431" data-name="Path 431" d="M723.8,385.77c5.3,3.59,11.217,8,15.764,28.762s4.469,36.445,8.712,44.327,11.754,34.105,11.754,34.105-9.248,5.686-11.82,2.047-4.978-15.46-8.645-20.919S718.345,430.241,719.4,415.03s-6.211-27.949-6.211-27.949Z" transform="translate(-525.889 -247.27)" fill="#91bccc"/>
      <path id="Path_432" data-name="Path 432" d="M484.294,460.894c4.851-4.978,23.85-13.192,29.913-16.04,0,0,25.012-10.73,25.333-9.143.42,2.041-4.7,6.836-8.739,9.143-5.21,2.97-7.644,3.662-12.169,6.427-3.4,2.1-11.864,7.981-20.117,10.692C490.932,464.495,483.116,462.1,484.294,460.894Z" transform="translate(-423.547 -269.516)" fill="#f7b3a3"/>
      <path id="Path_433" data-name="Path 433" d="M544.558,485.048c3.28.21,3.573-18.292,0-17.584S538.241,484.644,544.558,485.048Z" transform="translate(-448.842 -283.768)" fill="#d9d2bf"/>
      <path id="Path_434" data-name="Path 434" d="M531.448,468.587c5.3-1.516,13.612-4.148,15.736-6.361s11.87-20.565,11.87-20.565l-5.089-.642s-9,11.1-11.129,12.312a45.621,45.621,0,0,1-4.95,2.323s-5.36,3.435-10.509,2.981S531.448,468.587,531.448,468.587Z" transform="translate(-442.154 -271.96)" fill="#f7b3a3"/>
      <path id="Path_435" data-name="Path 435" d="M575.522,434.968c1-1.333-1.576-3.451-1.427-4.668s3.319-3.938,3.485-2.273S575.522,434.968,575.522,434.968Z" transform="translate(-463.727 -265.919)" fill="#ed9c89"/>
      <path id="Path_436" data-name="Path 436" d="M576.68,433.032c1-1.659-.277-4.884.315-7.467a2.585,2.585,0,0,1,2.4-2.318c1.228-.232,3.385.077,3.839.708,1.162,1.61.409,5.575-1.46,9.718S576.68,433.032,576.68,433.032Z" transform="translate(-464.885 -263.983)" fill="#f7b3a3"/>
      <path id="Path_437" data-name="Path 437" d="M588.622,438.69c1.283.7,1.593-.066,1.466-.664.94.3,1.7-.553,1.029-1.233,1.007.216,1.6.083.907-.918,1.023.365,1.864-.4.73-1.206a2.273,2.273,0,0,0-2.948.266C589.252,435.515,588.2,438.469,588.622,438.69Z" transform="translate(-470.179 -268.933)" fill="#f7b3a3"/>
      <path id="Path_438" data-name="Path 438" d="M573.423,433.531c-1.322.614-.9,1.322-.343,1.576-.8.553-.586,1.659.376,1.56-.774.686-1.023,1.239.194,1.278-.9.6-.8,1.737.553,1.305a2.268,2.268,0,0,0,1.543-2.517C575.6,435.937,573.854,433.332,573.423,433.531Z" transform="translate(-463.039 -268.609)" fill="#d17a64"/>
      <path id="Path_440" data-name="Path 440" d="M442.356,565.083c-3.639,4.851-8.7,10.714-6.875,19.807s9.1,15.968,10.913,21.831,5.863,17.379,5.255,24.049-.808,11.521,4.425,21.422,4.851,13.95,3.844,16.173,9.923,8.667,9.923,8.667a25.133,25.133,0,0,0-1.416-8.087c-1.416-3.44-3.8-21.627-2.212-30.316s4-21.018.973-36.987-7.478-22.838-4.043-33.956S442.356,565.083,442.356,565.083Z" transform="translate(-401.614 -326.009)" fill="#f7b3a3"/>
      <path id="Path_441" data-name="Path 441" d="M442.356,565.162c-3.639,4.851-8.7,10.714-6.875,19.807s9.1,15.968,10.913,21.832,5.863,17.379,5.255,24.049-.808,11.521,4.425,21.422a39.7,39.7,0,0,1,4.209,10.62c.525,2.732,7.351,3.518,6.958,1.195-1.195-6.975-2.212-18.834-1.023-25.355,1.621-8.69,4-21.018.973-36.987s-6.416-22.711-2.981-33.829S442.356,565.162,442.356,565.162Z" transform="translate(-401.614 -326.088)" fill="#de6145"/>
      <path id="Path_443" data-name="Path 443" d="M478.346,754.33c-1.217,2.118-2.212,3.739-2.024,4.342s5.963,2.627,6.366,5.963,2.024,6.571,4.652,6.671,5.874,0,5.874,0c1.04-2.467-4.159-3.645-4.159-3.645a23.343,23.343,0,0,1-.808-4.646c-.138-2.389-3.739-5.155-5.863-6.466a45.128,45.128,0,0,0-4.038-2.218Z" transform="translate(-420.027 -411.973)" fill="#d6c9a0"/>
      <path id="Path_444" data-name="Path 444" d="M575.718,589.9c-.5,1.211-.907,3.319-.6,3.944s18.7.553,19.1-.387c1.012-2.329-5.531-3.628-6.958-4.1S575.718,589.9,575.718,589.9Z" transform="translate(-464.139 -338.195)" fill="#d6c9a0"/>
      <path id="Path_445" data-name="Path 445" d="M529.7,560.223a.3.3,0,0,1-.293-.232c-.039-.177-.1-.387-.16-.625a14.3,14.3,0,0,1-.653-5.033.3.3,0,1,1,.6.055,13.828,13.828,0,0,0,.636,4.823c.061.238.122.454.166.636a.3.3,0,0,1-.227.365Z" transform="translate(-443.39 -322.46)" fill="#804b3d"/>
      <path id="Path_446" data-name="Path 446" d="M930.36,270.624c.4,5.05,11.925,38.4,16.372,48.121S966.539,362.4,966.539,362.4s10.006-3.944,10.41-8.186c-2.423-4.043-12.025-22.739-12.838-33.248s-7.074-42.844-16.776-53.962S930.36,270.624,930.36,270.624Z" transform="translate(-622.939 -192.341)" fill="#e6dcbc"/>
      <path id="Path_447" data-name="Path 447" d="M1005.568,450.549c.6-.758-1.72-6.339-1.72-6.339l-7.838.553s-8.1,3.319-9.469,3.468-1.41,3.673-1.41,3.673Z" transform="translate(-647.415 -273.386)" fill="#86aebd"/>
      <path id="Path_448" data-name="Path 448" d="M874.03,451.84c.454-1.516-.835-6.178-.835-6.178l-7.694-.9s-9.281,3.031-11.709,3.54-1.969,3.54-1.969,3.54Z" transform="translate(-587.826 -273.631)" fill="#86aebd"/>
      <path id="Path_449" data-name="Path 449" d="M963.541,299.239a.315.315,0,0,1-.155-.044c-.315-.188-7.683-4.641-9.519-8.623a.3.3,0,0,1,.149-.4.3.3,0,0,1,.4.149c1.759,3.811,9.209,8.3,9.281,8.358a.3.3,0,0,1,.105.415A.31.31,0,0,1,963.541,299.239Z" transform="translate(-633.432 -204.534)" fill="#d6c9a0"/>
      <path id="Path_450" data-name="Path 450" d="M917.694,305.215a.365.365,0,0,1-.149-.033.3.3,0,0,1-.116-.415,83.569,83.569,0,0,0,3.772-8.4.3.3,0,1,1,.564.221,83.833,83.833,0,0,1-3.805,8.474.3.3,0,0,1-.265.155Z" transform="translate(-617.142 -207.23)" fill="#e8e1cc"/>
      <path id="Path_451" data-name="Path 451" d="M890.26,170.425c.453,3.18,1.145,7.683.6,10.006s4.4,5.454,7.583,3.634,2.727-4.093,1.516-7.423-3.944-8.037-3.49-11.676S890.26,170.425,890.26,170.425Z" transform="translate(-605.019 -148.212)" fill="#f7b3a3"/>
      <path id="Path_452" data-name="Path 452" d="M890.853,183.134c2.5-1.455,6.565-7.307,5.653-11.5a9.923,9.923,0,0,0-3.872-1.615c-1.283,1.543-2.384,3.048-2.384,3.048.454,3.18,1.145,7.683.6,10.006A.225.225,0,0,1,890.853,183.134Z" transform="translate(-605.014 -150.855)" fill="#e39a88"/>
      <path id="Path_453" data-name="Path 453" d="M889.8,188.694s6.521,2.572,9.1-3.794c7.744,6.825,17.429,28.651,21.218,38.807s-4.231,14.232-11.82,15.769c-3.789.763-6.267-3.059-16.04-16.367C884.126,212.058,889.8,188.694,889.8,188.694Z" transform="translate(-603.952 -157.504)" fill="#fff"/>
      <path id="Path_454" data-name="Path 454" d="M904.3,176.53s11.383,65.417,17.246,72.591c9.193-3.872,18.292-12.528,18.994-16.267-2.212-5.658-6.665-9.7-9.4-15.565a29.2,29.2,0,0,1-2.7-11.217s11.2,7.279,13.922,14.934a88.321,88.321,0,0,1,3.54,12.025l8.385-2.118s.608-13.546-5.758-23.231-17.174-22.042-24.652-24.852-13.645-2.412-15.565-3.634S904.3,176.53,904.3,176.53Z" transform="translate(-611.293 -153.764)" fill="#367187"/>
      <path id="Path_455" data-name="Path 455" d="M942.069,223.275a.3.3,0,0,1-.188-.066,25.406,25.406,0,0,1-5.631-6.56.313.313,0,1,1,.553-.293,25.227,25.227,0,0,0,5.487,6.377.3.3,0,0,1,.044.426.3.3,0,0,1-.265.116Z" transform="translate(-625.555 -171.487)" fill="#fff"/>
      <path id="Path_456" data-name="Path 456" d="M952.378,254.586a.321.321,0,0,1-.155-.039,30.974,30.974,0,0,1-5.9-4.558.3.3,0,1,1,.437-.42,30.584,30.584,0,0,0,5.769,4.425.3.3,0,0,1,.105.415A.3.3,0,0,1,952.378,254.586Z" transform="translate(-630.028 -186.354)" fill="#fff"/>
      <path id="Path_457" data-name="Path 457" d="M909.7,207.1c.442-3.263,2.262-14.077,5.448-17.207-4.093-.913-6.012-1.173-6.012-1.173l3-4.082s-3.872-4.862-4.812-6.173-4.115-2.871-4.115-2.871,3.086,16.748,4.3,22.788C908.166,201.609,909.7,207.1,909.7,207.1Z" transform="translate(-610.806 -153.344)" fill="#86aebd"/>
      <path id="Path_458" data-name="Path 458" d="M853.711,187.92c-.2,2.124-5.3,4.547-8.131,8.3s-13.54,19.2-16.776,23.347-22.125,18.7-22.125,18.994,2.727,7.074,6.267,8.645c6.77-2.273,17.279-8.236,21.522-12.384s13.137-14.552,13.137-14.552a51.244,51.244,0,0,1,2.732,15.869c0,8.49-1.82,14.752,2.019,18.6s9.8,6.466,10.509,6.261-4.032-12.429-4.646-22.025-3.236-22.639-3.136-29.713S853.711,187.92,853.711,187.92Z" transform="translate(-567.668 -158.854)" fill="#367187"/>
      <path id="Path_459" data-name="Path 459" d="M888.788,214.542c-.183-1.9-5.354-11.7-7.578-14.127,2.212-1.615,4.088-2.727,4.088-2.727l-2.279-3.639a44.9,44.9,0,0,0,2.279-5.083,37.821,37.821,0,0,1,1.66-4.065s1.2,12.4,1.2,15.631S888.788,214.542,888.788,214.542Z" transform="translate(-600.975 -157.504)" fill="#86aebd"/>
      <path id="Path_460" data-name="Path 460" d="M791.533,282.032c-1.659-.221-6.294,1.267-7.605,3.319s-.2,2.887,2.124,1.3a57.044,57.044,0,0,0,5.481-4.619Z" transform="translate(-557.251 -200.901)" fill="#ed9c89"/>
      <path id="Path_461" data-name="Path 461" d="M787.267,292.955c-1.068,1.527-.608,2.528,3.23,5.758,3.037-1.106.608-3.839,0-5.05S787.87,292.086,787.267,292.955Z" transform="translate(-558.77 -205.579)" fill="#ed9c89"/>
      <path id="Path_462" data-name="Path 462" d="M756.437,321.973a.3.3,0,0,1-.022-.6,77.508,77.508,0,0,0,42.319-17.445.3.3,0,1,1,.387.465A78.034,78.034,0,0,1,756.465,322Z" transform="translate(-545.081 -210.653)" fill="#8cb2c0"/>
      <path id="Path_463" data-name="Path 463" d="M553.565,398.586a.3.3,0,0,1-.066-.6c7.688-1.659,15.438-7.273,23.037-16.71a20.339,20.339,0,0,0,3.872-6.593.3.3,0,0,1,.553.182,21.582,21.582,0,0,1-4,6.787c-7.694,9.552-15.559,15.244-23.386,16.925Z" transform="translate(-454.426 -242.258)" fill="#8cb2c0"/>
      <path id="Path_464" data-name="Path 464" d="M595.6,363.246c4.325-4.3,6.809-6.112,10.786-15.72,4.6-11.118,5.409-26.782,14.315-35.366,13.623-13.142,26.273-10.105,37.612-9.2s36.163-10.482,36.163-10.482-.2,6.339,1.82,7.345c-10.913,5.664-30.1,21.632-39.824,18.6,5.824,5.985,11.134,20.664,14.624,22.943,1.029.669.149,2.716.149,2.716a121.49,121.49,0,0,1-6.671,10.913c-2.832,3.839-12.993,13.983-22.086,6.084-3.689-3.191-5.293-11.284-8.85-14.812a32.772,32.772,0,0,1-7.666-11.831s-6.278,16.715-11.615,25.1-14.9,10.509-14.9,10.509Z" transform="translate(-473.34 -205.58)" fill="#f2dea2"/>
      <path id="Path_465" data-name="Path 465" d="M648.931,360.37a.3.3,0,0,1-.3-.254l-1.615-9.956a.3.3,0,0,1,.6-.094l1.615,9.956a.3.3,0,0,1-.249.348Z" transform="translate(-496.316 -231.2)" fill="#d6c9a0"/>
      <path id="Path_466" data-name="Path 466" d="M697.247,338.3H697.2L687.1,336.881a.3.3,0,0,1-.26-.343.31.31,0,0,1,.343-.26l10.105,1.416a.3.3,0,0,1-.039.6Z" transform="translate(-514.112 -225.152)" fill="#d6c9a0"/>
      <path id="Path_467" data-name="Path 467" d="M638.342,312.036c.183,1.388,6.82-.758,6.671-4.7s-11.062-13.186-13.341-14.547-.3,8.64,2.273,10.913A12.573,12.573,0,0,1,638.342,312.036Z" transform="translate(-489.013 -205.661)" fill="#d17a64"/>
      <path id="Path_468" data-name="Path 468" d="M696.58,593.668c0-1.416-1.941-5.238-1.941-5.238s-14.746,2.4-16.262,2.909-.913,2.727-.913,2.727Z" transform="translate(-509.871 -337.835)" fill="#804b3d"/>
      <path id="Path_469" data-name="Path 469" d="M740.129,416.927c-2.3,0-6.123-.476-8.247-3.319a.3.3,0,0,1,.066-.426.3.3,0,0,1,.42.066c2.887,3.872,9.5,2.987,9.569,2.981a.3.3,0,0,1,.343.254.3.3,0,0,1-.255.343A13.62,13.62,0,0,1,740.129,416.927Z" transform="translate(-534.216 -259.494)" fill="#367187"/>
      <path id="Path_470" data-name="Path 470" d="M788.477,588.45a41.892,41.892,0,0,1,2.727,4.641c.227.835-18.341.454-18.341.454s-.6-2.389,1.444-2.766S788.477,588.45,788.477,588.45Z" transform="translate(-552.519 -337.844)" fill="#804b3d"/>
      <path id="Path_471" data-name="Path 471" d="M713.567,462.1h-.083a.3.3,0,0,1-.2-.376l.072-.243c.553-1.9,1.477-5.089,2.766-6.389a.3.3,0,0,1,.432,0,.3.3,0,0,1,0,.426c-1.178,1.189-2.107,4.425-2.611,6.134l-.072.243A.31.31,0,0,1,713.567,462.1Z" transform="translate(-525.923 -278.206)" fill="#fff"/>
      <path id="Path_472" data-name="Path 472" d="M702.674,482.3a.315.315,0,0,1-.138-.033.3.3,0,0,1-.133-.4l1.892-3.706a.3.3,0,0,1,.409-.133.31.31,0,0,1,.133.409l-1.892,3.706A.31.31,0,0,1,702.674,482.3Z" transform="translate(-521.054 -288.481)" fill="#fff"/>
      <path id="Path_473" data-name="Path 473" d="M694.858,507.493h-.066a.3.3,0,0,1-.254-.343,82.092,82.092,0,0,1,2-9.541.3.3,0,1,1,.586.16,80.843,80.843,0,0,0-1.986,9.469A.3.3,0,0,1,694.858,507.493Z" transform="translate(-517.553 -297.143)" fill="#fff"/>
      <path id="Path_474" data-name="Path 474" d="M693.756,531.454a.3.3,0,0,1-.3-.3v-2.434a.3.3,0,1,1,.6,0v2.428a.3.3,0,0,1-.3.3Z" transform="translate(-517.07 -310.998)" fill="#fff"/>
      <path id="Path_475" data-name="Path 475" d="M694.489,546.707a.3.3,0,0,1-.288-.21,9.6,9.6,0,0,1-.2-5.017.3.3,0,0,1,.359-.227.31.31,0,0,1,.232.365,9.022,9.022,0,0,0,.188,4.7.3.3,0,0,1-.2.382A.244.244,0,0,1,694.489,546.707Z" transform="translate(-517.205 -316.749)" fill="#fff"/>
      <path id="Path_476" data-name="Path 476" d="M696.382,566.533a.3.3,0,0,1-.293-.216,60.893,60.893,0,0,1-1.593-9.779.3.3,0,1,1,.6-.05,60.518,60.518,0,0,0,1.571,9.657.3.3,0,0,1-.2.376A.215.215,0,0,1,696.382,566.533Z" transform="translate(-517.533 -323.421)" fill="#fff"/>
      <path id="Path_477" data-name="Path 477" d="M747.317,431.811a.3.3,0,0,1-.3-.277c-.238-2.29-.581-4.607-1.029-6.875a.3.3,0,0,1,.592-.116c.454,2.284.8,4.618,1.04,6.931a.3.3,0,0,1-.271.332Z" transform="translate(-540.547 -264.504)" fill="#fff"/>
      <path id="Path_478" data-name="Path 478" d="M749.943,445.5a.293.293,0,0,1-.3-.282,5.531,5.531,0,0,0-1.023-2.849.3.3,0,1,1,.492-.354,6.084,6.084,0,0,1,1.106,3.164.3.3,0,0,1-.282.321Z" transform="translate(-541.69 -272.337)" fill="#fff"/>
      <path id="Path_479" data-name="Path 479" d="M753.477,467.363a.3.3,0,0,1-.282-.2,57.125,57.125,0,0,1-2.467-11.8.3.3,0,0,1,.266-.337.31.31,0,0,1,.337.266c.277,2.318,1.068,8.1,2.428,11.654a.3.3,0,0,1-.171.393.392.392,0,0,1-.111.022Z" transform="translate(-542.664 -278.22)" fill="#fff"/>
      <path id="Path_480" data-name="Path 480" d="M757.332,488.983a.3.3,0,0,1-.288-.216l-1.609-5.255a.3.3,0,1,1,.553-.177l1.6,5.255a.3.3,0,0,1-.2.382Z" transform="translate(-544.743 -290.735)" fill="#fff"/>
      <path id="Path_481" data-name="Path 481" d="M762.313,507.027a.3.3,0,0,1-.282-.188,40.611,40.611,0,0,1-2-6.527.305.305,0,0,1,.6-.127,39.373,39.373,0,0,0,1.964,6.427.3.3,0,0,1-.172.393A.248.248,0,0,1,762.313,507.027Z" transform="translate(-546.82 -298.292)" fill="#fff"/>
      <path id="Path_482" data-name="Path 482" d="M769.087,533a.3.3,0,0,1-.216-.088c-1.659-1.621-2.356-4.32-2.97-6.7-.2-.774-.393-1.5-.6-2.168a.3.3,0,0,1,.2-.382.31.31,0,0,1,.382.2c.216.675.4,1.416.608,2.212.6,2.307,1.272,4.917,2.81,6.422a.3.3,0,0,1,0,.426.309.309,0,0,1-.21.077Z" transform="translate(-549.169 -308.885)" fill="#fff"/>
      <path id="Path_483" data-name="Path 483" d="M775.4,545.308a.3.3,0,0,1-.243-.116l-1.206-1.582a.293.293,0,0,1,.055-.42.3.3,0,0,1,.426.055l1.222,1.6a.3.3,0,0,1-.055.426A.283.283,0,0,1,775.4,545.308Z" transform="translate(-553.012 -317.59)" fill="#fff"/>
      <path id="Path_484" data-name="Path 484" d="M783.066,563.722a.3.3,0,0,1-.277-.177c-.276-.6-.553-1.294-.879-2.024a31.264,31.264,0,0,0-2.561-5.188.3.3,0,1,1,.5-.343,31.466,31.466,0,0,1,2.622,5.293c.3.725.6,1.41.874,2.008a.31.31,0,0,1-.149.4A.277.277,0,0,1,783.066,563.722Z" transform="translate(-555.421 -323.266)" fill="#fff"/>
      <path id="Path_485" data-name="Path 485" d="M789.216,578.432a.309.309,0,0,1-.2-.077,4.093,4.093,0,0,1-1.361-2.384.3.3,0,0,1,.243-.354.31.31,0,0,1,.354.249,3.523,3.523,0,0,0,1.161,2.03.306.306,0,0,1-.2.536Z" transform="translate(-559.165 -332.107)" fill="#fff"/>
      <path id="Path_486" data-name="Path 486" d="M489.416,615.836a.3.3,0,0,1-.3-.254c-.4-2.6-1.289-6.825-2.146-10.907-.974-4.652-1.892-9.038-2.185-11.322a.3.3,0,1,1,.6-.077c.288,2.257,1.25,6.842,2.174,11.273.857,4.093,1.748,8.3,2.152,10.941a.3.3,0,0,1-.249.343Z" transform="translate(-423.818 -339.876)" fill="#804b3d"/>
      <path id="Path_487" data-name="Path 487" d="M471.661,467.043c-6.173,2.826-12.722,6.466-14.348,11.118s-3.236,13.745-3.435,22.434-1.416,17.18-5.658,21.826c8.485,4.248,19.846,9.5,19.846,9.5s5.752-3.18,6.471-11.931c.326-4.038,2.179-6.87,4-13.131s5.658-19,8.081-21.223,13.142-.608,16.594-1.012c-6.449-5.658,0-17.584,0-17.584a33.579,33.579,0,0,1-7.279,1.012C492.48,468.055,475.278,465.389,471.661,467.043Z" transform="translate(-407.479 -283.347)" fill="#e8e1cc"/>
      <path id="Path_488" data-name="Path 488" d="M874.944,153.385c-.7,5.138,4.121,14.735,6.51,15.963s7.97-2.865,8.3-5.266,1.715-5.775-.52-10.592S875.879,146.626,874.944,153.385Z" transform="translate(-598.144 -141.488)" fill="#f7b3a3"/>
      <path id="Path_489" data-name="Path 489" d="M877.984,146.145s-6.4,10.963-14.934,6.637c2.34-1.549,4.065-4.674,4.038-8.972s5.437-9.3,9.646-6.637c3.457-3.656,9.4-1.261,10.354,2.81s-.426,7.993-.752,11.311c-.26,2.672-1.289,6.444-1.516,4.652s-.481-5.266-2.251-4.823-2.212,1.106-2.849-1.56S877.984,146.145,877.984,146.145Z" transform="translate(-592.859 -135.37)" fill="#de6145"/>
      <path id="Path_490" data-name="Path 490" d="M897.006,161.05c-.188-2.047-.481-5.022,1.693-5.111s2.572,5.62.321,6.637S897.006,161.05,897.006,161.05Z" transform="translate(-607.976 -144.562)" fill="#f7b3a3"/>
      <path id="Path_491" data-name="Path 491" d="M634.8,308.27a5.389,5.389,0,0,0,.99,1.289,12.573,12.573,0,0,1,4.4,8.335c.055.409.68.509,1.527.343.642-3.075,1.25-8.507-1.222-12.467Z" transform="translate(-490.858 -211.519)" fill="#ab6451"/>
      <path id="Path_492" data-name="Path 492" d="M629.528,311.546c1.51-.321,6.853-9.37,5.586-11.942s-8.612-10.415-12.047-8.7-6.156,7.08-4.06,10.736S627.564,311.961,629.528,311.546Z" transform="translate(-483.473 -204.767)" fill="#d17a64"/>
      <path id="Path_493" data-name="Path 493" d="M613.49,289.232c-.326,2.583-.271,7.279-3.529,8.712s-9.873-.957-8.6-7.3,4.193-4.978,4.193-4.978-2.08-5.636,1.571-7.362,8.712-.393,9.4,3.1c3.053-2.141,8.335.138,8.85,4.093s3.042,4.7,4.635,4.353-1,5.874-2.29,4.475-5.73-2.915-8.23-5.2S613.811,286.765,613.49,289.232Z" transform="translate(-475.843 -198.908)" fill="#753626"/>
      <path id="Path_494" data-name="Path 494" d="M603.085,313.709a3.822,3.822,0,0,1-3.214-1.781.3.3,0,1,1,.492-.354,3.23,3.23,0,0,0,2.948,1.521c2.821-.166,6.178-3.562,7.423-5.841a.312.312,0,0,1,.553.288c-1.106,2.052-4.585,5.963-7.921,6.162Z" transform="translate(-475.217 -212.107)" fill="#452016"/>
      <path id="Path_495" data-name="Path 495" d="M612.074,299.314a5.985,5.985,0,0,1-1.433-.166,2.773,2.773,0,0,1-2.423-2.766.288.288,0,0,1,.31-.293.3.3,0,0,1,.293.31,2.242,2.242,0,0,0,1.969,2.146c2.03.5,4.978-.31,5.907-2.152a.3.3,0,0,1,.409-.138.3.3,0,0,1,.133.4C616.394,298.407,614.1,299.314,612.074,299.314Z" transform="translate(-478.979 -207.193)" fill="#452016"/>
      <path id="Path_496" data-name="Path 496" d="M636.516,291.774c1.46-1.4,5.3,2.8,4.851,5.354s-1.079,3.573-3.424,1.5S634.774,293.433,636.516,291.774Z" transform="translate(-491.208 -205.139)" fill="#d17a64"/>
      <path id="Path_497" data-name="Path 497" d="M446.671,421.942c-.863-1.267,2.091-6.123,4.978-8.59s3.435-6.162.6-10.006-13.037-5.454-18.491-2.019c-2.711,1.707-6.7,8.091-4.615,14.294s9.169,9.438,9.169,9.438S450.023,426.887,446.671,421.942Z" transform="translate(-380.608 -253.38)" fill="#8c584a"/>
      <path id="Path_498" data-name="Path 498" d="M492.98,443.476c.94-.282.088-4.082-2.135-5.985s-3.435.382-3.435,2.273S490.978,444.09,492.98,443.476Z" transform="translate(-424.992 -270.063)" fill="#f7b3a3"/>
      <path id="Path_502" data-name="Path 502" d="M547.364,455.684a.3.3,0,0,1-.1-.592,20.928,20.928,0,0,0,4.856-2.268c1.267-1.056,11-12.169,11.062-12.279a.3.3,0,0,1,.431-.028.31.31,0,0,1,.028.431c-.4.454-9.829,11.228-11.162,12.34a21.9,21.9,0,0,1-5.05,2.378Z" transform="translate(-451.648 -271.701)" fill="#d17a64"/>
      <path id="Path_503" data-name="Path 503" d="M531.517,421.647a9.165,9.165,0,0,1-1.106-.039.3.3,0,0,1,.05-.6c4.3.326,22.822-1.466,30.311-10.443a.31.31,0,0,1,.431-.039.3.3,0,0,1,.033.426C554.112,419.467,537.352,421.647,531.517,421.647Z" transform="translate(-444.098 -258.3)" fill="#8cb2c0"/>
    </g>
  </g>
</svg>
