<svg xmlns="http://www.w3.org/2000/svg" width="298.745" height="95" viewBox="0 0 298.745 95">
  <g id="Group_74" data-name="Group 74" transform="translate(0)">
    <path id="Path_1" data-name="Path 1" d="M-40.719,822.721V838a8.438,8.438,0,0,1-8.443,8.443H-72.456l50.788-47.479h4.71V775.2H-112v47.521h23.76v-23.76h31.78l-50.788,47.479h-4.667V870.2h71.324A23.6,23.6,0,0,0-17,846.609V822.721H-40.719Z" transform="translate(112 -775.2)" fill="#fff"/>
    <g id="Group_1" data-name="Group 1" transform="translate(108.831 0.212)">
      <path id="Path_2" data-name="Path 2" d="M307.167,811.171H283.958V800.437h19.263v-7H283.958v-4.879a5.546,5.546,0,0,1,1.74-4.158,5.668,5.668,0,0,1,4.158-1.7H307.21v-7H289.856a12.43,12.43,0,0,0-5.007,1.018,13.008,13.008,0,0,0-6.831,6.831A12.429,12.429,0,0,0,277,788.556v29.616h30.167Z" transform="translate(-220.781 -775.7)" fill="#fff"/>
      <path id="Path_3" data-name="Path 3" d="M416.276,817.311a12.7,12.7,0,0,0,6.746-6.746,11.937,11.937,0,0,0,.976-4.88V788.5a12.52,12.52,0,0,0-.976-4.879,12.7,12.7,0,0,0-6.746-6.746,11.938,11.938,0,0,0-4.879-.976H387v42.472h24.4A12.754,12.754,0,0,0,416.276,817.311Zm-22.36-34.453H411.4a5.406,5.406,0,0,1,2.206.467,5.824,5.824,0,0,1,1.782,1.23,5.7,5.7,0,0,1,1.188,1.782,5.386,5.386,0,0,1,.424,2.206v17.1a5.387,5.387,0,0,1-.424,2.206,5.7,5.7,0,0,1-1.188,1.782,6.669,6.669,0,0,1-1.782,1.23,5.56,5.56,0,0,1-2.206.467H393.916Z" transform="translate(-284.109 -775.815)" fill="#fff"/>
      <path id="Path_4" data-name="Path 4" d="M534.955,775.7v18.457H517.9a5.867,5.867,0,0,1-5.9-5.813V775.7h-6.958v12.644a12.429,12.429,0,0,0,1.018,5.007,13.007,13.007,0,0,0,6.831,6.831A12.431,12.431,0,0,0,517.9,801.2h17.057v4.285a5.387,5.387,0,0,1-1.7,4.031,5.644,5.644,0,0,1-4.073,1.7H517.941a5.869,5.869,0,0,1-5.982-5.9v-.976H505v.976a12.484,12.484,0,0,0,1.018,5.049,13.009,13.009,0,0,0,6.831,6.831,12.634,12.634,0,0,0,5.049,1.018h11.244a12.791,12.791,0,0,0,4.964-.976,12.7,12.7,0,0,0,6.746-6.746,12.056,12.056,0,0,0,.976-4.964V775.785h-6.873Z" transform="translate(-352.042 -775.7)" fill="#fff"/>
      <path id="Path_5" data-name="Path 5" d="M146.367,818.272h33.646a6.935,6.935,0,0,0,6.958-6.958v-7.086h-7v4.116a2.934,2.934,0,0,1-2.928,2.928h-21.3l29.149-28.47h2.079v-7H144.5v14h7v-7h24.185l-29.107,28.428h-2.037v7l1.824.042Z" transform="translate(-144.5 -775.758)" fill="#fff"/>
      <path id="Path_6" data-name="Path 6" d="M556.429,943.221a5.641,5.641,0,0,1-5.643,5.643H549.3v-3.31h-7v10.268h8.825a12.313,12.313,0,0,0,12.3-12.3V924h-6.959v19.221Z" transform="translate(-373.516 -861.077)" fill="#fff"/>
      <rect id="Rectangle_1" data-name="Rectangle 1" width="6.958" height="6.958" transform="translate(182.913 52.316)" fill="#fff"/>
      <path id="Path_7" data-name="Path 7" d="M369.157,917.754a2.417,2.417,0,0,1-2.418,2.419H307.167V899h-7v18.966a2.508,2.508,0,0,1-2.5,2.5H277v7h23.166a7.008,7.008,0,0,0,7-7v6.7h61.989a7.008,7.008,0,0,0,7-7V899.127h-7Z" transform="translate(-220.781 -846.684)" fill="#fff"/>
      <path id="Path_8" data-name="Path 8" d="M187.072,913.426H166.621v-7.213h20.451V899.17H159.578v21.3h20.451v5.092a1.974,1.974,0,0,1-1.952,1.952H151.643V899H144.6v35.6h35.683a6.782,6.782,0,0,0,6.789-6.789v-10.9h0Z" transform="translate(-144.558 -846.684)" fill="#fff"/>
      <rect id="Rectangle_2" data-name="Rectangle 2" width="14.087" height="7.043" transform="translate(107.304 87.66)" fill="#fff"/>
      <rect id="Rectangle_3" data-name="Rectangle 3" width="14.087" height="7.043" transform="translate(125.845 87.66)" fill="#fff"/>
    </g>
  </g>
</svg>
