<svg xmlns="http://www.w3.org/2000/svg" width="85.896" height="85.895" viewBox="0 0 85.896 85.895">
  <g id="Iconly_Bold_Play" data-name="Iconly/Bold/Play" transform="translate(0)">
    <g id="Play" transform="translate(0 0)">
      <path id="Path_46" data-name="Path 46" d="M42.948,0A42.948,42.948,0,1,1,0,42.973,43.009,43.009,0,0,1,42.948,0ZM38.056,25.9a5.768,5.768,0,0,0-2.612.622,5.374,5.374,0,0,0-2.321,2.569,27.705,27.705,0,0,0-.746,3.025,66.237,66.237,0,0,0-.7,10.815,76.644,76.644,0,0,0,.622,10.483,23.48,23.48,0,0,0,.995,3.77A5.219,5.219,0,0,0,37.89,60h.166a14.427,14.427,0,0,0,3.855-1.16c4.394-1.824,13.058-7.5,16.541-11.271h0l.249-.249a17.073,17.073,0,0,0,1.16-1.326,4.989,4.989,0,0,0,1-3.021,5.234,5.234,0,0,0-1.078-3.236c-.166-.166-.788-.87-1.368-1.45C55.011,34.64,46.14,28.673,41.5,26.85A14.108,14.108,0,0,0,38.056,25.9Z" fill="#fff"/>
    </g>
  </g>
</svg>
