<svg id="Company" xmlns="http://www.w3.org/2000/svg" width="128" height="128" viewBox="0 0 128 128">
  <rect id="Rectangle_49" data-name="Rectangle 49" width="128" height="128" transform="translate(0 0)" fill="none"/>
  <g id="Group_31" data-name="Group 31">
    <path id="Path_88" data-name="Path 88" d="M8,30a2.006,2.006,0,0,0-2,2h4a2.006,2.006,0,0,0-2-2ZM4,52H36V36H4a4,4,0,0,0-4,4v8a4,4,0,0,0,4,4ZM119,30a2.006,2.006,0,0,0-2,2h4a2.006,2.006,0,0,0-2-2Zm5,6H92V52h32a4,4,0,0,0,4-4V40a4,4,0,0,0-4-4Zm-5,46a2,2,0,0,0-1.73,1h3.46A2,2,0,0,0,119,82Zm5,5H97v16h27a4,4,0,0,0,4-4V91a4,4,0,0,0-4-4ZM6,58h4a2,2,0,0,0-4,0Zm30,4H4a4,4,0,0,0-4,4v8a4,4,0,0,0,4,4H33.88A8.587,8.587,0,0,1,36,76.71Zm83-6a2.006,2.006,0,0,0-2,2h4a2.006,2.006,0,0,0-2-2Zm5,6H92V76.71A8.587,8.587,0,0,1,94.12,78H124a4,4,0,0,0,4-4V66a4,4,0,0,0-4-4ZM50,74V70a2,2,0,0,1,4,0v4a2.006,2.006,0,0,1-2,2H64a2.006,2.006,0,0,1-2-2V70a2,2,0,0,1,4,0v4a2.006,2.006,0,0,1-2,2H76a2.006,2.006,0,0,1-2-2V70a2,2,0,0,1,4,0v4a2.006,2.006,0,0,1-2,2H88V4a4,4,0,0,0-4-4H44a4,4,0,0,0-4,4V76H52A2.006,2.006,0,0,1,50,74ZM74,10a2,2,0,0,1,4,0v4a2,2,0,0,1-4,0Zm0,12a2,2,0,0,1,4,0v4a2,2,0,0,1-4,0Zm0,12a2,2,0,0,1,4,0v4a2,2,0,0,1-4,0Zm0,12a2,2,0,0,1,4,0v4a2,2,0,0,1-4,0Zm0,12a2,2,0,0,1,4,0v4a2,2,0,0,1-4,0ZM62,10a2,2,0,0,1,4,0v4a2,2,0,0,1-4,0Zm0,12a2,2,0,0,1,4,0v4a2,2,0,0,1-4,0Zm0,12a2,2,0,0,1,4,0v4a2,2,0,0,1-4,0Zm0,12a2,2,0,0,1,4,0v4a2,2,0,0,1-4,0Zm0,12a2,2,0,0,1,4,0v4a2,2,0,0,1-4,0ZM50,10a2,2,0,0,1,4,0v4a2,2,0,0,1-4,0Zm0,12a2,2,0,0,1,4,0v4a2,2,0,0,1-4,0Zm0,12a2,2,0,0,1,4,0v4a2,2,0,0,1-4,0Zm0,12a2,2,0,0,1,4,0v4a2,2,0,0,1-4,0Zm0,12a2,2,0,0,1,4,0v4a2,2,0,0,1-4,0ZM88.54,80H39.46A4.25,4.25,0,0,0,35,84v42a2.006,2.006,0,0,0,2,2H91a2.006,2.006,0,0,0,2-2V84A4.25,4.25,0,0,0,88.54,80ZM89,124H39V84.13L88.54,84a.782.782,0,0,1,.46.13Z" transform="translate(0 0)" fill="#fff"/>
    <path id="Path_89" data-name="Path 89" d="M64,90a2,2,0,0,0-2,2v24a2,2,0,0,0,4,0V92A2,2,0,0,0,64,90Zm-8,10a2,2,0,0,0-2,2v4a2,2,0,0,0,4,0v-4A2,2,0,0,0,56,100Zm16,0a2,2,0,0,0-2,2v4a2,2,0,0,0,4,0v-4A2,2,0,0,0,72,100ZM8,82a2,2,0,0,0-1.73,1H9.73A2,2,0,0,0,8,82ZM4,103H31V87H4a4,4,0,0,0-4,4v8a4,4,0,0,0,4,4Zm2.27,5H9.73a2,2,0,0,0-3.46,0Zm24.82,18.98A5.333,5.333,0,0,1,31,126V112H4a4,4,0,0,0-4,4v8a4,4,0,0,0,4,4H31.35a5.91,5.91,0,0,1-.25-.94.221.221,0,0,1-.01-.08ZM119,107a2,2,0,0,0-1.73,1h3.46A2,2,0,0,0,119,107Zm5,5H97v14a5.333,5.333,0,0,1-.09.98.221.221,0,0,1-.01.08,5.91,5.91,0,0,1-.25.94H124a4,4,0,0,0,4-4v-8a4,4,0,0,0-4-4Z" transform="translate(0 0)" fill="#fff"/>
  </g>
</svg>
