<svg id="Rise" xmlns="http://www.w3.org/2000/svg" width="128" height="128" viewBox="0 0 128 128">
  <rect id="Rectangle_50" data-name="Rectangle 50" width="128" height="128" fill="none"/>
  <g id="Group_32" data-name="Group 32">
    <path id="Path_90" data-name="Path 90" d="M128.659,3.645A4.333,4.333,0,0,0,124.733,1H116.2a4.241,4.241,0,0,0-1.451,8.235l-1.365,1.323L81.6,34.408,49.853,18.536a4.267,4.267,0,0,0-4.267.384L11.453,44.52A4.271,4.271,0,0,0,13.8,52.2a4.267,4.267,0,0,0,2.56-.853L48.4,27.325,80.147,43.2a4.267,4.267,0,0,0,4.48-.384l34.133-25.6.469-.384,1.536-1.579A4.241,4.241,0,0,0,129,13.8V5.267a4.267,4.267,0,0,0-.341-1.621ZM13.8,60.733A12.8,12.8,0,0,0,1,73.533V116.2a12.8,12.8,0,1,0,25.6,0V73.533A12.8,12.8,0,0,0,13.8,60.733Z" transform="translate(-1 -1)" fill="#fff"/>
    <path id="Path_91" data-name="Path 91" d="M21.8,13.267A12.8,12.8,0,0,0,9,26.067v64a12.8,12.8,0,1,0,25.6,0v-64A12.8,12.8,0,0,0,21.8,13.267Zm34.133,12.8a12.8,12.8,0,0,0-12.8,12.8v51.2a12.8,12.8,0,1,0,25.6,0v-51.2A12.8,12.8,0,0,0,55.933,26.067ZM90.067,9a12.8,12.8,0,0,0-12.8,12.8V90.067a12.8,12.8,0,1,0,25.6,0V21.8A12.8,12.8,0,0,0,90.067,9Z" transform="translate(25.133 25.133)" fill="#fff"/>
  </g>
</svg>
